<svg width="693" height="381" viewBox="0 0 693 381" fill="none" xmlns="http://www.w3.org/2000/svg">
<line x1="-3.63789e-08" y1="76.5" x2="693" y2="76.4999" stroke="black"/>
<path d="M280.21 49V32.424H280.63C280.63 33.292 280.77 34.552 281.918 37.156L287.21 49H289.842L295.162 37.128C296.254 34.664 296.45 33.292 296.45 32.424H296.898V49H299.866V29.4H295.442L290.318 40.768C289.226 43.204 288.778 45.024 288.778 46.34H288.33C288.33 44.996 287.826 43.148 286.762 40.74L281.638 29.4H277.242V49H280.21ZM315.107 44.436C314.435 46.172 312.727 46.956 310.795 46.956C308.415 46.956 306.511 45.808 306.315 42.84H317.739V41.72C317.739 37.38 315.219 34.468 310.711 34.468C306.007 34.468 303.487 37.66 303.487 41.944C303.487 46.172 306.203 49.42 310.767 49.42C313.903 49.42 316.955 47.936 317.991 44.436H315.107ZM310.711 36.876C313.007 36.876 314.659 37.884 314.883 40.46H306.343C306.651 38.024 308.387 36.876 310.711 36.876ZM321.118 34.888V49H323.974V41.776C323.974 38.92 325.486 36.988 327.838 36.988C330.19 36.988 330.498 38.892 330.498 40.292V49H333.354V39.228C333.354 36.036 331.814 34.468 329.266 34.468C327.082 34.468 325.486 35.644 324.646 37.296L324.478 37.66H323.974V34.888H321.118ZM339.63 29.008L339.826 29.316C339.583 30.3053 339.228 31.3973 338.762 32.592C338.314 33.7867 337.866 34.8787 337.418 35.868H335.598C335.784 35.1773 335.962 34.4213 336.13 33.6C336.316 32.7787 336.484 31.976 336.634 31.192C336.783 30.3893 336.904 29.6613 336.998 29.008H339.63ZM341.5 44.66C341.808 47.74 344.384 49.42 347.604 49.42C350.992 49.42 353.176 47.6 353.092 44.912C353.036 43.092 351.972 41.328 348.78 40.824L346.148 40.404C345.168 40.236 344.216 39.62 344.216 38.528C344.216 37.408 345.196 36.82 346.96 36.82C349.48 36.82 350.348 38.024 350.572 39.424H353.456C353.064 36.12 350.712 34.468 347.128 34.468C343.74 34.468 341.416 35.98 341.416 38.584C341.416 40.572 342.76 42.364 345.952 42.84L348.136 43.148C349.648 43.372 350.292 44.072 350.292 45.052C350.292 46.312 349.256 47.068 347.576 47.068C345.784 47.068 344.664 46.2 344.272 44.66H341.5ZM371.098 50.68C368.466 47.068 367.206 43.596 367.206 39.34C367.206 35.112 368.466 31.612 371.098 28H368.774C366.422 30.94 364.546 34.328 364.546 39.34C364.546 44.352 366.422 47.74 368.774 50.68H371.098ZM382.03 49.42C386.874 49.42 389.59 47.124 389.59 42.14V29.4H386.65V42.224C386.65 45.248 385.278 46.788 382.03 46.788C378.754 46.788 377.382 45.164 377.382 42.224V29.4H374.442V42.14C374.442 47.124 377.214 49.42 382.03 49.42ZM393.041 42.924C393.293 47.124 396.513 49.42 400.685 49.42C404.605 49.42 407.825 47.432 407.825 43.54C407.825 40.628 405.977 38.836 402.897 38.276L398.977 37.548C397.017 37.184 395.953 36.008 395.953 34.496C395.953 32.788 397.325 31.556 400.153 31.556C403.009 31.556 405.053 32.816 405.249 35.532H408.329C408.021 31.248 404.577 28.98 400.069 28.98C395.981 28.98 392.929 30.912 392.929 34.58C392.929 37.548 394.917 39.452 398.025 40.04L401.777 40.74C403.877 41.132 404.773 42.084 404.773 43.708C404.773 45.92 403.121 46.844 400.713 46.844C397.801 46.844 396.233 45.304 396.121 42.924H393.041ZM412.917 50.68C415.241 47.74 417.117 44.352 417.117 39.34C417.117 34.328 415.241 30.94 412.917 28H410.565C413.197 31.612 414.485 35.112 414.485 39.34C414.485 43.596 413.197 47.068 410.565 50.68H412.917Z" fill="black"/>
<path d="M494.941 49L498.441 37.772C499.113 35.644 499.169 34.384 499.197 33.656H499.617C499.673 34.384 499.729 35.644 500.401 37.772L503.929 49H507.233L513.085 29.4H509.977L506.337 41.804C505.917 43.204 505.749 44.52 505.721 45.304H505.301C505.273 44.436 505.189 43.4 504.685 41.72L500.849 29.4H497.993L494.213 41.58C493.681 43.4 493.569 44.436 493.541 45.304H493.093C493.065 44.492 492.925 43.204 492.477 41.636L488.893 29.4H485.785L491.637 49H494.941ZM521.085 49.42C525.593 49.42 528.505 46.2 528.505 41.944C528.505 37.632 525.593 34.468 521.085 34.468C516.577 34.468 513.665 37.632 513.665 41.944C513.665 46.2 516.577 49.42 521.085 49.42ZM521.085 37.044C523.577 37.044 525.537 38.836 525.537 41.944C525.537 45.08 523.577 46.844 521.085 46.844C518.593 46.844 516.633 45.08 516.633 41.944C516.633 38.836 518.593 37.044 521.085 37.044ZM534.507 49V40.74C534.507 38.808 535.543 36.988 537.755 36.988C539.939 36.988 540.303 38.78 540.303 40.236V49H543.131V40.74C543.131 38.78 544.139 36.988 546.379 36.988C548.927 36.988 548.955 39.592 548.955 40.74V49H551.811V39.564C551.811 35.868 550.075 34.468 547.751 34.468C545.595 34.468 544.279 35.644 543.551 37.128L543.383 37.464H542.879C542.711 35.952 541.507 34.468 539.099 34.468C537.111 34.468 535.767 35.476 535.095 37.016L535.011 37.212H534.507V34.888H531.651V49H534.507ZM566.465 44.436C565.793 46.172 564.085 46.956 562.153 46.956C559.773 46.956 557.869 45.808 557.673 42.84H569.097V41.72C569.097 37.38 566.577 34.468 562.069 34.468C557.365 34.468 554.845 37.66 554.845 41.944C554.845 46.172 557.561 49.42 562.125 49.42C565.261 49.42 568.313 47.936 569.349 44.436H566.465ZM562.069 36.876C564.365 36.876 566.017 37.884 566.241 40.46H557.701C558.009 38.024 559.745 36.876 562.069 36.876ZM572.475 34.888V49H575.331V41.776C575.331 38.92 576.843 36.988 579.195 36.988C581.547 36.988 581.855 38.892 581.855 40.292V49H584.711V39.228C584.711 36.036 583.171 34.468 580.623 34.468C578.439 34.468 576.843 35.644 576.003 37.296L575.835 37.66H575.331V34.888H572.475ZM590.987 29.008L591.183 29.316C590.94 30.3053 590.586 31.3973 590.119 32.592C589.671 33.7867 589.223 34.8787 588.775 35.868H586.955C587.142 35.1773 587.319 34.4213 587.487 33.6C587.674 32.7787 587.842 31.976 587.991 31.192C588.14 30.3893 588.262 29.6613 588.355 29.008H590.987ZM592.858 44.66C593.166 47.74 595.742 49.42 598.962 49.42C602.35 49.42 604.534 47.6 604.45 44.912C604.394 43.092 603.33 41.328 600.138 40.824L597.506 40.404C596.526 40.236 595.574 39.62 595.574 38.528C595.574 37.408 596.554 36.82 598.318 36.82C600.838 36.82 601.706 38.024 601.93 39.424H604.814C604.422 36.12 602.07 34.468 598.486 34.468C595.098 34.468 592.774 35.98 592.774 38.584C592.774 40.572 594.118 42.364 597.31 42.84L599.494 43.148C601.006 43.372 601.65 44.072 601.65 45.052C601.65 46.312 600.614 47.068 598.934 47.068C597.142 47.068 596.022 46.2 595.63 44.66H592.858ZM622.455 50.68C619.823 47.068 618.563 43.596 618.563 39.34C618.563 35.112 619.823 31.612 622.455 28H620.131C617.779 30.94 615.903 34.328 615.903 39.34C615.903 44.352 617.779 47.74 620.131 50.68H622.455ZM633.388 49.42C638.232 49.42 640.948 47.124 640.948 42.14V29.4H638.008V42.224C638.008 45.248 636.636 46.788 633.388 46.788C630.112 46.788 628.74 45.164 628.74 42.224V29.4H625.8V42.14C625.8 47.124 628.572 49.42 633.388 49.42ZM644.398 42.924C644.65 47.124 647.87 49.42 652.042 49.42C655.962 49.42 659.182 47.432 659.182 43.54C659.182 40.628 657.334 38.836 654.254 38.276L650.334 37.548C648.374 37.184 647.31 36.008 647.31 34.496C647.31 32.788 648.682 31.556 651.51 31.556C654.366 31.556 656.41 32.816 656.606 35.532H659.686C659.378 31.248 655.934 28.98 651.426 28.98C647.338 28.98 644.286 30.912 644.286 34.58C644.286 37.548 646.274 39.452 649.382 40.04L653.134 40.74C655.234 41.132 656.13 42.084 656.13 43.708C656.13 45.92 654.478 46.844 652.07 46.844C649.158 46.844 647.59 45.304 647.478 42.924H644.398ZM664.275 50.68C666.599 47.74 668.475 44.352 668.475 39.34C668.475 34.328 666.599 30.94 664.275 28H661.923C664.555 31.612 665.843 35.112 665.843 39.34C665.843 43.596 664.555 47.068 661.923 50.68H664.275Z" fill="black"/>
<line x1="231.5" y1="2.09582e-08" x2="231.5" y2="381" stroke="black"/>
<line x1="462.5" y1="2.22452e-08" x2="462.5" y2="381" stroke="black"/>
<line x1="-3.63789e-08" y1="152.5" x2="693" y2="152.5" stroke="black"/>
<path d="M88.1682 125L80.6362 105.4H77.5002L69.9682 125H73.0762L75.0362 119.96H83.1002L85.0602 125H88.1682ZM77.5562 113.436C78.3962 111.308 78.6482 110.132 78.7602 109.04L78.8162 108.508H79.3202L79.3762 109.04C79.4882 110.132 79.7402 111.28 80.5802 113.464L82.1202 117.44H76.0162L77.5562 113.436ZM100.82 113.772H100.26L100.12 113.436C99.28 111.42 97.404 110.468 95.388 110.468C91.804 110.468 89.536 113.464 89.536 117.944C89.536 122.424 91.776 125.42 95.388 125.42C97.404 125.42 99.28 124.496 100.12 122.452L100.26 122.116H100.82V125H103.676V105.4H100.82V113.772ZM96.648 122.844C93.764 122.844 92.56 120.464 92.56 117.972C92.56 115.48 93.764 113.044 96.648 113.044C99.56 113.044 100.82 115.564 100.82 117.972C100.82 120.38 99.532 122.844 96.648 122.844ZM111.123 109.152V105.4H107.707V109.152H111.123ZM110.843 125V110.888H107.987V125H110.843ZM125.293 113.772H124.733L124.593 113.436C123.753 111.42 121.877 110.468 119.861 110.468C116.277 110.468 114.009 113.464 114.009 117.944C114.009 122.424 116.249 125.42 119.861 125.42C121.877 125.42 123.753 124.496 124.593 122.452L124.733 122.116H125.293V125H128.149V105.4H125.293V113.772ZM121.121 122.844C118.237 122.844 117.033 120.464 117.033 117.972C117.033 115.48 118.237 113.044 121.121 113.044C124.033 113.044 125.293 115.564 125.293 117.972C125.293 120.38 124.005 122.844 121.121 122.844ZM136.463 125.42C138.591 125.42 140.719 124.328 141.615 122.088H142.119V125H144.975V115.816C144.975 112.288 142.511 110.468 138.479 110.468C134.559 110.468 131.927 112.288 131.871 115.676H134.727C134.839 113.408 136.715 112.988 138.451 112.988C140.607 112.988 142.119 113.632 142.119 115.788V116.152L138.535 116.236C134.643 116.32 131.815 118.028 131.815 121.052C131.815 123.796 133.859 125.42 136.463 125.42ZM137.415 123.096C135.875 123.096 134.699 122.368 134.699 120.744C134.699 118.812 136.687 118.392 138.423 118.364L142.119 118.28V118.644C142.119 121.22 139.935 123.096 137.415 123.096ZM148.221 120.66C148.529 123.74 151.105 125.42 154.325 125.42C157.713 125.42 159.897 123.6 159.813 120.912C159.757 119.092 158.693 117.328 155.501 116.824L152.869 116.404C151.889 116.236 150.937 115.62 150.937 114.528C150.937 113.408 151.917 112.82 153.681 112.82C156.201 112.82 157.069 114.024 157.293 115.424H160.177C159.785 112.12 157.433 110.468 153.849 110.468C150.461 110.468 148.137 111.98 148.137 114.584C148.137 116.572 149.481 118.364 152.673 118.84L154.857 119.148C156.369 119.372 157.013 120.072 157.013 121.052C157.013 122.312 155.977 123.068 154.297 123.068C152.505 123.068 151.385 122.2 150.993 120.66H148.221Z" fill="black"/>
<path d="M346.517 125.42C350.717 125.42 353.545 123.432 353.545 119.932C353.545 117.104 351.669 115.592 349.569 115.06L349.233 114.948V114.556L349.625 114.416C351.529 113.8 352.817 112.288 352.817 109.992C352.817 107.136 350.465 104.98 346.489 104.98C342.485 104.98 340.161 107.192 340.161 109.992C340.161 112.288 341.477 113.828 343.381 114.416L343.773 114.556V114.948L343.437 115.06C341.337 115.564 339.489 117.104 339.489 119.932C339.489 123.46 342.289 125.42 346.517 125.42ZM346.517 113.884C344.193 113.884 342.205 112.54 342.205 110.244C342.205 107.864 344.193 106.688 346.517 106.688C348.813 106.688 350.801 107.864 350.801 110.244C350.801 112.54 348.813 113.884 346.517 113.884ZM346.517 123.684C343.633 123.684 341.645 122.368 341.645 119.792C341.645 117.272 343.633 115.844 346.517 115.844C349.373 115.844 351.361 117.272 351.361 119.792C351.361 122.368 349.373 123.684 346.517 123.684Z" fill="black"/>
<path d="M584.416 114.612C584.416 109.628 582.596 104.98 577.388 104.98C573.272 104.98 570.612 107.864 570.612 112.372C570.612 116.404 572.852 119.148 576.632 119.148C578.648 119.148 580.608 118.336 581.672 116.18L581.812 115.9H582.232C582.12 120.268 580.496 123.684 577.08 123.684C574.028 123.684 573.048 121.36 572.908 119.932H570.724C571.172 123.04 573.272 125.42 576.996 125.42C582.736 125.42 584.416 120.24 584.416 114.612ZM577.416 117.384C574.588 117.384 572.768 115.312 572.768 112.12C572.768 108.9 574.532 106.744 577.36 106.744C580.188 106.744 582.064 108.956 582.064 112.176C582.064 115.396 580.216 117.384 577.416 117.384Z" fill="black"/>
<line x1="-3.63789e-08" y1="228.5" x2="693" y2="228.5" stroke="black"/>
<path d="M61.8105 201.42C66.9625 201.42 70.1265 198.004 70.6025 193.496H67.5505C67.1585 196.576 65.0865 198.788 61.8105 198.788C57.7785 198.788 55.8185 195.456 55.8185 191.2C55.8185 186.944 57.8345 183.612 61.8105 183.612C65.0865 183.612 67.1585 185.824 67.5505 188.904H70.6025C70.0985 184.312 66.8225 180.98 61.8105 180.98C55.9305 180.98 52.7665 185.572 52.7665 191.228C52.7665 196.856 55.8745 201.42 61.8105 201.42ZM80.6318 201.42C85.1398 201.42 88.0518 198.2 88.0518 193.944C88.0518 189.632 85.1398 186.468 80.6318 186.468C76.1238 186.468 73.2118 189.632 73.2118 193.944C73.2118 198.2 76.1238 201.42 80.6318 201.42ZM80.6318 189.044C83.1238 189.044 85.0838 190.836 85.0838 193.944C85.0838 197.08 83.1238 198.844 80.6318 198.844C78.1398 198.844 76.1798 197.08 76.1798 193.944C76.1798 190.836 78.1398 189.044 80.6318 189.044ZM91.1976 186.888V201H94.0536V193.776C94.0536 190.92 95.5656 188.988 97.9176 188.988C100.27 188.988 100.578 190.892 100.578 192.292V201H103.434V191.228C103.434 188.036 101.894 186.468 99.3456 186.468C97.1616 186.468 95.5656 187.644 94.7256 189.296L94.5576 189.66H94.0536V186.888H91.1976ZM114.526 201L119.65 186.888H116.682L114.162 193.608C113.406 195.652 113.126 196.968 113.098 197.948H112.65C112.622 196.968 112.342 195.652 111.586 193.608L109.066 186.888H106.07L111.222 201H114.526ZM132.738 196.436C132.066 198.172 130.358 198.956 128.426 198.956C126.046 198.956 124.142 197.808 123.946 194.84H135.37V193.72C135.37 189.38 132.85 186.468 128.342 186.468C123.638 186.468 121.118 189.66 121.118 193.944C121.118 198.172 123.834 201.42 128.398 201.42C131.534 201.42 134.586 199.936 135.622 196.436H132.738ZM128.342 188.876C130.638 188.876 132.29 189.884 132.514 192.46H123.974C124.282 190.024 126.018 188.876 128.342 188.876ZM141.604 201V194.476C141.604 192.32 142.276 189.212 145.664 189.212H147.736V186.608C147.372 186.524 147.008 186.468 146.532 186.468C144.628 186.468 142.864 187.364 142.192 189.66L142.108 189.94H141.604V186.888H138.748V201H141.604ZM149.752 196.66C150.06 199.74 152.636 201.42 155.856 201.42C159.244 201.42 161.428 199.6 161.344 196.912C161.288 195.092 160.224 193.328 157.032 192.824L154.4 192.404C153.42 192.236 152.468 191.62 152.468 190.528C152.468 189.408 153.448 188.82 155.212 188.82C157.732 188.82 158.6 190.024 158.824 191.424H161.708C161.316 188.12 158.964 186.468 155.38 186.468C151.992 186.468 149.668 187.98 149.668 190.584C149.668 192.572 151.012 194.364 154.204 194.84L156.388 195.148C157.9 195.372 158.544 196.072 158.544 197.052C158.544 198.312 157.508 199.068 155.828 199.068C154.036 199.068 152.916 198.2 152.524 196.66H149.752ZM175.695 196.436C175.023 198.172 173.315 198.956 171.383 198.956C169.003 198.956 167.099 197.808 166.903 194.84H178.327V193.72C178.327 189.38 175.807 186.468 171.299 186.468C166.595 186.468 164.075 189.66 164.075 193.944C164.075 198.172 166.791 201.42 171.355 201.42C174.491 201.42 177.543 199.936 178.579 196.436H175.695ZM171.299 188.876C173.595 188.876 175.247 189.884 175.471 192.46H166.931C167.239 190.024 168.975 188.876 171.299 188.876Z" fill="black"/>
<path d="M346.517 201.42C350.717 201.42 353.545 199.432 353.545 195.932C353.545 193.104 351.669 191.592 349.569 191.06L349.233 190.948V190.556L349.625 190.416C351.529 189.8 352.817 188.288 352.817 185.992C352.817 183.136 350.465 180.98 346.489 180.98C342.485 180.98 340.161 183.192 340.161 185.992C340.161 188.288 341.477 189.828 343.381 190.416L343.773 190.556V190.948L343.437 191.06C341.337 191.564 339.489 193.104 339.489 195.932C339.489 199.46 342.289 201.42 346.517 201.42ZM346.517 189.884C344.193 189.884 342.205 188.54 342.205 186.244C342.205 183.864 344.193 182.688 346.517 182.688C348.813 182.688 350.801 183.864 350.801 186.244C350.801 188.54 348.813 189.884 346.517 189.884ZM346.517 199.684C343.633 199.684 341.645 198.368 341.645 195.792C341.645 193.272 343.633 191.844 346.517 191.844C349.373 191.844 351.361 193.272 351.361 195.792C351.361 198.368 349.373 199.684 346.517 199.684Z" fill="black"/>
<path d="M571.273 201V181.4H568.949C568.781 182.856 568.081 185.544 564.749 185.544H563.741V187.56H564.357C566.905 187.56 568.025 186.776 568.669 185.32L568.781 185.124H569.173V201H571.273ZM583.474 201.364C589.018 201.364 591.23 196.688 591.23 191.172C591.23 185.684 589.018 180.98 583.474 180.98C577.902 180.98 575.69 185.684 575.69 191.172C575.69 196.688 577.902 201.364 583.474 201.364ZM583.474 182.94C587.45 182.94 589.018 186.356 589.018 191.172C589.018 196.016 587.45 199.432 583.474 199.432C579.526 199.432 577.902 196.044 577.902 191.172C577.902 186.356 579.526 182.94 583.474 182.94Z" fill="black"/>
<line x1="-3.63789e-08" y1="304.5" x2="693" y2="304.5" stroke="black"/>
<path d="M90.4717 277V260.788H90.8917C90.9757 261.488 91.0877 262.524 92.4597 264.764L99.9917 277H103.856V257.4H100.888V273.612H100.468C100.384 272.856 100.272 271.876 98.8997 269.664L91.3397 257.4H87.5037V277H90.4717ZM111.492 261.152V257.4H108.076V261.152H111.492ZM111.212 277V262.888H108.356V277H111.212ZM124.542 266.836L128.462 262.888H124.71L120.51 267.004C119.53 268.096 119.194 268.908 118.998 269.86L118.914 270.14H118.41V257.4H115.554V277H118.41V272.968L122.386 268.964L125.41 277H128.518L124.542 266.836ZM141.994 272.436C141.322 274.172 139.614 274.956 137.682 274.956C135.302 274.956 133.398 273.808 133.202 270.84H144.626V269.72C144.626 265.38 142.106 262.468 137.598 262.468C132.894 262.468 130.374 265.66 130.374 269.944C130.374 274.172 133.09 277.42 137.654 277.42C140.79 277.42 143.842 275.936 144.878 272.436H141.994ZM137.598 264.876C139.894 264.876 141.546 265.884 141.77 268.46H133.23C133.538 266.024 135.274 264.876 137.598 264.876Z" fill="black"/>
<path d="M346.517 277.42C350.717 277.42 353.545 275.432 353.545 271.932C353.545 269.104 351.669 267.592 349.569 267.06L349.233 266.948V266.556L349.625 266.416C351.529 265.8 352.817 264.288 352.817 261.992C352.817 259.136 350.465 256.98 346.489 256.98C342.485 256.98 340.161 259.192 340.161 261.992C340.161 264.288 341.477 265.828 343.381 266.416L343.773 266.556V266.948L343.437 267.06C341.337 267.564 339.489 269.104 339.489 271.932C339.489 275.46 342.289 277.42 346.517 277.42ZM346.517 265.884C344.193 265.884 342.205 264.54 342.205 262.244C342.205 259.864 344.193 258.688 346.517 258.688C348.813 258.688 350.801 259.864 350.801 262.244C350.801 264.54 348.813 265.884 346.517 265.884ZM346.517 275.684C343.633 275.684 341.645 274.368 341.645 271.792C341.645 269.272 343.633 267.844 346.517 267.844C349.373 267.844 351.361 269.272 351.361 271.792C351.361 274.368 349.373 275.684 346.517 275.684Z" fill="black"/>
<path d="M572.275 266.612C572.275 261.628 570.455 256.98 565.247 256.98C561.131 256.98 558.471 259.864 558.471 264.372C558.471 268.404 560.711 271.148 564.491 271.148C566.507 271.148 568.467 270.336 569.531 268.18L569.671 267.9H570.091C569.979 272.268 568.355 275.684 564.939 275.684C561.887 275.684 560.907 273.36 560.767 271.932H558.583C559.031 275.04 561.131 277.42 564.855 277.42C570.595 277.42 572.275 272.24 572.275 266.612ZM565.275 269.384C562.447 269.384 560.627 267.312 560.627 264.12C560.627 260.9 562.391 258.744 565.219 258.744C568.047 258.744 569.923 260.956 569.923 264.176C569.923 267.396 568.075 269.384 565.275 269.384ZM578.156 277V272.604H575.832V277H578.156ZM581.992 270.812C582.076 274.76 584.708 277.448 588.852 277.448C593.36 277.448 596.02 274.564 596.02 270.112C596.02 265.688 593.612 263.196 590.056 263.196C588.348 263.196 586.444 263.812 585.268 265.716L585.072 266.052H584.652L584.68 259.276H594.76V257.4H582.776L582.748 268.376H585.016C585.52 266.5 586.948 264.96 589.356 264.96C591.876 264.96 593.808 266.64 593.808 270.252C593.808 273.948 591.708 275.684 588.852 275.684C586.08 275.684 584.26 273.808 584.092 270.84L581.992 270.812Z" fill="black"/>
<path d="M94.2611 353L101.485 333.4H98.3771L94.1771 344.936C93.2531 347.512 93.0571 348.268 92.9171 349.388H92.4131C92.2731 348.268 92.0211 347.428 91.1531 344.964L86.9531 333.4H83.8451L91.0691 353H94.2611ZM106.426 353.42C108.554 353.42 110.682 352.328 111.578 350.088H112.082V353H114.938V343.816C114.938 340.288 112.474 338.468 108.442 338.468C104.522 338.468 101.89 340.288 101.834 343.676H104.69C104.802 341.408 106.678 340.988 108.414 340.988C110.57 340.988 112.082 341.632 112.082 343.788V344.152L108.498 344.236C104.606 344.32 101.778 346.028 101.778 349.052C101.778 351.796 103.822 353.42 106.426 353.42ZM107.378 351.096C105.838 351.096 104.662 350.368 104.662 348.744C104.662 346.812 106.65 346.392 108.386 346.364L112.082 346.28V346.644C112.082 349.22 109.898 351.096 107.378 351.096ZM118.856 338.888V353H121.712V345.776C121.712 342.92 123.224 340.988 125.576 340.988C127.928 340.988 128.236 342.892 128.236 344.292V353H131.092V343.228C131.092 340.036 129.552 338.468 127.004 338.468C124.82 338.468 123.224 339.644 122.384 341.296L122.216 341.66H121.712V338.888H118.856ZM134.344 348.66C134.652 351.74 137.228 353.42 140.448 353.42C143.836 353.42 146.02 351.6 145.936 348.912C145.88 347.092 144.816 345.328 141.624 344.824L138.992 344.404C138.012 344.236 137.06 343.62 137.06 342.528C137.06 341.408 138.04 340.82 139.804 340.82C142.324 340.82 143.192 342.024 143.416 343.424H146.3C145.908 340.12 143.556 338.468 139.972 338.468C136.584 338.468 134.26 339.98 134.26 342.584C134.26 344.572 135.604 346.364 138.796 346.84L140.98 347.148C142.492 347.372 143.136 348.072 143.136 349.052C143.136 350.312 142.1 351.068 140.42 351.068C138.628 351.068 137.508 350.2 137.116 348.66H134.344Z" fill="black"/>
<path d="M346.517 353.42C350.717 353.42 353.545 351.432 353.545 347.932C353.545 345.104 351.669 343.592 349.569 343.06L349.233 342.948V342.556L349.625 342.416C351.529 341.8 352.817 340.288 352.817 337.992C352.817 335.136 350.465 332.98 346.489 332.98C342.485 332.98 340.161 335.192 340.161 337.992C340.161 340.288 341.477 341.828 343.381 342.416L343.773 342.556V342.948L343.437 343.06C341.337 343.564 339.489 345.104 339.489 347.932C339.489 351.46 342.289 353.42 346.517 353.42ZM346.517 341.884C344.193 341.884 342.205 340.54 342.205 338.244C342.205 335.864 344.193 334.688 346.517 334.688C348.813 334.688 350.801 335.864 350.801 338.244C350.801 340.54 348.813 341.884 346.517 341.884ZM346.517 351.684C343.633 351.684 341.645 350.368 341.645 347.792C341.645 345.272 343.633 343.844 346.517 343.844C349.373 343.844 351.361 345.272 351.361 347.792C351.361 350.368 349.373 351.684 346.517 351.684Z" fill="black"/>
<path d="M572.275 342.612C572.275 337.628 570.455 332.98 565.247 332.98C561.131 332.98 558.471 335.864 558.471 340.372C558.471 344.404 560.711 347.148 564.491 347.148C566.507 347.148 568.467 346.336 569.531 344.18L569.671 343.9H570.091C569.979 348.268 568.355 351.684 564.939 351.684C561.887 351.684 560.907 349.36 560.767 347.932H558.583C559.031 351.04 561.131 353.42 564.855 353.42C570.595 353.42 572.275 348.24 572.275 342.612ZM565.275 345.384C562.447 345.384 560.627 343.312 560.627 340.12C560.627 336.9 562.391 334.744 565.219 334.744C568.047 334.744 569.923 336.956 569.923 340.176C569.923 343.396 568.075 345.384 565.275 345.384ZM578.156 353V348.604H575.832V353H578.156ZM581.992 346.812C582.076 350.76 584.708 353.448 588.852 353.448C593.36 353.448 596.02 350.564 596.02 346.112C596.02 341.688 593.612 339.196 590.056 339.196C588.348 339.196 586.444 339.812 585.268 341.716L585.072 342.052H584.652L584.68 335.276H594.76V333.4H582.776L582.748 344.376H585.016C585.52 342.5 586.948 340.96 589.356 340.96C591.876 340.96 593.808 342.64 593.808 346.252C593.808 349.948 591.708 351.684 588.852 351.684C586.08 351.684 584.26 349.808 584.092 346.84L581.992 346.812Z" fill="black"/>
</svg>
