<svg width="924" height="1521" viewBox="0 0 924 1521" fill="none" xmlns="http://www.w3.org/2000/svg">
<line x1="-4.37114e-08" y1="76.5" x2="924" y2="76.4999" stroke="black"/>
<path d="M107.193 49.42C112.037 49.42 114.753 47.124 114.753 42.14V29.4H111.813V42.224C111.813 45.248 110.441 46.788 107.193 46.788C103.917 46.788 102.545 45.164 102.545 42.224V29.4H99.6046V42.14C99.6046 47.124 102.377 49.42 107.193 49.42ZM118.203 42.924C118.455 47.124 121.675 49.42 125.847 49.42C129.767 49.42 132.987 47.432 132.987 43.54C132.987 40.628 131.139 38.836 128.059 38.276L124.139 37.548C122.179 37.184 121.115 36.008 121.115 34.496C121.115 32.788 122.487 31.556 125.315 31.556C128.171 31.556 130.215 32.816 130.411 35.532H133.491C133.183 31.248 129.739 28.98 125.231 28.98C121.143 28.98 118.091 30.912 118.091 34.58C118.091 37.548 120.079 39.452 123.187 40.04L126.939 40.74C129.039 41.132 129.935 42.084 129.935 43.708C129.935 45.92 128.283 46.844 125.875 46.844C122.963 46.844 121.395 45.304 121.283 42.924H118.203Z" fill="black"/>
<path d="M336.8 49.42C341.644 49.42 344.36 47.124 344.36 42.14V29.4H341.42V42.224C341.42 45.248 340.048 46.788 336.8 46.788C333.524 46.788 332.152 45.164 332.152 42.224V29.4H329.212V42.14C329.212 47.124 331.984 49.42 336.8 49.42ZM358.618 35.728L364.078 29.4H360.158L354.306 36.12C352.906 37.604 352.654 38.696 352.514 39.844H352.01V29.4H349.07V49H352.01V43.344L356.546 38.108L361.054 49H364.33L358.618 35.728Z" fill="black"/>
<path d="M561.492 49H573.84V46.424H564.432V40.208H573V37.744H564.432V31.976H573.672V29.4H561.492V49ZM585.562 49.42C590.406 49.42 593.122 47.124 593.122 42.14V29.4H590.182V42.224C590.182 45.248 588.81 46.788 585.562 46.788C582.286 46.788 580.914 45.164 580.914 42.224V29.4H577.974V42.14C577.974 47.124 580.746 49.42 585.562 49.42Z" fill="black"/>
<path d="M798.756 49.42C803.656 49.42 805.784 46.368 805.784 42.168V29.4H802.816V42.14C802.816 45.024 801.752 46.788 798.756 46.788C796.404 46.788 794.948 45.612 794.696 42.728H791.728C791.896 46.34 794.024 49.42 798.756 49.42ZM813.44 49.056V41.58H818.844C823.072 41.58 825.368 39.2 825.368 35.504C825.368 31.92 823.072 29.4 818.844 29.4H810.5V49L813.44 49.056ZM813.44 31.976H818.48C821.084 31.976 822.344 33.404 822.344 35.504C822.344 37.604 821.084 39.004 818.508 39.004H813.44V31.976Z" fill="black"/>
<line x1="231.5" y1="2.22452e-08" x2="231.5" y2="1521" stroke="black"/>
<line x1="462.5" y1="2.22452e-08" x2="462.5" y2="1521" stroke="black"/>
<line x1="693.5" y1="2.22452e-08" x2="693.5" y2="1521" stroke="black"/>
<line x1="-4.37114e-08" y1="152.5" x2="924" y2="152.5" stroke="black"/>
<path d="M120.349 105.4H117.325L107.777 118.476V120.744H118.165V125H120.349V120.744H123.261V118.924H120.349V105.4ZM118.165 118.924H109.709V118.504C110.129 118.364 110.549 118.028 111.249 117.048L116.849 109.264C117.465 108.368 117.661 107.724 117.773 107.276H118.165V118.924Z" fill="black"/>
<path d="M327.552 119.316C327.72 122.928 330.352 125.448 334.328 125.448C338.136 125.448 341.16 123.264 341.16 119.932C341.16 117.496 339.62 115.76 337.212 115.2L336.82 115.116V114.696L337.212 114.64C339.62 114.08 340.908 112.54 340.908 110.3C340.908 107.052 338.22 104.98 334.44 104.98C330.492 104.98 327.86 107.248 327.72 111.056H329.82C329.904 108.48 331.5 106.716 334.356 106.716C337.156 106.716 338.724 108.452 338.724 110.524C338.724 113.8 334.86 114.024 333.628 114.024H332.116V115.928H333.712C336.316 115.928 338.976 117.16 338.976 119.764C338.976 122.284 336.848 123.6 334.328 123.6C331.5 123.6 329.792 121.892 329.652 119.316H327.552ZM347.046 125V120.604H344.722V125H347.046ZM350.883 118.812C350.967 122.76 353.599 125.448 357.743 125.448C362.251 125.448 364.911 122.564 364.911 118.112C364.911 113.688 362.503 111.196 358.947 111.196C357.239 111.196 355.335 111.812 354.159 113.716L353.963 114.052H353.543L353.571 107.276H363.651V105.4H351.667L351.639 116.376H353.907C354.411 114.5 355.839 112.96 358.247 112.96C360.767 112.96 362.699 114.64 362.699 118.252C362.699 121.948 360.599 123.684 357.743 123.684C354.971 123.684 353.151 121.808 352.983 118.84L350.883 118.812Z" fill="black"/>
<path d="M549.898 119.316C550.066 122.928 552.698 125.448 556.674 125.448C560.482 125.448 563.506 123.264 563.506 119.932C563.506 117.496 561.966 115.76 559.558 115.2L559.166 115.116V114.696L559.558 114.64C561.966 114.08 563.254 112.54 563.254 110.3C563.254 107.052 560.566 104.98 556.786 104.98C552.838 104.98 550.206 107.248 550.066 111.056H552.166C552.25 108.48 553.846 106.716 556.702 106.716C559.502 106.716 561.07 108.452 561.07 110.524C561.07 113.8 557.206 114.024 555.974 114.024H554.462V115.928H556.058C558.662 115.928 561.322 117.16 561.322 119.764C561.322 122.284 559.194 123.6 556.674 123.6C553.846 123.6 552.138 121.892 551.998 119.316H549.898ZM566.256 118.812C566.34 122.76 568.972 125.448 573.116 125.448C577.624 125.448 580.284 122.564 580.284 118.112C580.284 113.688 577.876 111.196 574.32 111.196C572.612 111.196 570.708 111.812 569.532 113.716L569.336 114.052H568.916L568.944 107.276H579.024V105.4H567.04L567.012 116.376H569.28C569.784 114.5 571.212 112.96 573.62 112.96C576.14 112.96 578.072 114.64 578.072 118.252C578.072 121.948 575.972 123.684 573.116 123.684C570.344 123.684 568.524 121.808 568.356 118.84L566.256 118.812ZM586.701 125V120.604H584.377V125H586.701ZM590.537 118.812C590.621 122.76 593.253 125.448 597.397 125.448C601.905 125.448 604.565 122.564 604.565 118.112C604.565 113.688 602.157 111.196 598.601 111.196C596.893 111.196 594.989 111.812 593.813 113.716L593.617 114.052H593.197L593.225 107.276H603.305V105.4H591.321L591.293 116.376H593.561C594.065 114.5 595.493 112.96 597.901 112.96C600.421 112.96 602.353 114.64 602.353 118.252C602.353 121.948 600.253 123.684 597.397 123.684C594.625 123.684 592.805 121.808 592.637 118.84L590.537 118.812Z" fill="black"/>
<path d="M806.614 125V123.124H797.57V122.788L801.126 119.512C804.318 116.992 807.202 114.248 807.202 110.468C807.202 106.828 804.402 104.98 800.986 104.98C796.926 104.98 794.126 107.444 794.126 111.336H796.226C796.226 108.424 798.214 106.772 801.014 106.772C803.618 106.772 805.074 108.228 805.074 110.44C805.074 113.408 802.694 115.816 800.006 118.252L794.826 122.928V125H806.614ZM822.528 125V123.124H813.484V122.788L817.04 119.512C820.232 116.992 823.116 114.248 823.116 110.468C823.116 106.828 820.316 104.98 816.9 104.98C812.84 104.98 810.04 107.444 810.04 111.336H812.14C812.14 108.424 814.128 106.772 816.928 106.772C819.532 106.772 820.988 108.228 820.988 110.44C820.988 113.408 818.608 115.816 815.92 118.252L810.74 122.928V125H822.528Z" fill="black"/>
<line x1="-4.37114e-08" y1="228.5" x2="924" y2="228.5" stroke="black"/>
<path d="M108.413 181.4H105.389L95.8414 194.476V196.744H106.229V201H108.413V196.744H111.325V194.924H108.413V181.4ZM106.229 194.924H97.7734V194.504C98.1934 194.364 98.6134 194.028 99.3134 193.048L104.913 185.264C105.529 184.368 105.725 183.724 105.837 183.276H106.229V194.924ZM116.757 201V196.604H114.433V201H116.757ZM120.594 194.812C120.678 198.76 123.31 201.448 127.454 201.448C131.962 201.448 134.622 198.564 134.622 194.112C134.622 189.688 132.214 187.196 128.658 187.196C126.95 187.196 125.046 187.812 123.87 189.716L123.674 190.052H123.254L123.282 183.276H133.362V181.4H121.378L121.35 192.376H123.618C124.122 190.5 125.55 188.96 127.958 188.96C130.478 188.96 132.41 190.64 132.41 194.252C132.41 197.948 130.31 199.684 127.454 199.684C124.682 199.684 122.862 197.808 122.694 194.84L120.594 194.812Z" fill="black"/>
<path d="M351.349 181.4H348.325L338.777 194.476V196.744H349.165V201H351.349V196.744H354.261V194.924H351.349V181.4ZM349.165 194.924H340.709V194.504C341.129 194.364 341.549 194.028 342.249 193.048L347.849 185.264C348.465 184.368 348.661 183.724 348.773 183.276H349.165V194.924Z" fill="black"/>
<path d="M562.545 195.316C562.713 198.928 565.345 201.448 569.321 201.448C573.129 201.448 576.153 199.264 576.153 195.932C576.153 193.496 574.613 191.76 572.205 191.2L571.813 191.116V190.696L572.205 190.64C574.613 190.08 575.901 188.54 575.901 186.3C575.901 183.052 573.213 180.98 569.433 180.98C565.485 180.98 562.853 183.248 562.713 187.056H564.812C564.897 184.48 566.493 182.716 569.349 182.716C572.149 182.716 573.717 184.452 573.717 186.524C573.717 189.8 569.853 190.024 568.621 190.024H567.109V191.928H568.704C571.309 191.928 573.969 193.16 573.969 195.764C573.969 198.284 571.841 199.6 569.321 199.6C566.493 199.6 564.785 197.892 564.645 195.316H562.545ZM578.623 191.788C578.623 196.772 580.443 201.42 585.651 201.42C589.767 201.42 592.427 198.508 592.427 194.028C592.427 189.996 590.187 187.252 586.407 187.252C584.391 187.252 582.431 188.064 581.367 190.22L581.227 190.5H580.835C580.919 186.132 582.543 182.716 585.987 182.716C589.011 182.716 589.991 185.04 590.159 186.468H592.315C591.867 183.36 589.767 180.98 586.043 180.98C580.303 180.98 578.623 186.16 578.623 191.788ZM585.651 189.016C588.451 189.016 590.271 191.088 590.271 194.28C590.271 197.5 588.507 199.656 585.679 199.656C582.851 199.656 580.975 197.444 580.975 194.224C580.975 191.004 582.823 189.016 585.651 189.016Z" fill="black"/>
<path d="M794.473 201V199.124H785.429V198.788L788.985 195.512C792.177 192.992 795.061 190.248 795.061 186.468C795.061 182.828 792.261 180.98 788.845 180.98C784.785 180.98 781.985 183.444 781.985 187.336H784.085C784.085 184.424 786.073 182.772 788.873 182.772C791.477 182.772 792.933 184.228 792.933 186.44C792.933 189.408 790.553 191.816 787.865 194.252L782.685 198.928V201H794.473ZM810.387 201V199.124H801.343V198.788L804.899 195.512C808.091 192.992 810.975 190.248 810.975 186.468C810.975 182.828 808.175 180.98 804.759 180.98C800.699 180.98 797.899 183.444 797.899 187.336H799.999C799.999 184.424 801.987 182.772 804.787 182.772C807.391 182.772 808.847 184.228 808.847 186.44C808.847 189.408 806.467 191.816 803.779 194.252L798.599 198.928V201H810.387ZM816.921 201V196.604H814.597V201H816.921ZM820.758 194.812C820.842 198.76 823.474 201.448 827.618 201.448C832.126 201.448 834.786 198.564 834.786 194.112C834.786 189.688 832.378 187.196 828.822 187.196C827.114 187.196 825.21 187.812 824.034 189.716L823.838 190.052H823.418L823.446 183.276H833.526V181.4H821.542L821.514 192.376H823.782C824.286 190.5 825.714 188.96 828.122 188.96C830.642 188.96 832.574 190.64 832.574 194.252C832.574 197.948 830.474 199.684 827.618 199.684C824.846 199.684 823.026 197.808 822.858 194.84L820.758 194.812Z" fill="black"/>
<line x1="-4.37114e-08" y1="304.5" x2="924" y2="304.5" stroke="black"/>
<path d="M108.358 270.812C108.442 274.76 111.074 277.448 115.218 277.448C119.726 277.448 122.386 274.564 122.386 270.112C122.386 265.688 119.978 263.196 116.422 263.196C114.714 263.196 112.81 263.812 111.634 265.716L111.438 266.052H111.018L111.046 259.276H121.126V257.4H109.142L109.114 268.376H111.382C111.886 266.5 113.314 264.96 115.722 264.96C118.242 264.96 120.174 266.64 120.174 270.252C120.174 273.948 118.074 275.684 115.218 275.684C112.446 275.684 110.626 273.808 110.458 270.84L108.358 270.812Z" fill="black"/>
<path d="M339.413 257.4H336.389L326.841 270.476V272.744H337.229V277H339.413V272.744H342.325V270.924H339.413V257.4ZM337.229 270.924H328.773V270.504C329.193 270.364 329.613 270.028 330.313 269.048L335.913 261.264C336.529 260.368 336.725 259.724 336.837 259.276H337.229V270.924ZM347.757 277V272.604H345.433V277H347.757ZM351.594 270.812C351.678 274.76 354.31 277.448 358.454 277.448C362.962 277.448 365.622 274.564 365.622 270.112C365.622 265.688 363.214 263.196 359.658 263.196C357.95 263.196 356.046 263.812 354.87 265.716L354.674 266.052H354.254L354.282 259.276H364.362V257.4H352.378L352.35 268.376H354.618C355.122 266.5 356.55 264.96 358.958 264.96C361.478 264.96 363.41 266.64 363.41 270.252C363.41 273.948 361.31 275.684 358.454 275.684C355.682 275.684 353.862 273.808 353.694 270.84L351.594 270.812Z" fill="black"/>
<path d="M550.404 271.316C550.572 274.928 553.204 277.448 557.18 277.448C560.988 277.448 564.012 275.264 564.012 271.932C564.012 269.496 562.472 267.76 560.064 267.2L559.672 267.116V266.696L560.064 266.64C562.472 266.08 563.76 264.54 563.76 262.3C563.76 259.052 561.072 256.98 557.292 256.98C553.344 256.98 550.712 259.248 550.572 263.056H552.672C552.756 260.48 554.352 258.716 557.208 258.716C560.008 258.716 561.576 260.452 561.576 262.524C561.576 265.8 557.712 266.024 556.48 266.024H554.968V267.928H556.564C559.168 267.928 561.828 269.16 561.828 271.764C561.828 274.284 559.7 275.6 557.18 275.6C554.352 275.6 552.644 273.892 552.504 271.316H550.404ZM566.482 267.788C566.482 272.772 568.302 277.42 573.51 277.42C577.626 277.42 580.286 274.508 580.286 270.028C580.286 265.996 578.046 263.252 574.266 263.252C572.25 263.252 570.29 264.064 569.226 266.22L569.086 266.5H568.694C568.778 262.132 570.402 258.716 573.846 258.716C576.87 258.716 577.85 261.04 578.018 262.468H580.174C579.726 259.36 577.626 256.98 573.902 256.98C568.162 256.98 566.482 262.16 566.482 267.788ZM573.51 265.016C576.31 265.016 578.13 267.088 578.13 270.28C578.13 273.5 576.366 275.656 573.538 275.656C570.71 275.656 568.834 273.444 568.834 270.224C568.834 267.004 570.682 265.016 573.51 265.016ZM586.195 277V272.604H583.871V277H586.195ZM590.032 270.812C590.116 274.76 592.748 277.448 596.892 277.448C601.4 277.448 604.06 274.564 604.06 270.112C604.06 265.688 601.652 263.196 598.096 263.196C596.388 263.196 594.484 263.812 593.308 265.716L593.112 266.052H592.692L592.72 259.276H602.8V257.4H590.816L590.788 268.376H593.056C593.56 266.5 594.988 264.96 597.396 264.96C599.916 264.96 601.848 266.64 601.848 270.252C601.848 273.948 599.748 275.684 596.892 275.684C594.12 275.684 592.3 273.808 592.132 270.84L590.032 270.812Z" fill="black"/>
<path d="M806.532 277V275.124H797.488V274.788L801.044 271.512C804.236 268.992 807.12 266.248 807.12 262.468C807.12 258.828 804.32 256.98 800.904 256.98C796.844 256.98 794.044 259.444 794.044 263.336H796.144C796.144 260.424 798.132 258.772 800.932 258.772C803.536 258.772 804.992 260.228 804.992 262.44C804.992 265.408 802.612 267.816 799.924 270.252L794.744 274.928V277H806.532ZM809.65 271.316C809.818 274.928 812.45 277.448 816.426 277.448C820.234 277.448 823.258 275.264 823.258 271.932C823.258 269.496 821.718 267.76 819.31 267.2L818.918 267.116V266.696L819.31 266.64C821.718 266.08 823.006 264.54 823.006 262.3C823.006 259.052 820.318 256.98 816.538 256.98C812.59 256.98 809.958 259.248 809.818 263.056H811.918C812.002 260.48 813.598 258.716 816.454 258.716C819.254 258.716 820.822 260.452 820.822 262.524C820.822 265.8 816.958 266.024 815.726 266.024H814.214V267.928H815.81C818.414 267.928 821.074 269.16 821.074 271.764C821.074 274.284 818.946 275.6 816.426 275.6C813.598 275.6 811.89 273.892 811.75 271.316H809.65Z" fill="black"/>
<line x1="-4.37114e-08" y1="380.5" x2="924" y2="380.5" stroke="black"/>
<path d="M96.2171 346.812C96.3011 350.76 98.9331 353.448 103.077 353.448C107.585 353.448 110.245 350.564 110.245 346.112C110.245 341.688 107.837 339.196 104.281 339.196C102.573 339.196 100.669 339.812 99.4931 341.716L99.2971 342.052H98.8771L98.9051 335.276H108.985V333.4H97.0011L96.9731 344.376H99.2411C99.7451 342.5 101.173 340.96 103.581 340.96C106.101 340.96 108.033 342.64 108.033 346.252C108.033 349.948 105.933 351.684 103.077 351.684C100.305 351.684 98.4851 349.808 98.3171 346.84L96.2171 346.812ZM116.662 353V348.604H114.338V353H116.662ZM120.498 346.812C120.582 350.76 123.214 353.448 127.358 353.448C131.866 353.448 134.526 350.564 134.526 346.112C134.526 341.688 132.118 339.196 128.562 339.196C126.854 339.196 124.95 339.812 123.774 341.716L123.578 342.052H123.158L123.186 335.276H133.266V333.4H121.282L121.254 344.376H123.522C124.026 342.5 125.454 340.96 127.862 340.96C130.382 340.96 132.314 342.64 132.314 346.252C132.314 349.948 130.214 351.684 127.358 351.684C124.586 351.684 122.766 349.808 122.598 346.84L120.498 346.812Z" fill="black"/>
<path d="M339.358 346.812C339.442 350.76 342.074 353.448 346.218 353.448C350.726 353.448 353.386 350.564 353.386 346.112C353.386 341.688 350.978 339.196 347.422 339.196C345.714 339.196 343.81 339.812 342.634 341.716L342.438 342.052H342.018L342.046 335.276H352.126V333.4H340.142L340.114 344.376H342.382C342.886 342.5 344.314 340.96 346.722 340.96C349.242 340.96 351.174 342.64 351.174 346.252C351.174 349.948 349.074 351.684 346.218 351.684C343.446 351.684 341.626 349.808 341.458 346.84L339.358 346.812Z" fill="black"/>
<path d="M563.091 347.316C563.259 350.928 565.891 353.448 569.867 353.448C573.675 353.448 576.699 351.264 576.699 347.932C576.699 345.496 575.159 343.76 572.751 343.2L572.359 343.116V342.696L572.751 342.64C575.159 342.08 576.447 340.54 576.447 338.3C576.447 335.052 573.759 332.98 569.979 332.98C566.031 332.98 563.399 335.248 563.259 339.056H565.359C565.443 336.48 567.039 334.716 569.895 334.716C572.695 334.716 574.263 336.452 574.263 338.524C574.263 341.8 570.399 342.024 569.167 342.024H567.655V343.928H569.251C571.855 343.928 574.515 345.16 574.515 347.764C574.515 350.284 572.387 351.6 569.867 351.6C567.039 351.6 565.331 349.892 565.191 347.316H563.091ZM583.939 353L591.919 335.528V333.428H578.759V335.304H590.463V335.724L590.267 335.808C589.427 336.2 588.811 336.928 587.971 338.776L581.587 353H583.939Z" fill="black"/>
<path d="M794.391 353V351.124H785.347V350.788L788.903 347.512C792.095 344.992 794.979 342.248 794.979 338.468C794.979 334.828 792.179 332.98 788.763 332.98C784.703 332.98 781.903 335.444 781.903 339.336H784.003C784.003 336.424 785.991 334.772 788.791 334.772C791.395 334.772 792.851 336.228 792.851 338.44C792.851 341.408 790.471 343.816 787.783 346.252L782.603 350.928V353H794.391ZM797.509 347.316C797.677 350.928 800.309 353.448 804.285 353.448C808.093 353.448 811.117 351.264 811.117 347.932C811.117 345.496 809.577 343.76 807.169 343.2L806.777 343.116V342.696L807.169 342.64C809.577 342.08 810.865 340.54 810.865 338.3C810.865 335.052 808.177 332.98 804.397 332.98C800.449 332.98 797.817 335.248 797.677 339.056H799.777C799.861 336.48 801.457 334.716 804.313 334.716C807.113 334.716 808.681 336.452 808.681 338.524C808.681 341.8 804.817 342.024 803.585 342.024H802.073V343.928H803.669C806.273 343.928 808.933 345.16 808.933 347.764C808.933 350.284 806.805 351.6 804.285 351.6C801.457 351.6 799.749 349.892 799.609 347.316H797.509ZM817.003 353V348.604H814.679V353H817.003ZM820.84 346.812C820.924 350.76 823.556 353.448 827.7 353.448C832.208 353.448 834.868 350.564 834.868 346.112C834.868 341.688 832.46 339.196 828.904 339.196C827.196 339.196 825.292 339.812 824.116 341.716L823.92 342.052H823.5L823.528 335.276H833.608V333.4H821.624L821.596 344.376H823.864C824.368 342.5 825.796 340.96 828.204 340.96C830.724 340.96 832.656 342.64 832.656 346.252C832.656 349.948 830.556 351.684 827.7 351.684C824.928 351.684 823.108 349.808 822.94 346.84L820.84 346.812Z" fill="black"/>
<line x1="-4.37114e-08" y1="456.5" x2="924" y2="456.5" stroke="black"/>
<path d="M108.584 419.788C108.584 424.772 110.404 429.42 115.612 429.42C119.728 429.42 122.388 426.508 122.388 422.028C122.388 417.996 120.148 415.252 116.368 415.252C114.352 415.252 112.392 416.064 111.328 418.22L111.188 418.5H110.796C110.88 414.132 112.504 410.716 115.948 410.716C118.972 410.716 119.952 413.04 120.12 414.468H122.276C121.828 411.36 119.728 408.98 116.004 408.98C110.264 408.98 108.584 414.16 108.584 419.788ZM115.612 417.016C118.412 417.016 120.232 419.088 120.232 422.28C120.232 425.5 118.468 427.656 115.64 427.656C112.812 427.656 110.936 425.444 110.936 422.224C110.936 419.004 112.784 417.016 115.612 417.016Z" fill="black"/>
<path d="M327.217 422.812C327.301 426.76 329.933 429.448 334.077 429.448C338.585 429.448 341.245 426.564 341.245 422.112C341.245 417.688 338.837 415.196 335.281 415.196C333.573 415.196 331.669 415.812 330.493 417.716L330.297 418.052H329.877L329.905 411.276H339.985V409.4H328.001L327.973 420.376H330.241C330.745 418.5 332.173 416.96 334.581 416.96C337.101 416.96 339.033 418.64 339.033 422.252C339.033 425.948 336.933 427.684 334.077 427.684C331.305 427.684 329.485 425.808 329.317 422.84L327.217 422.812ZM347.662 429V424.604H345.338V429H347.662ZM351.498 422.812C351.582 426.76 354.214 429.448 358.358 429.448C362.866 429.448 365.526 426.564 365.526 422.112C365.526 417.688 363.118 415.196 359.562 415.196C357.854 415.196 355.95 415.812 354.774 417.716L354.578 418.052H354.158L354.186 411.276H364.266V409.4H352.282L352.254 420.376H354.522C355.026 418.5 356.454 416.96 358.862 416.96C361.382 416.96 363.314 418.64 363.314 422.252C363.314 425.948 361.214 427.684 358.358 427.684C355.586 427.684 353.766 425.808 353.598 422.84L351.498 422.812Z" fill="black"/>
<path d="M562.421 423.316C562.589 426.928 565.221 429.448 569.197 429.448C573.005 429.448 576.029 427.264 576.029 423.932C576.029 421.496 574.489 419.76 572.081 419.2L571.689 419.116V418.696L572.081 418.64C574.489 418.08 575.777 416.54 575.777 414.3C575.777 411.052 573.089 408.98 569.309 408.98C565.361 408.98 562.729 411.248 562.589 415.056H564.689C564.773 412.48 566.369 410.716 569.225 410.716C572.025 410.716 573.593 412.452 573.593 414.524C573.593 417.8 569.729 418.024 568.497 418.024H566.985V419.928H568.581C571.185 419.928 573.845 421.16 573.845 423.764C573.845 426.284 571.717 427.6 569.197 427.6C566.369 427.6 564.661 425.892 564.521 423.316H562.421ZM585.556 429.42C589.756 429.42 592.584 427.432 592.584 423.932C592.584 421.104 590.708 419.592 588.608 419.06L588.272 418.948V418.556L588.664 418.416C590.568 417.8 591.856 416.288 591.856 413.992C591.856 411.136 589.504 408.98 585.528 408.98C581.524 408.98 579.2 411.192 579.2 413.992C579.2 416.288 580.516 417.828 582.42 418.416L582.812 418.556V418.948L582.476 419.06C580.376 419.564 578.528 421.104 578.528 423.932C578.528 427.46 581.328 429.42 585.556 429.42ZM585.556 417.884C583.232 417.884 581.244 416.54 581.244 414.244C581.244 411.864 583.232 410.688 585.556 410.688C587.852 410.688 589.84 411.864 589.84 414.244C589.84 416.54 587.852 417.884 585.556 417.884ZM585.556 427.684C582.672 427.684 580.684 426.368 580.684 423.792C580.684 421.272 582.672 419.844 585.556 419.844C588.412 419.844 590.4 421.272 590.4 423.792C590.4 426.368 588.412 427.684 585.556 427.684Z" fill="black"/>
<path d="M805.821 429V427.124H796.777V426.788L800.333 423.512C803.525 420.992 806.409 418.248 806.409 414.468C806.409 410.828 803.609 408.98 800.193 408.98C796.133 408.98 793.333 411.444 793.333 415.336H795.433C795.433 412.424 797.421 410.772 800.221 410.772C802.825 410.772 804.281 412.228 804.281 414.44C804.281 417.408 801.901 419.816 799.213 422.252L794.033 426.928V429H805.821ZM821.101 409.4H818.077L808.529 422.476V424.744H818.917V429H821.101V424.744H824.013V422.924H821.101V409.4ZM818.917 422.924H810.461V422.504C810.881 422.364 811.301 422.028 812.001 421.048L817.601 413.264C818.217 412.368 818.413 411.724 818.525 411.276H818.917V422.924Z" fill="black"/>
<line x1="-4.37114e-08" y1="532.5" x2="924" y2="532.5" stroke="black"/>
<path d="M96.4429 495.788C96.4429 500.772 98.2629 505.42 103.471 505.42C107.587 505.42 110.247 502.508 110.247 498.028C110.247 493.996 108.007 491.252 104.227 491.252C102.211 491.252 100.251 492.064 99.1869 494.22L99.0469 494.5H98.6549C98.7389 490.132 100.363 486.716 103.807 486.716C106.831 486.716 107.811 489.04 107.979 490.468H110.135C109.687 487.36 107.587 484.98 103.863 484.98C98.1229 484.98 96.4429 490.16 96.4429 495.788ZM103.471 493.016C106.271 493.016 108.091 495.088 108.091 498.28C108.091 501.5 106.327 503.656 103.499 503.656C100.671 503.656 98.7949 501.444 98.7949 498.224C98.7949 495.004 100.643 493.016 103.471 493.016ZM116.156 505V500.604H113.832V505H116.156ZM119.992 498.812C120.076 502.76 122.708 505.448 126.852 505.448C131.36 505.448 134.02 502.564 134.02 498.112C134.02 493.688 131.612 491.196 128.056 491.196C126.348 491.196 124.444 491.812 123.268 493.716L123.072 494.052H122.652L122.68 487.276H132.76V485.4H120.776L120.748 496.376H123.016C123.52 494.5 124.948 492.96 127.356 492.96C129.876 492.96 131.808 494.64 131.808 498.252C131.808 501.948 129.708 503.684 126.852 503.684C124.08 503.684 122.26 501.808 122.092 498.84L119.992 498.812Z" fill="black"/>
<path d="M339.584 495.788C339.584 500.772 341.404 505.42 346.612 505.42C350.728 505.42 353.388 502.508 353.388 498.028C353.388 493.996 351.148 491.252 347.368 491.252C345.352 491.252 343.392 492.064 342.328 494.22L342.188 494.5H341.796C341.88 490.132 343.504 486.716 346.948 486.716C349.972 486.716 350.952 489.04 351.12 490.468H353.276C352.828 487.36 350.728 484.98 347.004 484.98C341.264 484.98 339.584 490.16 339.584 495.788ZM346.612 493.016C349.412 493.016 351.232 495.088 351.232 498.28C351.232 501.5 349.468 503.656 346.64 503.656C343.812 503.656 341.936 501.444 341.936 498.224C341.936 495.004 343.784 493.016 346.612 493.016Z" fill="black"/>
<path d="M550.281 499.316C550.449 502.928 553.081 505.448 557.057 505.448C560.865 505.448 563.889 503.264 563.889 499.932C563.889 497.496 562.349 495.76 559.941 495.2L559.549 495.116V494.696L559.941 494.64C562.349 494.08 563.637 492.54 563.637 490.3C563.637 487.052 560.949 484.98 557.169 484.98C553.221 484.98 550.589 487.248 550.449 491.056H552.549C552.633 488.48 554.229 486.716 557.085 486.716C559.885 486.716 561.453 488.452 561.453 490.524C561.453 493.8 557.589 494.024 556.357 494.024H554.845V495.928H556.441C559.045 495.928 561.705 497.16 561.705 499.764C561.705 502.284 559.577 503.6 557.057 503.6C554.229 503.6 552.521 501.892 552.381 499.316H550.281ZM573.415 505.42C577.615 505.42 580.443 503.432 580.443 499.932C580.443 497.104 578.567 495.592 576.467 495.06L576.131 494.948V494.556L576.523 494.416C578.427 493.8 579.715 492.288 579.715 489.992C579.715 487.136 577.363 484.98 573.387 484.98C569.383 484.98 567.059 487.192 567.059 489.992C567.059 492.288 568.375 493.828 570.279 494.416L570.671 494.556V494.948L570.335 495.06C568.235 495.564 566.387 497.104 566.387 499.932C566.387 503.46 569.187 505.42 573.415 505.42ZM573.415 493.884C571.091 493.884 569.103 492.54 569.103 490.244C569.103 487.864 571.091 486.688 573.415 486.688C575.711 486.688 577.699 487.864 577.699 490.244C577.699 492.54 575.711 493.884 573.415 493.884ZM573.415 503.684C570.531 503.684 568.543 502.368 568.543 499.792C568.543 497.272 570.531 495.844 573.415 495.844C576.271 495.844 578.259 497.272 578.259 499.792C578.259 502.368 576.271 503.684 573.415 503.684ZM586.318 505V500.604H583.994V505H586.318ZM590.155 498.812C590.239 502.76 592.871 505.448 597.015 505.448C601.523 505.448 604.183 502.564 604.183 498.112C604.183 493.688 601.775 491.196 598.219 491.196C596.511 491.196 594.607 491.812 593.431 493.716L593.235 494.052H592.815L592.843 487.276H602.923V485.4H590.939L590.911 496.376H593.179C593.683 494.5 595.111 492.96 597.519 492.96C600.039 492.96 601.971 494.64 601.971 498.252C601.971 501.948 599.871 503.684 597.015 503.684C594.243 503.684 592.423 501.808 592.255 498.84L590.155 498.812Z" fill="black"/>
<path d="M793.885 505V503.124H784.841V502.788L788.397 499.512C791.589 496.992 794.473 494.248 794.473 490.468C794.473 486.828 791.673 484.98 788.257 484.98C784.197 484.98 781.397 487.444 781.397 491.336H783.497C783.497 488.424 785.485 486.772 788.285 486.772C790.889 486.772 792.345 488.228 792.345 490.44C792.345 493.408 789.965 495.816 787.277 498.252L782.097 502.928V505H793.885ZM809.165 485.4H806.141L796.593 498.476V500.744H806.981V505H809.165V500.744H812.077V498.924H809.165V485.4ZM806.981 498.924H798.525V498.504C798.945 498.364 799.365 498.028 800.065 497.048L805.665 489.264C806.281 488.368 806.477 487.724 806.589 487.276H806.981V498.924ZM817.509 505V500.604H815.185V505H817.509ZM821.346 498.812C821.43 502.76 824.062 505.448 828.206 505.448C832.714 505.448 835.374 502.564 835.374 498.112C835.374 493.688 832.966 491.196 829.41 491.196C827.702 491.196 825.798 491.812 824.622 493.716L824.426 494.052H824.006L824.034 487.276H834.114V485.4H822.13L822.102 496.376H824.37C824.874 494.5 826.302 492.96 828.71 492.96C831.23 492.96 833.162 494.64 833.162 498.252C833.162 501.948 831.062 503.684 828.206 503.684C825.434 503.684 823.614 501.808 823.446 498.84L821.346 498.812Z" fill="black"/>
<line x1="-4.37114e-08" y1="608.5" x2="924" y2="608.5" stroke="black"/>
<path d="M114.105 581L122.085 563.528V561.428H108.925V563.304H120.629V563.724L120.433 563.808C119.593 564.2 118.977 564.928 118.137 566.776L111.753 581H114.105Z" fill="black"/>
<path d="M327.443 571.788C327.443 576.772 329.263 581.42 334.471 581.42C338.587 581.42 341.247 578.508 341.247 574.028C341.247 569.996 339.007 567.252 335.227 567.252C333.211 567.252 331.251 568.064 330.187 570.22L330.047 570.5H329.655C329.739 566.132 331.363 562.716 334.807 562.716C337.831 562.716 338.811 565.04 338.979 566.468H341.135C340.687 563.36 338.587 560.98 334.863 560.98C329.123 560.98 327.443 566.16 327.443 571.788ZM334.471 569.016C337.271 569.016 339.091 571.088 339.091 574.28C339.091 577.5 337.327 579.656 334.499 579.656C331.671 579.656 329.795 577.444 329.795 574.224C329.795 571.004 331.643 569.016 334.471 569.016ZM347.156 581V576.604H344.832V581H347.156ZM350.992 574.812C351.076 578.76 353.708 581.448 357.852 581.448C362.36 581.448 365.02 578.564 365.02 574.112C365.02 569.688 362.612 567.196 359.056 567.196C357.348 567.196 355.444 567.812 354.268 569.716L354.072 570.052H353.652L353.68 563.276H363.76V561.4H351.776L351.748 572.376H354.016C354.52 570.5 355.948 568.96 358.356 568.96C360.876 568.96 362.808 570.64 362.808 574.252C362.808 577.948 360.708 579.684 357.852 579.684C355.08 579.684 353.26 577.808 353.092 574.84L350.992 574.812Z" fill="black"/>
<path d="M562.545 575.316C562.713 578.928 565.345 581.448 569.321 581.448C573.129 581.448 576.153 579.264 576.153 575.932C576.153 573.496 574.613 571.76 572.205 571.2L571.813 571.116V570.696L572.205 570.64C574.613 570.08 575.901 568.54 575.901 566.3C575.901 563.052 573.213 560.98 569.433 560.98C565.485 560.98 562.853 563.248 562.713 567.056H564.812C564.897 564.48 566.493 562.716 569.349 562.716C572.149 562.716 573.717 564.452 573.717 566.524C573.717 569.8 569.853 570.024 568.621 570.024H567.109V571.928H568.704C571.309 571.928 573.969 573.16 573.969 575.764C573.969 578.284 571.841 579.6 569.321 579.6C566.493 579.6 564.785 577.892 564.645 575.316H562.545ZM592.455 570.612C592.455 565.628 590.635 560.98 585.427 560.98C581.311 560.98 578.651 563.864 578.651 568.372C578.651 572.404 580.891 575.148 584.671 575.148C586.687 575.148 588.647 574.336 589.711 572.18L589.851 571.9H590.271C590.159 576.268 588.535 579.684 585.119 579.684C582.067 579.684 581.087 577.36 580.947 575.932H578.763C579.211 579.04 581.311 581.42 585.035 581.42C590.775 581.42 592.455 576.24 592.455 570.612ZM585.455 573.384C582.627 573.384 580.807 571.312 580.807 568.12C580.807 564.9 582.571 562.744 585.399 562.744C588.227 562.744 590.103 564.956 590.103 568.176C590.103 571.396 588.255 573.384 585.455 573.384Z" fill="black"/>
<path d="M805.917 581V579.124H796.873V578.788L800.429 575.512C803.621 572.992 806.505 570.248 806.505 566.468C806.505 562.828 803.705 560.98 800.289 560.98C796.229 560.98 793.429 563.444 793.429 567.336H795.529C795.529 564.424 797.517 562.772 800.317 562.772C802.921 562.772 804.377 564.228 804.377 566.44C804.377 569.408 801.997 571.816 799.309 574.252L794.129 578.928V581H805.917ZM809.315 574.812C809.399 578.76 812.031 581.448 816.175 581.448C820.683 581.448 823.343 578.564 823.343 574.112C823.343 569.688 820.935 567.196 817.379 567.196C815.671 567.196 813.767 567.812 812.591 569.716L812.395 570.052H811.975L812.003 563.276H822.083V561.4H810.099L810.071 572.376H812.339C812.843 570.5 814.271 568.96 816.679 568.96C819.199 568.96 821.131 570.64 821.131 574.252C821.131 577.948 819.031 579.684 816.175 579.684C813.403 579.684 811.583 577.808 811.415 574.84L809.315 574.812Z" fill="black"/>
<line x1="-4.37114e-08" y1="684.5" x2="924" y2="684.5" stroke="black"/>
<path d="M102.703 657L110.683 639.528V637.428H97.523V639.304H109.227V639.724L109.031 639.808C108.191 640.2 107.575 640.928 106.735 642.776L100.351 657H102.703ZM115.076 657V652.604H112.752V657H115.076ZM118.912 650.812C118.996 654.76 121.628 657.448 125.772 657.448C130.28 657.448 132.94 654.564 132.94 650.112C132.94 645.688 130.532 643.196 126.976 643.196C125.268 643.196 123.364 643.812 122.188 645.716L121.992 646.052H121.572L121.6 639.276H131.68V637.4H119.696L119.668 648.376H121.936C122.44 646.5 123.868 644.96 126.276 644.96C128.796 644.96 130.728 646.64 130.728 650.252C130.728 653.948 128.628 655.684 125.772 655.684C123 655.684 121.18 653.808 121.012 650.84L118.912 650.812Z" fill="black"/>
<path d="M345.105 657L353.085 639.528V637.428H339.925V639.304H351.629V639.724L351.433 639.808C350.593 640.2 349.977 640.928 349.137 642.776L342.753 657H345.105Z" fill="black"/>
<path d="M573.038 637.4H570.014L560.466 650.476V652.744H570.854V657H573.038V652.744H575.95V650.924H573.038V637.4ZM570.854 650.924H562.398V650.504C562.818 650.364 563.238 650.028 563.938 649.048L569.538 641.264C570.154 640.368 570.35 639.724 570.462 639.276H570.854V650.924ZM586.469 657.364C592.013 657.364 594.225 652.688 594.225 647.172C594.225 641.684 592.013 636.98 586.469 636.98C580.897 636.98 578.685 641.684 578.685 647.172C578.685 652.688 580.897 657.364 586.469 657.364ZM586.469 638.94C590.445 638.94 592.013 642.356 592.013 647.172C592.013 652.016 590.445 655.432 586.469 655.432C582.521 655.432 580.897 652.044 580.897 647.172C580.897 642.356 582.521 638.94 586.469 638.94Z" fill="black"/>
<path d="M793.776 657V655.124H784.732V654.788L788.288 651.512C791.48 648.992 794.364 646.248 794.364 642.468C794.364 638.828 791.564 636.98 788.148 636.98C784.088 636.98 781.288 639.444 781.288 643.336H783.388C783.388 640.424 785.376 638.772 788.176 638.772C790.78 638.772 792.236 640.228 792.236 642.44C792.236 645.408 789.856 647.816 787.168 650.252L781.988 654.928V657H793.776ZM797.174 650.812C797.258 654.76 799.89 657.448 804.034 657.448C808.542 657.448 811.202 654.564 811.202 650.112C811.202 645.688 808.794 643.196 805.238 643.196C803.53 643.196 801.626 643.812 800.45 645.716L800.254 646.052H799.834L799.862 639.276H809.942V637.4H797.958L797.93 648.376H800.198C800.702 646.5 802.13 644.96 804.538 644.96C807.058 644.96 808.99 646.64 808.99 650.252C808.99 653.948 806.89 655.684 804.034 655.684C801.262 655.684 799.442 653.808 799.274 650.84L797.174 650.812ZM817.619 657V652.604H815.295V657H817.619ZM821.455 650.812C821.539 654.76 824.171 657.448 828.315 657.448C832.823 657.448 835.483 654.564 835.483 650.112C835.483 645.688 833.075 643.196 829.519 643.196C827.811 643.196 825.907 643.812 824.731 645.716L824.535 646.052H824.115L824.143 639.276H834.223V637.4H822.239L822.211 648.376H824.479C824.983 646.5 826.411 644.96 828.819 644.96C831.339 644.96 833.271 646.64 833.271 650.252C833.271 653.948 831.171 655.684 828.315 655.684C825.543 655.684 823.723 653.808 823.555 650.84L821.455 650.812Z" fill="black"/>
<line x1="-4.37114e-08" y1="760.5" x2="924" y2="760.5" stroke="black"/>
<path d="M115.517 733.42C119.717 733.42 122.545 731.432 122.545 727.932C122.545 725.104 120.669 723.592 118.569 723.06L118.233 722.948V722.556L118.625 722.416C120.529 721.8 121.817 720.288 121.817 717.992C121.817 715.136 119.465 712.98 115.489 712.98C111.485 712.98 109.161 715.192 109.161 717.992C109.161 720.288 110.477 721.828 112.381 722.416L112.773 722.556V722.948L112.437 723.06C110.337 723.564 108.489 725.104 108.489 727.932C108.489 731.46 111.289 733.42 115.517 733.42ZM115.517 721.884C113.193 721.884 111.205 720.54 111.205 718.244C111.205 715.864 113.193 714.688 115.517 714.688C117.813 714.688 119.801 715.864 119.801 718.244C119.801 720.54 117.813 721.884 115.517 721.884ZM115.517 731.684C112.633 731.684 110.645 730.368 110.645 727.792C110.645 725.272 112.633 723.844 115.517 723.844C118.373 723.844 120.361 725.272 120.361 727.792C120.361 730.368 118.373 731.684 115.517 731.684Z" fill="black"/>
<path d="M333.703 733L341.683 715.528V713.428H328.523V715.304H340.227V715.724L340.031 715.808C339.191 716.2 338.575 716.928 337.735 718.776L331.351 733H333.703ZM346.076 733V728.604H343.752V733H346.076ZM349.912 726.812C349.996 730.76 352.628 733.448 356.772 733.448C361.28 733.448 363.94 730.564 363.94 726.112C363.94 721.688 361.532 719.196 357.976 719.196C356.268 719.196 354.364 719.812 353.188 721.716L352.992 722.052H352.572L352.6 715.276H362.68V713.4H350.696L350.668 724.376H352.936C353.44 722.5 354.868 720.96 357.276 720.96C359.796 720.96 361.728 722.64 361.728 726.252C361.728 729.948 359.628 731.684 356.772 731.684C354 731.684 352.18 729.808 352.012 726.84L349.912 726.812Z" fill="black"/>
<path d="M561.349 713.4H558.325L548.777 726.476V728.744H559.165V733H561.349V728.744H564.261V726.924H561.349V713.4ZM559.165 726.924H550.709V726.504C551.129 726.364 551.549 726.028 552.249 725.048L557.849 717.264C558.465 716.368 558.661 715.724 558.773 715.276H559.165V726.924ZM574.779 733.364C580.323 733.364 582.535 728.688 582.535 723.172C582.535 717.684 580.323 712.98 574.779 712.98C569.207 712.98 566.995 717.684 566.995 723.172C566.995 728.688 569.207 733.364 574.779 733.364ZM574.779 714.94C578.755 714.94 580.323 718.356 580.323 723.172C580.323 728.016 578.755 731.432 574.779 731.432C570.831 731.432 569.207 728.044 569.207 723.172C569.207 718.356 570.831 714.94 574.779 714.94ZM587.822 733V728.604H585.498V733H587.822ZM591.658 726.812C591.742 730.76 594.374 733.448 598.518 733.448C603.026 733.448 605.686 730.564 605.686 726.112C605.686 721.688 603.278 719.196 599.722 719.196C598.014 719.196 596.11 719.812 594.934 721.716L594.738 722.052H594.318L594.346 715.276H604.426V713.4H592.442L592.414 724.376H594.682C595.186 722.5 596.614 720.96 599.022 720.96C601.542 720.96 603.474 722.64 603.474 726.252C603.474 729.948 601.374 731.684 598.518 731.684C595.746 731.684 593.926 729.808 593.758 726.84L591.658 726.812Z" fill="black"/>
<path d="M806.423 733V731.124H797.379V730.788L800.935 727.512C804.127 724.992 807.011 722.248 807.011 718.468C807.011 714.828 804.211 712.98 800.795 712.98C796.735 712.98 793.935 715.444 793.935 719.336H796.035C796.035 716.424 798.023 714.772 800.823 714.772C803.427 714.772 804.883 716.228 804.883 718.44C804.883 721.408 802.503 723.816 799.815 726.252L794.635 730.928V733H806.423ZM809.541 723.788C809.541 728.772 811.361 733.42 816.569 733.42C820.685 733.42 823.345 730.508 823.345 726.028C823.345 721.996 821.105 719.252 817.325 719.252C815.309 719.252 813.349 720.064 812.285 722.22L812.145 722.5H811.753C811.837 718.132 813.461 714.716 816.905 714.716C819.929 714.716 820.909 717.04 821.077 718.468H823.233C822.785 715.36 820.685 712.98 816.961 712.98C811.221 712.98 809.541 718.16 809.541 723.788ZM816.569 721.016C819.369 721.016 821.189 723.088 821.189 726.28C821.189 729.5 819.425 731.656 816.597 731.656C813.769 731.656 811.893 729.444 811.893 726.224C811.893 723.004 813.741 721.016 816.569 721.016Z" fill="black"/>
<line x1="-4.37114e-08" y1="836.5" x2="924" y2="836.5" stroke="black"/>
<path d="M103.376 809.42C107.576 809.42 110.404 807.432 110.404 803.932C110.404 801.104 108.528 799.592 106.428 799.06L106.092 798.948V798.556L106.484 798.416C108.388 797.8 109.676 796.288 109.676 793.992C109.676 791.136 107.324 788.98 103.348 788.98C99.3439 788.98 97.0199 791.192 97.0199 793.992C97.0199 796.288 98.3359 797.828 100.24 798.416L100.632 798.556V798.948L100.296 799.06C98.1959 799.564 96.3479 801.104 96.3479 803.932C96.3479 807.46 99.1479 809.42 103.376 809.42ZM103.376 797.884C101.052 797.884 99.0639 796.54 99.0639 794.244C99.0639 791.864 101.052 790.688 103.376 790.688C105.672 790.688 107.66 791.864 107.66 794.244C107.66 796.54 105.672 797.884 103.376 797.884ZM103.376 807.684C100.492 807.684 98.5039 806.368 98.5039 803.792C98.5039 801.272 100.492 799.844 103.376 799.844C106.232 799.844 108.22 801.272 108.22 803.792C108.22 806.368 106.232 807.684 103.376 807.684ZM116.279 809V804.604H113.955V809H116.279ZM120.116 802.812C120.2 806.76 122.832 809.448 126.976 809.448C131.484 809.448 134.144 806.564 134.144 802.112C134.144 797.688 131.736 795.196 128.18 795.196C126.472 795.196 124.568 795.812 123.392 797.716L123.196 798.052H122.776L122.804 791.276H132.884V789.4H120.9L120.872 800.376H123.14C123.644 798.5 125.072 796.96 127.48 796.96C130 796.96 131.932 798.64 131.932 802.252C131.932 805.948 129.832 807.684 126.976 807.684C124.204 807.684 122.384 805.808 122.216 802.84L120.116 802.812Z" fill="black"/>
<path d="M346.517 809.42C350.717 809.42 353.545 807.432 353.545 803.932C353.545 801.104 351.669 799.592 349.569 799.06L349.233 798.948V798.556L349.625 798.416C351.529 797.8 352.817 796.288 352.817 793.992C352.817 791.136 350.465 788.98 346.489 788.98C342.485 788.98 340.161 791.192 340.161 793.992C340.161 796.288 341.477 797.828 343.381 798.416L343.773 798.556V798.948L343.437 799.06C341.337 799.564 339.489 801.104 339.489 803.932C339.489 807.46 342.289 809.42 346.517 809.42ZM346.517 797.884C344.193 797.884 342.205 796.54 342.205 794.244C342.205 791.864 344.193 790.688 346.517 790.688C348.813 790.688 350.801 791.864 350.801 794.244C350.801 796.54 348.813 797.884 346.517 797.884ZM346.517 807.684C343.633 807.684 341.645 806.368 341.645 803.792C341.645 801.272 343.633 799.844 346.517 799.844C349.373 799.844 351.361 801.272 351.361 803.792C351.361 806.368 349.373 807.684 346.517 807.684Z" fill="black"/>
<path d="M576.716 789.4H573.692L564.144 802.476V804.744H574.532V809H576.716V804.744H579.628V802.924H576.716V789.4ZM574.532 802.924H566.076V802.504C566.496 802.364 566.916 802.028 567.616 801.048L573.216 793.264C573.832 792.368 574.028 791.724 574.14 791.276H574.532V802.924ZM589.21 809V789.4H586.886C586.718 790.856 586.018 793.544 582.686 793.544H581.678V795.56H582.294C584.842 795.56 585.962 794.776 586.606 793.32L586.718 793.124H587.11V809H589.21Z" fill="black"/>
<path d="M794.282 809V807.124H785.238V806.788L788.794 803.512C791.986 800.992 794.87 798.248 794.87 794.468C794.87 790.828 792.07 788.98 788.654 788.98C784.594 788.98 781.794 791.444 781.794 795.336H783.894C783.894 792.424 785.882 790.772 788.682 790.772C791.286 790.772 792.742 792.228 792.742 794.44C792.742 797.408 790.362 799.816 787.674 802.252L782.494 806.928V809H794.282ZM797.4 799.788C797.4 804.772 799.22 809.42 804.428 809.42C808.544 809.42 811.204 806.508 811.204 802.028C811.204 797.996 808.964 795.252 805.184 795.252C803.168 795.252 801.208 796.064 800.144 798.22L800.004 798.5H799.612C799.696 794.132 801.32 790.716 804.764 790.716C807.788 790.716 808.768 793.04 808.936 794.468H811.092C810.644 791.36 808.544 788.98 804.82 788.98C799.08 788.98 797.4 794.16 797.4 799.788ZM804.428 797.016C807.228 797.016 809.048 799.088 809.048 802.28C809.048 805.5 807.284 807.656 804.456 807.656C801.628 807.656 799.752 805.444 799.752 802.224C799.752 799.004 801.6 797.016 804.428 797.016ZM817.113 809V804.604H814.789V809H817.113ZM820.95 802.812C821.034 806.76 823.666 809.448 827.81 809.448C832.318 809.448 834.978 806.564 834.978 802.112C834.978 797.688 832.57 795.196 829.014 795.196C827.306 795.196 825.402 795.812 824.226 797.716L824.03 798.052H823.61L823.638 791.276H833.718V789.4H821.734L821.706 800.376H823.974C824.478 798.5 825.906 796.96 828.314 796.96C830.834 796.96 832.766 798.64 832.766 802.252C832.766 805.948 830.666 807.684 827.81 807.684C825.038 807.684 823.218 805.808 823.05 802.84L820.95 802.812Z" fill="black"/>
<line x1="-4.37114e-08" y1="912.5" x2="924" y2="912.5" stroke="black"/>
<path d="M122.416 874.612C122.416 869.628 120.596 864.98 115.388 864.98C111.272 864.98 108.612 867.864 108.612 872.372C108.612 876.404 110.852 879.148 114.632 879.148C116.648 879.148 118.608 878.336 119.672 876.18L119.812 875.9H120.232C120.12 880.268 118.496 883.684 115.08 883.684C112.028 883.684 111.048 881.36 110.908 879.932H108.724C109.172 883.04 111.272 885.42 114.996 885.42C120.736 885.42 122.416 880.24 122.416 874.612ZM115.416 877.384C112.588 877.384 110.768 875.312 110.768 872.12C110.768 868.9 112.532 866.744 115.36 866.744C118.188 866.744 120.064 868.956 120.064 872.176C120.064 875.396 118.216 877.384 115.416 877.384Z" fill="black"/>
<path d="M334.376 885.42C338.576 885.42 341.404 883.432 341.404 879.932C341.404 877.104 339.528 875.592 337.428 875.06L337.092 874.948V874.556L337.484 874.416C339.388 873.8 340.676 872.288 340.676 869.992C340.676 867.136 338.324 864.98 334.348 864.98C330.344 864.98 328.02 867.192 328.02 869.992C328.02 872.288 329.336 873.828 331.24 874.416L331.632 874.556V874.948L331.296 875.06C329.196 875.564 327.348 877.104 327.348 879.932C327.348 883.46 330.148 885.42 334.376 885.42ZM334.376 873.884C332.052 873.884 330.064 872.54 330.064 870.244C330.064 867.864 332.052 866.688 334.376 866.688C336.672 866.688 338.66 867.864 338.66 870.244C338.66 872.54 336.672 873.884 334.376 873.884ZM334.376 883.684C331.492 883.684 329.504 882.368 329.504 879.792C329.504 877.272 331.492 875.844 334.376 875.844C337.232 875.844 339.22 877.272 339.22 879.792C339.22 882.368 337.232 883.684 334.376 883.684ZM347.279 885V880.604H344.955V885H347.279ZM351.116 878.812C351.2 882.76 353.832 885.448 357.976 885.448C362.484 885.448 365.144 882.564 365.144 878.112C365.144 873.688 362.736 871.196 359.18 871.196C357.472 871.196 355.568 871.812 354.392 873.716L354.196 874.052H353.776L353.804 867.276H363.884V865.4H351.9L351.872 876.376H354.14C354.644 874.5 356.072 872.96 358.48 872.96C361 872.96 362.932 874.64 362.932 878.252C362.932 881.948 360.832 883.684 357.976 883.684C355.204 883.684 353.384 881.808 353.216 878.84L351.116 878.812Z" fill="black"/>
<path d="M574.597 865.4H571.573L562.025 878.476V880.744H572.413V885H574.597V880.744H577.509V878.924H574.597V865.4ZM572.413 878.924H563.957V878.504C564.377 878.364 564.797 878.028 565.497 877.048L571.097 869.264C571.713 868.368 571.909 867.724 572.021 867.276H572.413V878.924ZM592.321 885V883.124H583.277V882.788L586.833 879.512C590.025 876.992 592.909 874.248 592.909 870.468C592.909 866.828 590.109 864.98 586.693 864.98C582.633 864.98 579.833 867.444 579.833 871.336H581.933C581.933 868.424 583.921 866.772 586.721 866.772C589.325 866.772 590.781 868.228 590.781 870.44C590.781 873.408 588.401 875.816 585.713 878.252L580.533 882.928V885H592.321Z" fill="black"/>
<path d="M806.874 885V883.124H797.83V882.788L801.386 879.512C804.578 876.992 807.462 874.248 807.462 870.468C807.462 866.828 804.662 864.98 801.246 864.98C797.186 864.98 794.386 867.444 794.386 871.336H796.486C796.486 868.424 798.474 866.772 801.274 866.772C803.878 866.772 805.334 868.228 805.334 870.44C805.334 873.408 802.954 875.816 800.266 878.252L795.086 882.928V885H806.874ZM814.953 885L822.933 867.528V865.428H809.773V867.304H821.477V867.724L821.281 867.808C820.441 868.2 819.825 868.928 818.985 870.776L812.601 885H814.953Z" fill="black"/>
<line x1="-4.37114e-08" y1="988.5" x2="924" y2="988.5" stroke="black"/>
<path d="M110.275 950.612C110.275 945.628 108.455 940.98 103.247 940.98C99.1309 940.98 96.4709 943.864 96.4709 948.372C96.4709 952.404 98.7109 955.148 102.491 955.148C104.507 955.148 106.467 954.336 107.531 952.18L107.671 951.9H108.091C107.979 956.268 106.355 959.684 102.939 959.684C99.8869 959.684 98.9069 957.36 98.7669 955.932H96.5829C97.0309 959.04 99.1309 961.42 102.855 961.42C108.595 961.42 110.275 956.24 110.275 950.612ZM103.275 953.384C100.447 953.384 98.6269 951.312 98.6269 948.12C98.6269 944.9 100.391 942.744 103.219 942.744C106.047 942.744 107.923 944.956 107.923 948.176C107.923 951.396 106.075 953.384 103.275 953.384ZM116.156 961V956.604H113.832V961H116.156ZM119.992 954.812C120.076 958.76 122.708 961.448 126.852 961.448C131.36 961.448 134.02 958.564 134.02 954.112C134.02 949.688 131.612 947.196 128.056 947.196C126.348 947.196 124.444 947.812 123.268 949.716L123.072 950.052H122.652L122.68 943.276H132.76V941.4H120.776L120.748 952.376H123.016C123.52 950.5 124.948 948.96 127.356 948.96C129.876 948.96 131.808 950.64 131.808 954.252C131.808 957.948 129.708 959.684 126.852 959.684C124.08 959.684 122.26 957.808 122.092 954.84L119.992 954.812Z" fill="black"/>
<path d="M353.416 950.612C353.416 945.628 351.596 940.98 346.388 940.98C342.272 940.98 339.612 943.864 339.612 948.372C339.612 952.404 341.852 955.148 345.632 955.148C347.648 955.148 349.608 954.336 350.672 952.18L350.812 951.9H351.232C351.12 956.268 349.496 959.684 346.08 959.684C343.028 959.684 342.048 957.36 341.908 955.932H339.724C340.172 959.04 342.272 961.42 345.996 961.42C351.736 961.42 353.416 956.24 353.416 950.612ZM346.416 953.384C343.588 953.384 341.768 951.312 341.768 948.12C341.768 944.9 343.532 942.744 346.36 942.744C349.188 942.744 351.064 944.956 351.064 948.176C351.064 951.396 349.216 953.384 346.416 953.384Z" fill="black"/>
<path d="M562.456 941.4H559.432L549.884 954.476V956.744H560.272V961H562.456V956.744H565.368V954.924H562.456V941.4ZM560.272 954.924H551.816V954.504C552.236 954.364 552.656 954.028 553.356 953.048L558.956 945.264C559.572 944.368 559.768 943.724 559.88 943.276H560.272V954.924ZM580.18 961V959.124H571.136V958.788L574.692 955.512C577.884 952.992 580.768 950.248 580.768 946.468C580.768 942.828 577.968 940.98 574.552 940.98C570.492 940.98 567.692 943.444 567.692 947.336H569.792C569.792 944.424 571.78 942.772 574.58 942.772C577.184 942.772 578.64 944.228 578.64 946.44C578.64 949.408 576.26 951.816 573.572 954.252L568.392 958.928V961H580.18ZM586.714 961V956.604H584.39V961H586.714ZM590.551 954.812C590.635 958.76 593.267 961.448 597.411 961.448C601.919 961.448 604.579 958.564 604.579 954.112C604.579 949.688 602.171 947.196 598.615 947.196C596.907 947.196 595.003 947.812 593.827 949.716L593.631 950.052H593.211L593.239 943.276H603.319V941.4H591.335L591.307 952.376H593.575C594.079 950.5 595.507 948.96 597.915 948.96C600.435 948.96 602.367 950.64 602.367 954.252C602.367 957.948 600.267 959.684 597.411 959.684C594.639 959.684 592.819 957.808 592.651 954.84L590.551 954.812Z" fill="black"/>
<path d="M795.471 961V959.124H786.427V958.788L789.983 955.512C793.175 952.992 796.059 950.248 796.059 946.468C796.059 942.828 793.259 940.98 789.843 940.98C785.783 940.98 782.983 943.444 782.983 947.336H785.083C785.083 944.424 787.071 942.772 789.871 942.772C792.475 942.772 793.931 944.228 793.931 946.44C793.931 949.408 791.551 951.816 788.863 954.252L783.683 958.928V961H795.471ZM803.551 961L811.531 943.528V941.428H798.371V943.304H810.075V943.724L809.879 943.808C809.039 944.2 808.423 944.928 807.583 946.776L801.199 961H803.551ZM815.923 961V956.604H813.599V961H815.923ZM819.76 954.812C819.844 958.76 822.476 961.448 826.62 961.448C831.128 961.448 833.788 958.564 833.788 954.112C833.788 949.688 831.38 947.196 827.824 947.196C826.116 947.196 824.212 947.812 823.036 949.716L822.84 950.052H822.42L822.448 943.276H832.528V941.4H820.544L820.516 952.376H822.784C823.288 950.5 824.716 948.96 827.124 948.96C829.644 948.96 831.576 950.64 831.576 954.252C831.576 957.948 829.476 959.684 826.62 959.684C823.848 959.684 822.028 957.808 821.86 954.84L819.76 954.812Z" fill="black"/>
<line x1="-4.37114e-08" y1="1064.5" x2="924" y2="1064.5" stroke="black"/>
<path d="M109.273 1037V1017.4H106.949C106.781 1018.86 106.081 1021.54 102.749 1021.54H101.741V1023.56H102.357C104.905 1023.56 106.025 1022.78 106.669 1021.32L106.781 1021.12H107.173V1037H109.273ZM121.474 1037.36C127.018 1037.36 129.23 1032.69 129.23 1027.17C129.23 1021.68 127.018 1016.98 121.474 1016.98C115.902 1016.98 113.69 1021.68 113.69 1027.17C113.69 1032.69 115.902 1037.36 121.474 1037.36ZM121.474 1018.94C125.45 1018.94 127.018 1022.36 127.018 1027.17C127.018 1032.02 125.45 1035.43 121.474 1035.43C117.526 1035.43 115.902 1032.04 115.902 1027.17C115.902 1022.36 117.526 1018.94 121.474 1018.94Z" fill="black"/>
<path d="M341.275 1026.61C341.275 1021.63 339.455 1016.98 334.247 1016.98C330.131 1016.98 327.471 1019.86 327.471 1024.37C327.471 1028.4 329.711 1031.15 333.491 1031.15C335.507 1031.15 337.467 1030.34 338.531 1028.18L338.671 1027.9H339.091C338.979 1032.27 337.355 1035.68 333.939 1035.68C330.887 1035.68 329.907 1033.36 329.767 1031.93H327.583C328.031 1035.04 330.131 1037.42 333.855 1037.42C339.595 1037.42 341.275 1032.24 341.275 1026.61ZM334.275 1029.38C331.447 1029.38 329.627 1027.31 329.627 1024.12C329.627 1020.9 331.391 1018.74 334.219 1018.74C337.047 1018.74 338.923 1020.96 338.923 1024.18C338.923 1027.4 337.075 1029.38 334.275 1029.38ZM347.156 1037V1032.6H344.832V1037H347.156ZM350.992 1030.81C351.076 1034.76 353.708 1037.45 357.852 1037.45C362.36 1037.45 365.02 1034.56 365.02 1030.11C365.02 1025.69 362.612 1023.2 359.056 1023.2C357.348 1023.2 355.444 1023.81 354.268 1025.72L354.072 1026.05H353.652L353.68 1019.28H363.76V1017.4H351.776L351.748 1028.38H354.016C354.52 1026.5 355.948 1024.96 358.356 1024.96C360.876 1024.96 362.808 1026.64 362.808 1030.25C362.808 1033.95 360.708 1035.68 357.852 1035.68C355.08 1035.68 353.26 1033.81 353.092 1030.84L350.992 1030.81Z" fill="black"/>
<path d="M574.31 1017.4H571.286L561.738 1030.48V1032.74H572.126V1037H574.31V1032.74H577.222V1030.92H574.31V1017.4ZM572.126 1030.92H563.67V1030.5C564.09 1030.36 564.51 1030.03 565.21 1029.05L570.81 1021.26C571.426 1020.37 571.622 1019.72 571.734 1019.28H572.126V1030.92ZM579.648 1031.32C579.816 1034.93 582.448 1037.45 586.424 1037.45C590.232 1037.45 593.256 1035.26 593.256 1031.93C593.256 1029.5 591.716 1027.76 589.308 1027.2L588.916 1027.12V1026.7L589.308 1026.64C591.716 1026.08 593.004 1024.54 593.004 1022.3C593.004 1019.05 590.316 1016.98 586.536 1016.98C582.588 1016.98 579.956 1019.25 579.816 1023.06H581.916C582 1020.48 583.596 1018.72 586.452 1018.72C589.252 1018.72 590.82 1020.45 590.82 1022.52C590.82 1025.8 586.956 1026.02 585.724 1026.02H584.212V1027.93H585.808C588.412 1027.93 591.072 1029.16 591.072 1031.76C591.072 1034.28 588.944 1035.6 586.424 1035.6C583.596 1035.6 581.888 1033.89 581.748 1031.32H579.648Z" fill="black"/>
<path d="M806.299 1037V1035.12H797.255V1034.79L800.811 1031.51C804.003 1028.99 806.887 1026.25 806.887 1022.47C806.887 1018.83 804.087 1016.98 800.671 1016.98C796.611 1016.98 793.811 1019.44 793.811 1023.34H795.911C795.911 1020.42 797.899 1018.77 800.699 1018.77C803.303 1018.77 804.759 1020.23 804.759 1022.44C804.759 1025.41 802.379 1027.82 799.691 1030.25L794.511 1034.93V1037H806.299ZM816.474 1037.42C820.674 1037.42 823.502 1035.43 823.502 1031.93C823.502 1029.1 821.626 1027.59 819.526 1027.06L819.19 1026.95V1026.56L819.582 1026.42C821.486 1025.8 822.774 1024.29 822.774 1021.99C822.774 1019.14 820.422 1016.98 816.446 1016.98C812.442 1016.98 810.118 1019.19 810.118 1021.99C810.118 1024.29 811.434 1025.83 813.338 1026.42L813.73 1026.56V1026.95L813.394 1027.06C811.294 1027.56 809.446 1029.1 809.446 1031.93C809.446 1035.46 812.246 1037.42 816.474 1037.42ZM816.474 1025.88C814.15 1025.88 812.162 1024.54 812.162 1022.24C812.162 1019.86 814.15 1018.69 816.474 1018.69C818.77 1018.69 820.758 1019.86 820.758 1022.24C820.758 1024.54 818.77 1025.88 816.474 1025.88ZM816.474 1035.68C813.59 1035.68 811.602 1034.37 811.602 1031.79C811.602 1029.27 813.59 1027.84 816.474 1027.84C819.33 1027.84 821.318 1029.27 821.318 1031.79C821.318 1034.37 819.33 1035.68 816.474 1035.68Z" fill="black"/>
<line x1="-4.37114e-08" y1="1140.5" x2="924" y2="1140.5" stroke="black"/>
<path d="M97.5831 1113V1093.4H95.2591C95.0911 1094.86 94.3911 1097.54 91.0591 1097.54H90.0511V1099.56H90.6671C93.2151 1099.56 94.3351 1098.78 94.9791 1097.32L95.0911 1097.12H95.4831V1113H97.5831ZM109.785 1113.36C115.329 1113.36 117.541 1108.69 117.541 1103.17C117.541 1097.68 115.329 1092.98 109.785 1092.98C104.213 1092.98 102.001 1097.68 102.001 1103.17C102.001 1108.69 104.213 1113.36 109.785 1113.36ZM109.785 1094.94C113.761 1094.94 115.329 1098.36 115.329 1103.17C115.329 1108.02 113.761 1111.43 109.785 1111.43C105.837 1111.43 104.213 1108.04 104.213 1103.17C104.213 1098.36 105.837 1094.94 109.785 1094.94ZM122.828 1113V1108.6H120.504V1113H122.828ZM126.664 1106.81C126.748 1110.76 129.38 1113.45 133.524 1113.45C138.032 1113.45 140.692 1110.56 140.692 1106.11C140.692 1101.69 138.284 1099.2 134.728 1099.2C133.02 1099.2 131.116 1099.81 129.94 1101.72L129.744 1102.05H129.324L129.352 1095.28H139.432V1093.4H127.448L127.42 1104.38H129.688C130.192 1102.5 131.62 1100.96 134.028 1100.96C136.548 1100.96 138.48 1102.64 138.48 1106.25C138.48 1109.95 136.38 1111.68 133.524 1111.68C130.752 1111.68 128.932 1109.81 128.764 1106.84L126.664 1106.81Z" fill="black"/>
<path d="M340.273 1113V1093.4H337.949C337.781 1094.86 337.081 1097.54 333.749 1097.54H332.741V1099.56H333.357C335.905 1099.56 337.025 1098.78 337.669 1097.32L337.781 1097.12H338.173V1113H340.273ZM352.474 1113.36C358.018 1113.36 360.23 1108.69 360.23 1103.17C360.23 1097.68 358.018 1092.98 352.474 1092.98C346.902 1092.98 344.69 1097.68 344.69 1103.17C344.69 1108.69 346.902 1113.36 352.474 1113.36ZM352.474 1094.94C356.45 1094.94 358.018 1098.36 358.018 1103.17C358.018 1108.02 356.45 1111.43 352.474 1111.43C348.526 1111.43 346.902 1108.04 346.902 1103.17C346.902 1098.36 348.526 1094.94 352.474 1094.94Z" fill="black"/>
<path d="M573.394 1093.4H570.37L560.822 1106.48V1108.74H571.21V1113H573.394V1108.74H576.306V1106.92H573.394V1093.4ZM571.21 1106.92H562.754V1106.5C563.174 1106.36 563.594 1106.03 564.294 1105.05L569.894 1097.26C570.51 1096.37 570.706 1095.72 570.818 1095.28H571.21V1106.92ZM591.304 1093.4H588.28L578.732 1106.48V1108.74H589.12V1113H591.304V1108.74H594.216V1106.92H591.304V1093.4ZM589.12 1106.92H580.664V1106.5C581.084 1106.36 581.504 1106.03 582.204 1105.05L587.804 1097.26C588.42 1096.37 588.616 1095.72 588.728 1095.28H589.12V1106.92Z" fill="black"/>
<path d="M794.159 1113V1111.12H785.115V1110.79L788.671 1107.51C791.863 1104.99 794.747 1102.25 794.747 1098.47C794.747 1094.83 791.947 1092.98 788.531 1092.98C784.471 1092.98 781.671 1095.44 781.671 1099.34H783.771C783.771 1096.42 785.759 1094.77 788.559 1094.77C791.163 1094.77 792.619 1096.23 792.619 1098.44C792.619 1101.41 790.239 1103.82 787.551 1106.25L782.371 1110.93V1113H794.159ZM804.333 1113.42C808.533 1113.42 811.361 1111.43 811.361 1107.93C811.361 1105.1 809.485 1103.59 807.385 1103.06L807.049 1102.95V1102.56L807.441 1102.42C809.345 1101.8 810.633 1100.29 810.633 1097.99C810.633 1095.14 808.281 1092.98 804.305 1092.98C800.301 1092.98 797.977 1095.19 797.977 1097.99C797.977 1100.29 799.293 1101.83 801.197 1102.42L801.589 1102.56V1102.95L801.253 1103.06C799.153 1103.56 797.305 1105.1 797.305 1107.93C797.305 1111.46 800.105 1113.42 804.333 1113.42ZM804.333 1101.88C802.009 1101.88 800.021 1100.54 800.021 1098.24C800.021 1095.86 802.009 1094.69 804.333 1094.69C806.629 1094.69 808.617 1095.86 808.617 1098.24C808.617 1100.54 806.629 1101.88 804.333 1101.88ZM804.333 1111.68C801.449 1111.68 799.461 1110.37 799.461 1107.79C799.461 1105.27 801.449 1103.84 804.333 1103.84C807.189 1103.84 809.177 1105.27 809.177 1107.79C809.177 1110.37 807.189 1111.68 804.333 1111.68ZM817.236 1113V1108.6H814.912V1113H817.236ZM821.073 1106.81C821.157 1110.76 823.789 1113.45 827.933 1113.45C832.441 1113.45 835.101 1110.56 835.101 1106.11C835.101 1101.69 832.693 1099.2 829.137 1099.2C827.429 1099.2 825.525 1099.81 824.349 1101.72L824.153 1102.05H823.733L823.761 1095.28H833.841V1093.4H821.857L821.829 1104.38H824.097C824.601 1102.5 826.029 1100.96 828.437 1100.96C830.957 1100.96 832.889 1102.64 832.889 1106.25C832.889 1109.95 830.789 1111.68 827.933 1111.68C825.161 1111.68 823.341 1109.81 823.173 1106.84L821.073 1106.81Z" fill="black"/>
<line x1="-4.37114e-08" y1="1216.5" x2="924" y2="1216.5" stroke="black"/>
<path d="M112.622 1189V1169.4H110.298C110.13 1170.86 109.43 1173.54 106.098 1173.54H105.09V1175.56H105.706C108.254 1175.56 109.374 1174.78 110.018 1173.32L110.13 1173.12H110.522V1189H112.622ZM124.544 1189V1169.4H122.22C122.052 1170.86 121.352 1173.54 118.02 1173.54H117.012V1175.56H117.628C120.176 1175.56 121.296 1174.78 121.94 1173.32L122.052 1173.12H122.444V1189H124.544Z" fill="black"/>
<path d="M328.583 1189V1169.4H326.259C326.091 1170.86 325.391 1173.54 322.059 1173.54H321.051V1175.56H321.667C324.215 1175.56 325.335 1174.78 325.979 1173.32L326.091 1173.12H326.483V1189H328.583ZM340.785 1189.36C346.329 1189.36 348.541 1184.69 348.541 1179.17C348.541 1173.68 346.329 1168.98 340.785 1168.98C335.213 1168.98 333.001 1173.68 333.001 1179.17C333.001 1184.69 335.213 1189.36 340.785 1189.36ZM340.785 1170.94C344.761 1170.94 346.329 1174.36 346.329 1179.17C346.329 1184.02 344.761 1187.43 340.785 1187.43C336.837 1187.43 335.213 1184.04 335.213 1179.17C335.213 1174.36 336.837 1170.94 340.785 1170.94ZM353.828 1189V1184.6H351.504V1189H353.828ZM357.664 1182.81C357.748 1186.76 360.38 1189.45 364.524 1189.45C369.032 1189.45 371.692 1186.56 371.692 1182.11C371.692 1177.69 369.284 1175.2 365.728 1175.2C364.02 1175.2 362.116 1175.81 360.94 1177.72L360.744 1178.05H360.324L360.352 1171.28H370.432V1169.4H358.448L358.42 1180.38H360.688C361.192 1178.5 362.62 1176.96 365.028 1176.96C367.548 1176.96 369.48 1178.64 369.48 1182.25C369.48 1185.95 367.38 1187.68 364.524 1187.68C361.752 1187.68 359.932 1185.81 359.764 1182.84L357.664 1182.81Z" fill="black"/>
<path d="M561.458 1169.4H558.434L548.886 1182.48V1184.74H559.274V1189H561.458V1184.74H564.37V1182.92H561.458V1169.4ZM559.274 1182.92H550.818V1182.5C551.238 1182.36 551.658 1182.03 552.358 1181.05L557.958 1173.26C558.574 1172.37 558.77 1171.72 558.882 1171.28H559.274V1182.92ZM579.368 1169.4H576.344L566.796 1182.48V1184.74H577.184V1189H579.368V1184.74H582.28V1182.92H579.368V1169.4ZM577.184 1182.92H568.728V1182.5C569.148 1182.36 569.568 1182.03 570.268 1181.05L575.868 1173.26C576.484 1172.37 576.68 1171.72 576.792 1171.28H577.184V1182.92ZM587.712 1189V1184.6H585.388V1189H587.712ZM591.549 1182.81C591.633 1186.76 594.265 1189.45 598.409 1189.45C602.917 1189.45 605.577 1186.56 605.577 1182.11C605.577 1177.69 603.169 1175.2 599.613 1175.2C597.905 1175.2 596.001 1175.81 594.825 1177.72L594.629 1178.05H594.209L594.237 1171.28H604.317V1169.4H592.333L592.305 1180.38H594.573C595.077 1178.5 596.505 1176.96 598.913 1176.96C601.433 1176.96 603.365 1178.64 603.365 1182.25C603.365 1185.95 601.265 1187.68 598.409 1187.68C595.637 1187.68 593.817 1185.81 593.649 1182.84L591.549 1182.81Z" fill="black"/>
<path d="M806.423 1189V1187.12H797.379V1186.79L800.935 1183.51C804.127 1180.99 807.011 1178.25 807.011 1174.47C807.011 1170.83 804.211 1168.98 800.795 1168.98C796.735 1168.98 793.935 1171.44 793.935 1175.34H796.035C796.035 1172.42 798.023 1170.77 800.823 1170.77C803.427 1170.77 804.883 1172.23 804.883 1174.44C804.883 1177.41 802.503 1179.82 799.815 1182.25L794.635 1186.93V1189H806.423ZM823.373 1178.61C823.373 1173.63 821.553 1168.98 816.345 1168.98C812.229 1168.98 809.569 1171.86 809.569 1176.37C809.569 1180.4 811.809 1183.15 815.589 1183.15C817.605 1183.15 819.565 1182.34 820.629 1180.18L820.769 1179.9H821.189C821.077 1184.27 819.453 1187.68 816.037 1187.68C812.985 1187.68 812.005 1185.36 811.865 1183.93H809.681C810.129 1187.04 812.229 1189.42 815.953 1189.42C821.693 1189.42 823.373 1184.24 823.373 1178.61ZM816.373 1181.38C813.545 1181.38 811.725 1179.31 811.725 1176.12C811.725 1172.9 813.489 1170.74 816.317 1170.74C819.145 1170.74 821.021 1172.96 821.021 1176.18C821.021 1179.4 819.173 1181.38 816.373 1181.38Z" fill="black"/>
<line x1="-4.37114e-08" y1="1292.5" x2="924" y2="1292.5" stroke="black"/>
<path d="M100.482 1265V1245.4H98.1575C97.9895 1246.86 97.2895 1249.54 93.9575 1249.54H92.9495V1251.56H93.5655C96.1135 1251.56 97.2335 1250.78 97.8775 1249.32L97.9895 1249.12H98.3815V1265H100.482ZM112.403 1265V1245.4H110.079C109.911 1246.86 109.211 1249.54 105.879 1249.54H104.871V1251.56H105.487C108.035 1251.56 109.155 1250.78 109.799 1249.32L109.911 1249.12H110.303V1265H112.403ZM119.929 1265V1260.6H117.605V1265H119.929ZM123.766 1258.81C123.85 1262.76 126.482 1265.45 130.626 1265.45C135.134 1265.45 137.794 1262.56 137.794 1258.11C137.794 1253.69 135.386 1251.2 131.83 1251.2C130.122 1251.2 128.218 1251.81 127.042 1253.72L126.846 1254.05H126.426L126.454 1247.28H136.534V1245.4H124.55L124.522 1256.38H126.79C127.294 1254.5 128.722 1252.96 131.13 1252.96C133.65 1252.96 135.582 1254.64 135.582 1258.25C135.582 1261.95 133.482 1263.68 130.626 1263.68C127.854 1263.68 126.034 1261.81 125.866 1258.84L123.766 1258.81Z" fill="black"/>
<path d="M343.622 1265V1245.4H341.298C341.13 1246.86 340.43 1249.54 337.098 1249.54H336.09V1251.56H336.706C339.254 1251.56 340.374 1250.78 341.018 1249.32L341.13 1249.12H341.522V1265H343.622ZM355.544 1265V1245.4H353.22C353.052 1246.86 352.352 1249.54 349.02 1249.54H348.012V1251.56H348.628C351.176 1251.56 352.296 1250.78 352.94 1249.32L353.052 1249.12H353.444V1265H355.544Z" fill="black"/>
<path d="M573.695 1245.4H570.671L561.123 1258.48V1260.74H571.511V1265H573.695V1260.74H576.607V1258.92H573.695V1245.4ZM571.511 1258.92H563.055V1258.5C563.475 1258.36 563.895 1258.03 564.595 1257.05L570.195 1249.26C570.811 1248.37 571.007 1247.72 571.119 1247.28H571.511V1258.92ZM579.313 1258.81C579.397 1262.76 582.029 1265.45 586.173 1265.45C590.681 1265.45 593.341 1262.56 593.341 1258.11C593.341 1253.69 590.933 1251.2 587.377 1251.2C585.669 1251.2 583.765 1251.81 582.589 1253.72L582.393 1254.05H581.973L582.001 1247.28H592.081V1245.4H580.097L580.069 1256.38H582.337C582.841 1254.5 584.269 1252.96 586.677 1252.96C589.197 1252.96 591.129 1254.64 591.129 1258.25C591.129 1261.95 589.029 1263.68 586.173 1263.68C583.401 1263.68 581.581 1261.81 581.413 1258.84L579.313 1258.81Z" fill="black"/>
<path d="M794.282 1265V1263.12H785.238V1262.79L788.794 1259.51C791.986 1256.99 794.87 1254.25 794.87 1250.47C794.87 1246.83 792.07 1244.98 788.654 1244.98C784.594 1244.98 781.794 1247.44 781.794 1251.34H783.894C783.894 1248.42 785.882 1246.77 788.682 1246.77C791.286 1246.77 792.742 1248.23 792.742 1250.44C792.742 1253.41 790.362 1255.82 787.674 1258.25L782.494 1262.93V1265H794.282ZM811.232 1254.61C811.232 1249.63 809.412 1244.98 804.204 1244.98C800.088 1244.98 797.428 1247.86 797.428 1252.37C797.428 1256.4 799.668 1259.15 803.448 1259.15C805.464 1259.15 807.424 1258.34 808.488 1256.18L808.628 1255.9H809.048C808.936 1260.27 807.312 1263.68 803.896 1263.68C800.844 1263.68 799.864 1261.36 799.724 1259.93H797.54C797.988 1263.04 800.088 1265.42 803.812 1265.42C809.552 1265.42 811.232 1260.24 811.232 1254.61ZM804.232 1257.38C801.404 1257.38 799.584 1255.31 799.584 1252.12C799.584 1248.9 801.348 1246.74 804.176 1246.74C807.004 1246.74 808.88 1248.96 808.88 1252.18C808.88 1255.4 807.032 1257.38 804.232 1257.38ZM817.113 1265V1260.6H814.789V1265H817.113ZM820.95 1258.81C821.034 1262.76 823.666 1265.45 827.81 1265.45C832.318 1265.45 834.978 1262.56 834.978 1258.11C834.978 1253.69 832.57 1251.2 829.014 1251.2C827.306 1251.2 825.402 1251.81 824.226 1253.72L824.03 1254.05H823.61L823.638 1247.28H833.718V1245.4H821.734L821.706 1256.38H823.974C824.478 1254.5 825.906 1252.96 828.314 1252.96C830.834 1252.96 832.766 1254.64 832.766 1258.25C832.766 1261.95 830.666 1263.68 827.81 1263.68C825.038 1263.68 823.218 1261.81 823.05 1258.84L820.95 1258.81Z" fill="black"/>
<line x1="-4.37114e-08" y1="1368.5" x2="924" y2="1368.5" stroke="black"/>
<path d="M110.626 1341V1321.4H108.302C108.134 1322.86 107.434 1325.54 104.102 1325.54H103.094V1327.56H103.71C106.258 1327.56 107.378 1326.78 108.022 1325.32L108.134 1325.12H108.526V1341H110.626ZM127.532 1341V1339.12H118.488V1338.79L122.044 1335.51C125.236 1332.99 128.12 1330.25 128.12 1326.47C128.12 1322.83 125.32 1320.98 121.904 1320.98C117.844 1320.98 115.044 1323.44 115.044 1327.34H117.144C117.144 1324.42 119.132 1322.77 121.932 1322.77C124.536 1322.77 125.992 1324.23 125.992 1326.44C125.992 1329.41 123.612 1331.82 120.924 1334.25L115.744 1338.93V1341H127.532Z" fill="black"/>
<path d="M331.482 1341V1321.4H329.158C328.99 1322.86 328.29 1325.54 324.958 1325.54H323.95V1327.56H324.566C327.114 1327.56 328.234 1326.78 328.878 1325.32L328.99 1325.12H329.382V1341H331.482ZM343.403 1341V1321.4H341.079C340.911 1322.86 340.211 1325.54 336.879 1325.54H335.871V1327.56H336.487C339.035 1327.56 340.155 1326.78 340.799 1325.32L340.911 1325.12H341.303V1341H343.403ZM350.929 1341V1336.6H348.605V1341H350.929ZM354.766 1334.81C354.85 1338.76 357.482 1341.45 361.626 1341.45C366.134 1341.45 368.794 1338.56 368.794 1334.11C368.794 1329.69 366.386 1327.2 362.83 1327.2C361.122 1327.2 359.218 1327.81 358.042 1329.72L357.846 1330.05H357.426L357.454 1323.28H367.534V1321.4H355.55L355.522 1332.38H357.79C358.294 1330.5 359.722 1328.96 362.13 1328.96C364.65 1328.96 366.582 1330.64 366.582 1334.25C366.582 1337.95 364.482 1339.68 361.626 1339.68C358.854 1339.68 357.034 1337.81 356.866 1334.84L354.766 1334.81Z" fill="black"/>
<path d="M574.2 1321.4H571.176L561.628 1334.48V1336.74H572.016V1341H574.2V1336.74H577.112V1334.92H574.2V1321.4ZM572.016 1334.92H563.56V1334.5C563.98 1334.36 564.4 1334.03 565.1 1333.05L570.7 1325.26C571.316 1324.37 571.512 1323.72 571.624 1323.28H572.016V1334.92ZM579.539 1331.79C579.539 1336.77 581.359 1341.42 586.567 1341.42C590.683 1341.42 593.343 1338.51 593.343 1334.03C593.343 1330 591.103 1327.25 587.323 1327.25C585.307 1327.25 583.347 1328.06 582.283 1330.22L582.143 1330.5H581.751C581.835 1326.13 583.459 1322.72 586.903 1322.72C589.927 1322.72 590.907 1325.04 591.075 1326.47H593.231C592.783 1323.36 590.683 1320.98 586.959 1320.98C581.219 1320.98 579.539 1326.16 579.539 1331.79ZM586.567 1329.02C589.367 1329.02 591.187 1331.09 591.187 1334.28C591.187 1337.5 589.423 1339.66 586.595 1339.66C583.767 1339.66 581.891 1337.44 581.891 1334.22C581.891 1331 583.739 1329.02 586.567 1329.02Z" fill="black"/>
<path d="M792.382 1335.32C792.55 1338.93 795.182 1341.45 799.158 1341.45C802.966 1341.45 805.99 1339.26 805.99 1335.93C805.99 1333.5 804.45 1331.76 802.042 1331.2L801.65 1331.12V1330.7L802.042 1330.64C804.45 1330.08 805.738 1328.54 805.738 1326.3C805.738 1323.05 803.05 1320.98 799.27 1320.98C795.322 1320.98 792.69 1323.25 792.55 1327.06H794.65C794.734 1324.48 796.33 1322.72 799.186 1322.72C801.986 1322.72 803.554 1324.45 803.554 1326.52C803.554 1329.8 799.69 1330.02 798.458 1330.02H796.946V1331.93H798.542C801.146 1331.93 803.806 1333.16 803.806 1335.76C803.806 1338.28 801.678 1339.6 799.158 1339.6C796.33 1339.6 794.622 1337.89 794.482 1335.32H792.382ZM816.553 1341.36C822.097 1341.36 824.309 1336.69 824.309 1331.17C824.309 1325.68 822.097 1320.98 816.553 1320.98C810.981 1320.98 808.769 1325.68 808.769 1331.17C808.769 1336.69 810.981 1341.36 816.553 1341.36ZM816.553 1322.94C820.529 1322.94 822.097 1326.36 822.097 1331.17C822.097 1336.02 820.529 1339.43 816.553 1339.43C812.605 1339.43 810.981 1336.04 810.981 1331.17C810.981 1326.36 812.605 1322.94 816.553 1322.94Z" fill="black"/>
<line x1="-4.37114e-08" y1="1444.5" x2="924" y2="1444.5" stroke="black"/>
<path d="M110.544 1417V1397.4H108.22C108.052 1398.86 107.352 1401.54 104.02 1401.54H103.012V1403.56H103.628C106.176 1403.56 107.296 1402.78 107.94 1401.32L108.052 1401.12H108.444V1417H110.544ZM114.654 1411.32C114.822 1414.93 117.454 1417.45 121.43 1417.45C125.238 1417.45 128.262 1415.26 128.262 1411.93C128.262 1409.5 126.722 1407.76 124.314 1407.2L123.922 1407.12V1406.7L124.314 1406.64C126.722 1406.08 128.01 1404.54 128.01 1402.3C128.01 1399.05 125.322 1396.98 121.542 1396.98C117.594 1396.98 114.962 1399.25 114.822 1403.06H116.922C117.006 1400.48 118.602 1398.72 121.458 1398.72C124.258 1398.72 125.826 1400.45 125.826 1402.52C125.826 1405.8 121.962 1406.02 120.73 1406.02H119.218V1407.93H120.814C123.418 1407.93 126.078 1409.16 126.078 1411.76C126.078 1414.28 123.95 1415.6 121.43 1415.6C118.602 1415.6 116.894 1413.89 116.754 1411.32H114.654Z" fill="black"/>
<path d="M329.485 1417V1397.4H327.161C326.993 1398.86 326.293 1401.54 322.961 1401.54H321.953V1403.56H322.569C325.117 1403.56 326.237 1402.78 326.881 1401.32L326.993 1401.12H327.385V1417H329.485ZM346.391 1417V1415.12H337.347V1414.79L340.903 1411.51C344.095 1408.99 346.979 1406.25 346.979 1402.47C346.979 1398.83 344.179 1396.98 340.763 1396.98C336.703 1396.98 333.903 1399.44 333.903 1403.34H336.003C336.003 1400.42 337.991 1398.77 340.791 1398.77C343.395 1398.77 344.851 1400.23 344.851 1402.44C344.851 1405.41 342.471 1407.82 339.783 1410.25L334.603 1414.93V1417H346.391ZM352.925 1417V1412.6H350.601V1417H352.925ZM356.762 1410.81C356.846 1414.76 359.478 1417.45 363.622 1417.45C368.13 1417.45 370.79 1414.56 370.79 1410.11C370.79 1405.69 368.382 1403.2 364.826 1403.2C363.118 1403.2 361.214 1403.81 360.038 1405.72L359.842 1406.05H359.422L359.45 1399.28H369.53V1397.4H357.546L357.518 1408.38H359.786C360.29 1406.5 361.718 1404.96 364.126 1404.96C366.646 1404.96 368.578 1406.64 368.578 1410.25C368.578 1413.95 366.478 1415.68 363.622 1415.68C360.85 1415.68 359.03 1413.81 358.862 1410.84L356.762 1410.81Z" fill="black"/>
<path d="M574.87 1397.4H571.846L562.298 1410.48V1412.74H572.686V1417H574.87V1412.74H577.782V1410.92H574.87V1397.4ZM572.686 1410.92H564.23V1410.5C564.65 1410.36 565.07 1410.03 565.77 1409.05L571.37 1401.26C571.986 1400.37 572.182 1399.72 572.294 1399.28H572.686V1410.92ZM584.732 1417L592.712 1399.53V1397.43H579.552V1399.3H591.256V1399.72L591.06 1399.81C590.22 1400.2 589.604 1400.93 588.764 1402.78L582.38 1417H584.732Z" fill="black"/>
<path d="M795.732 1411.32C795.9 1414.93 798.532 1417.45 802.508 1417.45C806.316 1417.45 809.34 1415.26 809.34 1411.93C809.34 1409.5 807.8 1407.76 805.392 1407.2L805 1407.12V1406.7L805.392 1406.64C807.8 1406.08 809.088 1404.54 809.088 1402.3C809.088 1399.05 806.4 1396.98 802.62 1396.98C798.672 1396.98 796.04 1399.25 795.9 1403.06H798C798.084 1400.48 799.68 1398.72 802.536 1398.72C805.336 1398.72 806.904 1400.45 806.904 1402.52C806.904 1405.8 803.04 1406.02 801.808 1406.02H800.296V1407.93H801.892C804.496 1407.93 807.156 1409.16 807.156 1411.76C807.156 1414.28 805.028 1415.6 802.508 1415.6C799.68 1415.6 797.972 1413.89 797.832 1411.32H795.732ZM819.622 1417V1397.4H817.298C817.13 1398.86 816.43 1401.54 813.098 1401.54H812.09V1403.56H812.706C815.254 1403.56 816.374 1402.78 817.018 1401.32L817.13 1401.12H817.522V1417H819.622Z" fill="black"/>
<path d="M109.628 1493V1473.4H107.304C107.136 1474.86 106.436 1477.54 103.104 1477.54H102.096V1479.56H102.712C105.26 1479.56 106.38 1478.78 107.024 1477.32L107.136 1477.12H107.528V1493H109.628ZM126.31 1473.4H123.286L113.738 1486.48V1488.74H124.126V1493H126.31V1488.74H129.222V1486.92H126.31V1473.4ZM124.126 1486.92H115.67V1486.5C116.09 1486.36 116.51 1486.03 117.21 1485.05L122.81 1477.26C123.426 1476.37 123.622 1475.72 123.734 1475.28H124.126V1486.92Z" fill="black"/>
<path d="M329.403 1493V1473.4H327.079C326.911 1474.86 326.211 1477.54 322.879 1477.54H321.871V1479.56H322.487C325.035 1479.56 326.155 1478.78 326.799 1477.32L326.911 1477.12H327.303V1493H329.403ZM333.513 1487.32C333.681 1490.93 336.313 1493.45 340.289 1493.45C344.097 1493.45 347.121 1491.26 347.121 1487.93C347.121 1485.5 345.581 1483.76 343.173 1483.2L342.781 1483.12V1482.7L343.173 1482.64C345.581 1482.08 346.869 1480.54 346.869 1478.3C346.869 1475.05 344.181 1472.98 340.401 1472.98C336.453 1472.98 333.821 1475.25 333.681 1479.06H335.781C335.865 1476.48 337.461 1474.72 340.317 1474.72C343.117 1474.72 344.685 1476.45 344.685 1478.52C344.685 1481.8 340.821 1482.02 339.589 1482.02H338.077V1483.93H339.673C342.277 1483.93 344.937 1485.16 344.937 1487.76C344.937 1490.28 342.809 1491.6 340.289 1491.6C337.461 1491.6 335.753 1489.89 335.613 1487.32H333.513ZM353.007 1493V1488.6H350.683V1493H353.007ZM356.844 1486.81C356.928 1490.76 359.56 1493.45 363.704 1493.45C368.212 1493.45 370.872 1490.56 370.872 1486.11C370.872 1481.69 368.464 1479.2 364.908 1479.2C363.2 1479.2 361.296 1479.81 360.12 1481.72L359.924 1482.05H359.504L359.532 1475.28H369.612V1473.4H357.628L357.6 1484.38H359.868C360.372 1482.5 361.8 1480.96 364.208 1480.96C366.728 1480.96 368.66 1482.64 368.66 1486.25C368.66 1489.95 366.56 1491.68 363.704 1491.68C360.932 1491.68 359.112 1489.81 358.944 1486.84L356.844 1486.81Z" fill="black"/>
<path d="M574.077 1473.4H571.053L561.505 1486.48V1488.74H571.893V1493H574.077V1488.74H576.989V1486.92H574.077V1473.4ZM571.893 1486.92H563.437V1486.5C563.857 1486.36 564.277 1486.03 564.977 1485.05L570.577 1477.26C571.193 1476.37 571.389 1475.72 571.501 1475.28H571.893V1486.92ZM586.472 1493.42C590.672 1493.42 593.5 1491.43 593.5 1487.93C593.5 1485.1 591.624 1483.59 589.524 1483.06L589.188 1482.95V1482.56L589.58 1482.42C591.484 1481.8 592.772 1480.29 592.772 1477.99C592.772 1475.14 590.42 1472.98 586.444 1472.98C582.44 1472.98 580.116 1475.19 580.116 1477.99C580.116 1480.29 581.432 1481.83 583.336 1482.42L583.728 1482.56V1482.95L583.392 1483.06C581.292 1483.56 579.444 1485.1 579.444 1487.93C579.444 1491.46 582.244 1493.42 586.472 1493.42ZM586.472 1481.88C584.148 1481.88 582.16 1480.54 582.16 1478.24C582.16 1475.86 584.148 1474.69 586.472 1474.69C588.768 1474.69 590.756 1475.86 590.756 1478.24C590.756 1480.54 588.768 1481.88 586.472 1481.88ZM586.472 1491.68C583.588 1491.68 581.6 1490.37 581.6 1487.79C581.6 1485.27 583.588 1483.84 586.472 1483.84C589.328 1483.84 591.316 1485.27 591.316 1487.79C591.316 1490.37 589.328 1491.68 586.472 1491.68Z" fill="black"/>
<path d="M793.736 1487.32C793.904 1490.93 796.536 1493.45 800.512 1493.45C804.32 1493.45 807.344 1491.26 807.344 1487.93C807.344 1485.5 805.804 1483.76 803.396 1483.2L803.004 1483.12V1482.7L803.396 1482.64C805.804 1482.08 807.092 1480.54 807.092 1478.3C807.092 1475.05 804.404 1472.98 800.624 1472.98C796.676 1472.98 794.044 1475.25 793.904 1479.06H796.004C796.088 1476.48 797.684 1474.72 800.54 1474.72C803.34 1474.72 804.908 1476.45 804.908 1478.52C804.908 1481.8 801.044 1482.02 799.812 1482.02H798.3V1483.93H799.896C802.5 1483.93 805.16 1485.16 805.16 1487.76C805.16 1490.28 803.032 1491.6 800.512 1491.6C797.684 1491.6 795.976 1489.89 795.836 1487.32H793.736ZM822.61 1493V1491.12H813.566V1490.79L817.122 1487.51C820.314 1484.99 823.198 1482.25 823.198 1478.47C823.198 1474.83 820.398 1472.98 816.982 1472.98C812.922 1472.98 810.122 1475.44 810.122 1479.34H812.222C812.222 1476.42 814.21 1474.77 817.01 1474.77C819.614 1474.77 821.07 1476.23 821.07 1478.44C821.07 1481.41 818.69 1483.82 816.002 1486.25L810.822 1490.93V1493H822.61Z" fill="black"/>
</svg>
