<svg width="924" height="1369" viewBox="0 0 924 1369" fill="none" xmlns="http://www.w3.org/2000/svg">
<line x1="-4.37114e-08" y1="76.5" x2="924" y2="76.4999" stroke="black"/>
<path d="M107.193 49.42C112.037 49.42 114.753 47.124 114.753 42.14V29.4H111.813V42.224C111.813 45.248 110.441 46.788 107.193 46.788C103.917 46.788 102.545 45.164 102.545 42.224V29.4H99.6046V42.14C99.6046 47.124 102.377 49.42 107.193 49.42ZM118.203 42.924C118.455 47.124 121.675 49.42 125.847 49.42C129.767 49.42 132.987 47.432 132.987 43.54C132.987 40.628 131.139 38.836 128.059 38.276L124.139 37.548C122.179 37.184 121.115 36.008 121.115 34.496C121.115 32.788 122.487 31.556 125.315 31.556C128.171 31.556 130.215 32.816 130.411 35.532H133.491C133.183 31.248 129.739 28.98 125.231 28.98C121.143 28.98 118.091 30.912 118.091 34.58C118.091 37.548 120.079 39.452 123.187 40.04L126.939 40.74C129.039 41.132 129.935 42.084 129.935 43.708C129.935 45.92 128.283 46.844 125.875 46.844C122.963 46.844 121.395 45.304 121.283 42.924H118.203Z" fill="black"/>
<path d="M336.8 49.42C341.644 49.42 344.36 47.124 344.36 42.14V29.4H341.42V42.224C341.42 45.248 340.048 46.788 336.8 46.788C333.524 46.788 332.152 45.164 332.152 42.224V29.4H329.212V42.14C329.212 47.124 331.984 49.42 336.8 49.42ZM358.618 35.728L364.078 29.4H360.158L354.306 36.12C352.906 37.604 352.654 38.696 352.514 39.844H352.01V29.4H349.07V49H352.01V43.344L356.546 38.108L361.054 49H364.33L358.618 35.728Z" fill="black"/>
<path d="M561.492 49H573.84V46.424H564.432V40.208H573V37.744H564.432V31.976H573.672V29.4H561.492V49ZM585.562 49.42C590.406 49.42 593.122 47.124 593.122 42.14V29.4H590.182V42.224C590.182 45.248 588.81 46.788 585.562 46.788C582.286 46.788 580.914 45.164 580.914 42.224V29.4H577.974V42.14C577.974 47.124 580.746 49.42 585.562 49.42Z" fill="black"/>
<path d="M798.756 49.42C803.656 49.42 805.784 46.368 805.784 42.168V29.4H802.816V42.14C802.816 45.024 801.752 46.788 798.756 46.788C796.404 46.788 794.948 45.612 794.696 42.728H791.728C791.896 46.34 794.024 49.42 798.756 49.42ZM813.44 49.056V41.58H818.844C823.072 41.58 825.368 39.2 825.368 35.504C825.368 31.92 823.072 29.4 818.844 29.4H810.5V49L813.44 49.056ZM813.44 31.976H818.48C821.084 31.976 822.344 33.404 822.344 35.504C822.344 37.604 821.084 39.004 818.508 39.004H813.44V31.976Z" fill="black"/>
<line x1="231.5" y1="2.09582e-08" x2="231.5" y2="1369" stroke="black"/>
<line x1="462.5" y1="2.22452e-08" x2="462.5" y2="1369" stroke="black"/>
<line x1="693.5" y1="2.09582e-08" x2="693.5" y2="1369" stroke="black"/>
<line x1="-4.37114e-08" y1="152.5" x2="924" y2="152.5" stroke="black"/>
<path d="M108.358 118.812C108.442 122.76 111.074 125.448 115.218 125.448C119.726 125.448 122.386 122.564 122.386 118.112C122.386 113.688 119.978 111.196 116.422 111.196C114.714 111.196 112.81 111.812 111.634 113.716L111.438 114.052H111.018L111.046 107.276H121.126V105.4H109.142L109.114 116.376H111.382C111.886 114.5 113.314 112.96 115.722 112.96C118.242 112.96 120.174 114.64 120.174 118.252C120.174 121.948 118.074 123.684 115.218 123.684C112.446 123.684 110.626 121.808 110.458 118.84L108.358 118.812Z" fill="black"/>
<path d="M340.43 125V123.124H331.386V122.788L334.942 119.512C338.134 116.992 341.018 114.248 341.018 110.468C341.018 106.828 338.218 104.98 334.802 104.98C330.742 104.98 327.942 107.444 327.942 111.336H330.042C330.042 108.424 332.03 106.772 334.83 106.772C337.434 106.772 338.89 108.228 338.89 110.44C338.89 113.408 336.51 115.816 333.822 118.252L328.642 122.928V125H340.43ZM346.964 125V120.604H344.64V125H346.964ZM350.801 118.812C350.885 122.76 353.517 125.448 357.661 125.448C362.169 125.448 364.829 122.564 364.829 118.112C364.829 113.688 362.421 111.196 358.865 111.196C357.157 111.196 355.253 111.812 354.077 113.716L353.881 114.052H353.461L353.489 107.276H363.569V105.4H351.585L351.557 116.376H353.825C354.329 114.5 355.757 112.96 358.165 112.96C360.685 112.96 362.617 114.64 362.617 118.252C362.617 121.948 360.517 123.684 357.661 123.684C354.889 123.684 353.069 121.808 352.901 118.84L350.801 118.812Z" fill="black"/>
<path d="M562.039 119.316C562.207 122.928 564.839 125.448 568.815 125.448C572.623 125.448 575.647 123.264 575.647 119.932C575.647 117.496 574.107 115.76 571.699 115.2L571.307 115.116V114.696L571.699 114.64C574.107 114.08 575.395 112.54 575.395 110.3C575.395 107.052 572.707 104.98 568.927 104.98C564.979 104.98 562.347 107.248 562.207 111.056H564.307C564.391 108.48 565.987 106.716 568.843 106.716C571.643 106.716 573.211 108.452 573.211 110.524C573.211 113.8 569.347 114.024 568.115 114.024H566.603V115.928H568.199C570.803 115.928 573.463 117.16 573.463 119.764C573.463 122.284 571.335 123.6 568.815 123.6C565.987 123.6 564.279 121.892 564.139 119.316H562.039ZM578.397 118.812C578.481 122.76 581.113 125.448 585.257 125.448C589.765 125.448 592.425 122.564 592.425 118.112C592.425 113.688 590.017 111.196 586.461 111.196C584.753 111.196 582.849 111.812 581.673 113.716L581.477 114.052H581.057L581.085 107.276H591.165V105.4H579.181L579.153 116.376H581.421C581.925 114.5 583.353 112.96 585.761 112.96C588.281 112.96 590.213 114.64 590.213 118.252C590.213 121.948 588.113 123.684 585.257 123.684C582.485 123.684 580.665 121.808 580.497 118.84L578.397 118.812Z" fill="black"/>
<path d="M808.61 125V123.124H799.566V122.788L803.122 119.512C806.314 116.992 809.198 114.248 809.198 110.468C809.198 106.828 806.398 104.98 802.982 104.98C798.922 104.98 796.122 107.444 796.122 111.336H798.222C798.222 108.424 800.21 106.772 803.01 106.772C805.614 106.772 807.07 108.228 807.07 110.44C807.07 113.408 804.69 115.816 802.002 118.252L796.822 122.928V125H808.61ZM819.54 125V105.4H817.216C817.048 106.856 816.348 109.544 813.016 109.544H812.008V111.56H812.624C815.172 111.56 816.292 110.776 816.936 109.32L817.048 109.124H817.44V125H819.54Z" fill="black"/>
<line x1="-4.37114e-08" y1="228.5" x2="924" y2="228.5" stroke="black"/>
<path d="M96.2171 194.812C96.3011 198.76 98.9331 201.448 103.077 201.448C107.585 201.448 110.245 198.564 110.245 194.112C110.245 189.688 107.837 187.196 104.281 187.196C102.573 187.196 100.669 187.812 99.4931 189.716L99.2971 190.052H98.8771L98.9051 183.276H108.985V181.4H97.0011L96.9731 192.376H99.2411C99.7451 190.5 101.173 188.96 103.581 188.96C106.101 188.96 108.033 190.64 108.033 194.252C108.033 197.948 105.933 199.684 103.077 199.684C100.305 199.684 98.4851 197.808 98.3171 194.84L96.2171 194.812ZM116.662 201V196.604H114.338V201H116.662ZM120.498 194.812C120.582 198.76 123.214 201.448 127.358 201.448C131.866 201.448 134.526 198.564 134.526 194.112C134.526 189.688 132.118 187.196 128.562 187.196C126.854 187.196 124.95 187.812 123.774 189.716L123.578 190.052H123.158L123.186 183.276H133.266V181.4H121.282L121.254 192.376H123.522C124.026 190.5 125.454 188.96 127.862 188.96C130.382 188.96 132.314 190.64 132.314 194.252C132.314 197.948 130.214 199.684 127.358 199.684C124.586 199.684 122.766 197.808 122.598 194.84L120.498 194.812Z" fill="black"/>
<path d="M339.693 195.316C339.861 198.928 342.493 201.448 346.469 201.448C350.277 201.448 353.301 199.264 353.301 195.932C353.301 193.496 351.761 191.76 349.353 191.2L348.961 191.116V190.696L349.353 190.64C351.761 190.08 353.049 188.54 353.049 186.3C353.049 183.052 350.361 180.98 346.581 180.98C342.633 180.98 340.001 183.248 339.861 187.056H341.961C342.045 184.48 343.641 182.716 346.497 182.716C349.297 182.716 350.865 184.452 350.865 186.524C350.865 189.8 347.001 190.024 345.769 190.024H344.257V191.928H345.853C348.457 191.928 351.117 193.16 351.117 195.764C351.117 198.284 348.989 199.6 346.469 199.6C343.641 199.6 341.933 197.892 341.793 195.316H339.693Z" fill="black"/>
<path d="M549.898 195.316C550.066 198.928 552.698 201.448 556.674 201.448C560.482 201.448 563.506 199.264 563.506 195.932C563.506 193.496 561.966 191.76 559.558 191.2L559.166 191.116V190.696L559.558 190.64C561.966 190.08 563.254 188.54 563.254 186.3C563.254 183.052 560.566 180.98 556.786 180.98C552.838 180.98 550.206 183.248 550.066 187.056H552.166C552.25 184.48 553.846 182.716 556.702 182.716C559.502 182.716 561.07 184.452 561.07 186.524C561.07 189.8 557.206 190.024 555.974 190.024H554.462V191.928H556.058C558.662 191.928 561.322 193.16 561.322 195.764C561.322 198.284 559.194 199.6 556.674 199.6C553.846 199.6 552.138 197.892 551.998 195.316H549.898ZM566.256 194.812C566.34 198.76 568.972 201.448 573.116 201.448C577.624 201.448 580.284 198.564 580.284 194.112C580.284 189.688 577.876 187.196 574.32 187.196C572.612 187.196 570.708 187.812 569.532 189.716L569.336 190.052H568.916L568.944 183.276H579.024V181.4H567.04L567.012 192.376H569.28C569.784 190.5 571.212 188.96 573.62 188.96C576.14 188.96 578.072 190.64 578.072 194.252C578.072 197.948 575.972 199.684 573.116 199.684C570.344 199.684 568.524 197.808 568.356 194.84L566.256 194.812ZM586.701 201V196.604H584.377V201H586.701ZM590.537 194.812C590.621 198.76 593.253 201.448 597.397 201.448C601.905 201.448 604.565 198.564 604.565 194.112C604.565 189.688 602.157 187.196 598.601 187.196C596.893 187.196 594.989 187.812 593.813 189.716L593.617 190.052H593.197L593.225 183.276H603.305V181.4H591.321L591.293 192.376H593.561C594.065 190.5 595.493 188.96 597.901 188.96C600.421 188.96 602.353 190.64 602.353 194.252C602.353 197.948 600.253 199.684 597.397 199.684C594.625 199.684 592.805 197.808 592.637 194.84L590.537 194.812Z" fill="black"/>
<path d="M796.469 201V199.124H787.425V198.788L790.981 195.512C794.173 192.992 797.057 190.248 797.057 186.468C797.057 182.828 794.257 180.98 790.841 180.98C786.781 180.98 783.981 183.444 783.981 187.336H786.081C786.081 184.424 788.069 182.772 790.869 182.772C793.473 182.772 794.929 184.228 794.929 186.44C794.929 189.408 792.549 191.816 789.861 194.252L784.681 198.928V201H796.469ZM807.399 201V181.4H805.075C804.907 182.856 804.207 185.544 800.875 185.544H799.867V187.56H800.483C803.031 187.56 804.151 186.776 804.795 185.32L804.907 185.124H805.299V201H807.399ZM814.925 201V196.604H812.601V201H814.925ZM818.762 194.812C818.846 198.76 821.478 201.448 825.622 201.448C830.13 201.448 832.79 198.564 832.79 194.112C832.79 189.688 830.382 187.196 826.826 187.196C825.118 187.196 823.214 187.812 822.038 189.716L821.842 190.052H821.422L821.45 183.276H831.53V181.4H819.546L819.518 192.376H821.786C822.29 190.5 823.718 188.96 826.126 188.96C828.646 188.96 830.578 190.64 830.578 194.252C830.578 197.948 828.478 199.684 825.622 199.684C822.85 199.684 821.03 197.808 820.862 194.84L818.762 194.812Z" fill="black"/>
<line x1="-4.37114e-08" y1="304.5" x2="924" y2="304.5" stroke="black"/>
<path d="M108.584 267.788C108.584 272.772 110.404 277.42 115.612 277.42C119.728 277.42 122.388 274.508 122.388 270.028C122.388 265.996 120.148 263.252 116.368 263.252C114.352 263.252 112.392 264.064 111.328 266.22L111.188 266.5H110.796C110.88 262.132 112.504 258.716 115.948 258.716C118.972 258.716 119.952 261.04 120.12 262.468H122.276C121.828 259.36 119.728 256.98 116.004 256.98C110.264 256.98 108.584 262.16 108.584 267.788ZM115.612 265.016C118.412 265.016 120.232 267.088 120.232 270.28C120.232 273.5 118.468 275.656 115.64 275.656C112.812 275.656 110.936 273.444 110.936 270.224C110.936 267.004 112.784 265.016 115.612 265.016Z" fill="black"/>
<path d="M327.552 271.316C327.72 274.928 330.352 277.448 334.328 277.448C338.136 277.448 341.16 275.264 341.16 271.932C341.16 269.496 339.62 267.76 337.212 267.2L336.82 267.116V266.696L337.212 266.64C339.62 266.08 340.908 264.54 340.908 262.3C340.908 259.052 338.22 256.98 334.44 256.98C330.492 256.98 327.86 259.248 327.72 263.056H329.82C329.904 260.48 331.5 258.716 334.356 258.716C337.156 258.716 338.724 260.452 338.724 262.524C338.724 265.8 334.86 266.024 333.628 266.024H332.116V267.928H333.712C336.316 267.928 338.976 269.16 338.976 271.764C338.976 274.284 336.848 275.6 334.328 275.6C331.5 275.6 329.792 273.892 329.652 271.316H327.552ZM347.046 277V272.604H344.722V277H347.046ZM350.883 270.812C350.967 274.76 353.599 277.448 357.743 277.448C362.251 277.448 364.911 274.564 364.911 270.112C364.911 265.688 362.503 263.196 358.947 263.196C357.239 263.196 355.335 263.812 354.159 265.716L353.963 266.052H353.543L353.571 259.276H363.651V257.4H351.667L351.639 268.376H353.907C354.411 266.5 355.839 264.96 358.247 264.96C360.767 264.96 362.699 266.64 362.699 270.252C362.699 273.948 360.599 275.684 357.743 275.684C354.971 275.684 353.151 273.808 352.983 270.84L350.883 270.812Z" fill="black"/>
<path d="M562.545 271.316C562.713 274.928 565.345 277.448 569.321 277.448C573.129 277.448 576.153 275.264 576.153 271.932C576.153 269.496 574.613 267.76 572.205 267.2L571.813 267.116V266.696L572.205 266.64C574.613 266.08 575.901 264.54 575.901 262.3C575.901 259.052 573.213 256.98 569.433 256.98C565.485 256.98 562.853 259.248 562.713 263.056H564.812C564.897 260.48 566.493 258.716 569.349 258.716C572.149 258.716 573.717 260.452 573.717 262.524C573.717 265.8 569.853 266.024 568.621 266.024H567.109V267.928H568.704C571.309 267.928 573.969 269.16 573.969 271.764C573.969 274.284 571.841 275.6 569.321 275.6C566.493 275.6 564.785 273.892 564.645 271.316H562.545ZM578.623 267.788C578.623 272.772 580.443 277.42 585.651 277.42C589.767 277.42 592.427 274.508 592.427 270.028C592.427 265.996 590.187 263.252 586.407 263.252C584.391 263.252 582.431 264.064 581.367 266.22L581.227 266.5H580.835C580.919 262.132 582.543 258.716 585.987 258.716C589.011 258.716 589.991 261.04 590.159 262.468H592.315C591.867 259.36 589.767 256.98 586.043 256.98C580.303 256.98 578.623 262.16 578.623 267.788ZM585.651 265.016C588.451 265.016 590.271 267.088 590.271 270.28C590.271 273.5 588.507 275.656 585.679 275.656C582.851 275.656 580.975 273.444 580.975 270.224C580.975 267.004 582.823 265.016 585.651 265.016Z" fill="black"/>
<path d="M806.614 277V275.124H797.57V274.788L801.126 271.512C804.318 268.992 807.202 266.248 807.202 262.468C807.202 258.828 804.402 256.98 800.986 256.98C796.926 256.98 794.126 259.444 794.126 263.336H796.226C796.226 260.424 798.214 258.772 801.014 258.772C803.618 258.772 805.074 260.228 805.074 262.44C805.074 265.408 802.694 267.816 800.006 270.252L794.826 274.928V277H806.614ZM822.528 277V275.124H813.484V274.788L817.04 271.512C820.232 268.992 823.116 266.248 823.116 262.468C823.116 258.828 820.316 256.98 816.9 256.98C812.84 256.98 810.04 259.444 810.04 263.336H812.14C812.14 260.424 814.128 258.772 816.928 258.772C819.532 258.772 820.988 260.228 820.988 262.44C820.988 265.408 818.608 267.816 815.92 270.252L810.74 274.928V277H822.528Z" fill="black"/>
<line x1="-4.37114e-08" y1="380.5" x2="924" y2="380.5" stroke="black"/>
<path d="M96.4429 343.788C96.4429 348.772 98.2629 353.42 103.471 353.42C107.587 353.42 110.247 350.508 110.247 346.028C110.247 341.996 108.007 339.252 104.227 339.252C102.211 339.252 100.251 340.064 99.1869 342.22L99.0469 342.5H98.6549C98.7389 338.132 100.363 334.716 103.807 334.716C106.831 334.716 107.811 337.04 107.979 338.468H110.135C109.687 335.36 107.587 332.98 103.863 332.98C98.1229 332.98 96.4429 338.16 96.4429 343.788ZM103.471 341.016C106.271 341.016 108.091 343.088 108.091 346.28C108.091 349.5 106.327 351.656 103.499 351.656C100.671 351.656 98.7949 349.444 98.7949 346.224C98.7949 343.004 100.643 341.016 103.471 341.016ZM116.156 353V348.604H113.832V353H116.156ZM119.992 346.812C120.076 350.76 122.708 353.448 126.852 353.448C131.36 353.448 134.02 350.564 134.02 346.112C134.02 341.688 131.612 339.196 128.056 339.196C126.348 339.196 124.444 339.812 123.268 341.716L123.072 342.052H122.652L122.68 335.276H132.76V333.4H120.776L120.748 344.376H123.016C123.52 342.5 124.948 340.96 127.356 340.96C129.876 340.96 131.808 342.64 131.808 346.252C131.808 349.948 129.708 351.684 126.852 351.684C124.08 351.684 122.26 349.808 122.092 346.84L119.992 346.812Z" fill="black"/>
<path d="M351.349 333.4H348.325L338.777 346.476V348.744H349.165V353H351.349V348.744H354.261V346.924H351.349V333.4ZM349.165 346.924H340.709V346.504C341.129 346.364 341.549 346.028 342.249 345.048L347.849 337.264C348.465 336.368 348.661 335.724 348.773 335.276H349.165V346.924Z" fill="black"/>
<path d="M550.404 347.316C550.572 350.928 553.204 353.448 557.18 353.448C560.988 353.448 564.012 351.264 564.012 347.932C564.012 345.496 562.472 343.76 560.064 343.2L559.672 343.116V342.696L560.064 342.64C562.472 342.08 563.76 340.54 563.76 338.3C563.76 335.052 561.072 332.98 557.292 332.98C553.344 332.98 550.712 335.248 550.572 339.056H552.672C552.756 336.48 554.352 334.716 557.208 334.716C560.008 334.716 561.576 336.452 561.576 338.524C561.576 341.8 557.712 342.024 556.48 342.024H554.968V343.928H556.564C559.168 343.928 561.828 345.16 561.828 347.764C561.828 350.284 559.7 351.6 557.18 351.6C554.352 351.6 552.644 349.892 552.504 347.316H550.404ZM566.482 343.788C566.482 348.772 568.302 353.42 573.51 353.42C577.626 353.42 580.286 350.508 580.286 346.028C580.286 341.996 578.046 339.252 574.266 339.252C572.25 339.252 570.29 340.064 569.226 342.22L569.086 342.5H568.694C568.778 338.132 570.402 334.716 573.846 334.716C576.87 334.716 577.85 337.04 578.018 338.468H580.174C579.726 335.36 577.626 332.98 573.902 332.98C568.162 332.98 566.482 338.16 566.482 343.788ZM573.51 341.016C576.31 341.016 578.13 343.088 578.13 346.28C578.13 349.5 576.366 351.656 573.538 351.656C570.71 351.656 568.834 349.444 568.834 346.224C568.834 343.004 570.682 341.016 573.51 341.016ZM586.195 353V348.604H583.871V353H586.195ZM590.032 346.812C590.116 350.76 592.748 353.448 596.892 353.448C601.4 353.448 604.06 350.564 604.06 346.112C604.06 341.688 601.652 339.196 598.096 339.196C596.388 339.196 594.484 339.812 593.308 341.716L593.112 342.052H592.692L592.72 335.276H602.8V333.4H590.816L590.788 344.376H593.056C593.56 342.5 594.988 340.96 597.396 340.96C599.916 340.96 601.848 342.64 601.848 346.252C601.848 349.948 599.748 351.684 596.892 351.684C594.12 351.684 592.3 349.808 592.132 346.84L590.032 346.812Z" fill="black"/>
<path d="M794.473 353V351.124H785.429V350.788L788.985 347.512C792.177 344.992 795.061 342.248 795.061 338.468C795.061 334.828 792.261 332.98 788.845 332.98C784.785 332.98 781.985 335.444 781.985 339.336H784.085C784.085 336.424 786.073 334.772 788.873 334.772C791.477 334.772 792.933 336.228 792.933 338.44C792.933 341.408 790.553 343.816 787.865 346.252L782.685 350.928V353H794.473ZM810.387 353V351.124H801.343V350.788L804.899 347.512C808.091 344.992 810.975 342.248 810.975 338.468C810.975 334.828 808.175 332.98 804.759 332.98C800.699 332.98 797.899 335.444 797.899 339.336H799.999C799.999 336.424 801.987 334.772 804.787 334.772C807.391 334.772 808.847 336.228 808.847 338.44C808.847 341.408 806.467 343.816 803.779 346.252L798.599 350.928V353H810.387ZM816.921 353V348.604H814.597V353H816.921ZM820.758 346.812C820.842 350.76 823.474 353.448 827.618 353.448C832.126 353.448 834.786 350.564 834.786 346.112C834.786 341.688 832.378 339.196 828.822 339.196C827.114 339.196 825.21 339.812 824.034 341.716L823.838 342.052H823.418L823.446 335.276H833.526V333.4H821.542L821.514 344.376H823.782C824.286 342.5 825.714 340.96 828.122 340.96C830.642 340.96 832.574 342.64 832.574 346.252C832.574 349.948 830.474 351.684 827.618 351.684C824.846 351.684 823.026 349.808 822.858 346.84L820.758 346.812Z" fill="black"/>
<line x1="-4.37114e-08" y1="456.5" x2="924" y2="456.5" stroke="black"/>
<path d="M114.105 429L122.085 411.528V409.428H108.925V411.304H120.629V411.724L120.433 411.808C119.593 412.2 118.977 412.928 118.137 414.776L111.753 429H114.105Z" fill="black"/>
<path d="M339.413 409.4H336.389L326.841 422.476V424.744H337.229V429H339.413V424.744H342.325V422.924H339.413V409.4ZM337.229 422.924H328.773V422.504C329.193 422.364 329.613 422.028 330.313 421.048L335.913 413.264C336.529 412.368 336.725 411.724 336.837 411.276H337.229V422.924ZM347.757 429V424.604H345.433V429H347.757ZM351.594 422.812C351.678 426.76 354.31 429.448 358.454 429.448C362.962 429.448 365.622 426.564 365.622 422.112C365.622 417.688 363.214 415.196 359.658 415.196C357.95 415.196 356.046 415.812 354.87 417.716L354.674 418.052H354.254L354.282 411.276H364.362V409.4H352.378L352.35 420.376H354.618C355.122 418.5 356.55 416.96 358.958 416.96C361.478 416.96 363.41 418.64 363.41 422.252C363.41 425.948 361.31 427.684 358.454 427.684C355.682 427.684 353.862 425.808 353.694 422.84L351.594 422.812Z" fill="black"/>
<path d="M563.091 423.316C563.259 426.928 565.891 429.448 569.867 429.448C573.675 429.448 576.699 427.264 576.699 423.932C576.699 421.496 575.159 419.76 572.751 419.2L572.359 419.116V418.696L572.751 418.64C575.159 418.08 576.447 416.54 576.447 414.3C576.447 411.052 573.759 408.98 569.979 408.98C566.031 408.98 563.399 411.248 563.259 415.056H565.359C565.443 412.48 567.039 410.716 569.895 410.716C572.695 410.716 574.263 412.452 574.263 414.524C574.263 417.8 570.399 418.024 569.167 418.024H567.655V419.928H569.251C571.855 419.928 574.515 421.16 574.515 423.764C574.515 426.284 572.387 427.6 569.867 427.6C567.039 427.6 565.331 425.892 565.191 423.316H563.091ZM583.939 429L591.919 411.528V409.428H578.759V411.304H590.463V411.724L590.267 411.808C589.427 412.2 588.811 412.928 587.971 414.776L581.587 429H583.939Z" fill="black"/>
<path d="M806.532 429V427.124H797.488V426.788L801.044 423.512C804.236 420.992 807.12 418.248 807.12 414.468C807.12 410.828 804.32 408.98 800.904 408.98C796.844 408.98 794.044 411.444 794.044 415.336H796.144C796.144 412.424 798.132 410.772 800.932 410.772C803.536 410.772 804.992 412.228 804.992 414.44C804.992 417.408 802.612 419.816 799.924 422.252L794.744 426.928V429H806.532ZM809.65 423.316C809.818 426.928 812.45 429.448 816.426 429.448C820.234 429.448 823.258 427.264 823.258 423.932C823.258 421.496 821.718 419.76 819.31 419.2L818.918 419.116V418.696L819.31 418.64C821.718 418.08 823.006 416.54 823.006 414.3C823.006 411.052 820.318 408.98 816.538 408.98C812.59 408.98 809.958 411.248 809.818 415.056H811.918C812.002 412.48 813.598 410.716 816.454 410.716C819.254 410.716 820.822 412.452 820.822 414.524C820.822 417.8 816.958 418.024 815.726 418.024H814.214V419.928H815.81C818.414 419.928 821.074 421.16 821.074 423.764C821.074 426.284 818.946 427.6 816.426 427.6C813.598 427.6 811.89 425.892 811.75 423.316H809.65Z" fill="black"/>
<line x1="-4.37114e-08" y1="532.5" x2="924" y2="532.5" stroke="black"/>
<path d="M102.703 505L110.683 487.528V485.428H97.523V487.304H109.227V487.724L109.031 487.808C108.191 488.2 107.575 488.928 106.735 490.776L100.351 505H102.703ZM115.076 505V500.604H112.752V505H115.076ZM118.912 498.812C118.996 502.76 121.628 505.448 125.772 505.448C130.28 505.448 132.94 502.564 132.94 498.112C132.94 493.688 130.532 491.196 126.976 491.196C125.268 491.196 123.364 491.812 122.188 493.716L121.992 494.052H121.572L121.6 487.276H131.68V485.4H119.696L119.668 496.376H121.936C122.44 494.5 123.868 492.96 126.276 492.96C128.796 492.96 130.728 494.64 130.728 498.252C130.728 501.948 128.628 503.684 125.772 503.684C123 503.684 121.18 501.808 121.012 498.84L118.912 498.812Z" fill="black"/>
<path d="M339.358 498.812C339.442 502.76 342.074 505.448 346.218 505.448C350.726 505.448 353.386 502.564 353.386 498.112C353.386 493.688 350.978 491.196 347.422 491.196C345.714 491.196 343.81 491.812 342.634 493.716L342.438 494.052H342.018L342.046 487.276H352.126V485.4H340.142L340.114 496.376H342.382C342.886 494.5 344.314 492.96 346.722 492.96C349.242 492.96 351.174 494.64 351.174 498.252C351.174 501.948 349.074 503.684 346.218 503.684C343.446 503.684 341.626 501.808 341.458 498.84L339.358 498.812Z" fill="black"/>
<path d="M562.421 499.316C562.589 502.928 565.221 505.448 569.197 505.448C573.005 505.448 576.029 503.264 576.029 499.932C576.029 497.496 574.489 495.76 572.081 495.2L571.689 495.116V494.696L572.081 494.64C574.489 494.08 575.777 492.54 575.777 490.3C575.777 487.052 573.089 484.98 569.309 484.98C565.361 484.98 562.729 487.248 562.589 491.056H564.689C564.773 488.48 566.369 486.716 569.225 486.716C572.025 486.716 573.593 488.452 573.593 490.524C573.593 493.8 569.729 494.024 568.497 494.024H566.985V495.928H568.581C571.185 495.928 573.845 497.16 573.845 499.764C573.845 502.284 571.717 503.6 569.197 503.6C566.369 503.6 564.661 501.892 564.521 499.316H562.421ZM585.556 505.42C589.756 505.42 592.584 503.432 592.584 499.932C592.584 497.104 590.708 495.592 588.608 495.06L588.272 494.948V494.556L588.664 494.416C590.568 493.8 591.856 492.288 591.856 489.992C591.856 487.136 589.504 484.98 585.528 484.98C581.524 484.98 579.2 487.192 579.2 489.992C579.2 492.288 580.516 493.828 582.42 494.416L582.812 494.556V494.948L582.476 495.06C580.376 495.564 578.528 497.104 578.528 499.932C578.528 503.46 581.328 505.42 585.556 505.42ZM585.556 493.884C583.232 493.884 581.244 492.54 581.244 490.244C581.244 487.864 583.232 486.688 585.556 486.688C587.852 486.688 589.84 487.864 589.84 490.244C589.84 492.54 587.852 493.884 585.556 493.884ZM585.556 503.684C582.672 503.684 580.684 502.368 580.684 499.792C580.684 497.272 582.672 495.844 585.556 495.844C588.412 495.844 590.4 497.272 590.4 499.792C590.4 502.368 588.412 503.684 585.556 503.684Z" fill="black"/>
<path d="M794.391 505V503.124H785.347V502.788L788.903 499.512C792.095 496.992 794.979 494.248 794.979 490.468C794.979 486.828 792.179 484.98 788.763 484.98C784.703 484.98 781.903 487.444 781.903 491.336H784.003C784.003 488.424 785.991 486.772 788.791 486.772C791.395 486.772 792.851 488.228 792.851 490.44C792.851 493.408 790.471 495.816 787.783 498.252L782.603 502.928V505H794.391ZM797.509 499.316C797.677 502.928 800.309 505.448 804.285 505.448C808.093 505.448 811.117 503.264 811.117 499.932C811.117 497.496 809.577 495.76 807.169 495.2L806.777 495.116V494.696L807.169 494.64C809.577 494.08 810.865 492.54 810.865 490.3C810.865 487.052 808.177 484.98 804.397 484.98C800.449 484.98 797.817 487.248 797.677 491.056H799.777C799.861 488.48 801.457 486.716 804.313 486.716C807.113 486.716 808.681 488.452 808.681 490.524C808.681 493.8 804.817 494.024 803.585 494.024H802.073V495.928H803.669C806.273 495.928 808.933 497.16 808.933 499.764C808.933 502.284 806.805 503.6 804.285 503.6C801.457 503.6 799.749 501.892 799.609 499.316H797.509ZM817.003 505V500.604H814.679V505H817.003ZM820.84 498.812C820.924 502.76 823.556 505.448 827.7 505.448C832.208 505.448 834.868 502.564 834.868 498.112C834.868 493.688 832.46 491.196 828.904 491.196C827.196 491.196 825.292 491.812 824.116 493.716L823.92 494.052H823.5L823.528 487.276H833.608V485.4H821.624L821.596 496.376H823.864C824.368 494.5 825.796 492.96 828.204 492.96C830.724 492.96 832.656 494.64 832.656 498.252C832.656 501.948 830.556 503.684 827.7 503.684C824.928 503.684 823.108 501.808 822.94 498.84L820.84 498.812Z" fill="black"/>
<line x1="-4.37114e-08" y1="608.5" x2="924" y2="608.5" stroke="black"/>
<path d="M115.517 581.42C119.717 581.42 122.545 579.432 122.545 575.932C122.545 573.104 120.669 571.592 118.569 571.06L118.233 570.948V570.556L118.625 570.416C120.529 569.8 121.817 568.288 121.817 565.992C121.817 563.136 119.465 560.98 115.489 560.98C111.485 560.98 109.161 563.192 109.161 565.992C109.161 568.288 110.477 569.828 112.381 570.416L112.773 570.556V570.948L112.437 571.06C110.337 571.564 108.489 573.104 108.489 575.932C108.489 579.46 111.289 581.42 115.517 581.42ZM115.517 569.884C113.193 569.884 111.205 568.54 111.205 566.244C111.205 563.864 113.193 562.688 115.517 562.688C117.813 562.688 119.801 563.864 119.801 566.244C119.801 568.54 117.813 569.884 115.517 569.884ZM115.517 579.684C112.633 579.684 110.645 578.368 110.645 575.792C110.645 573.272 112.633 571.844 115.517 571.844C118.373 571.844 120.361 573.272 120.361 575.792C120.361 578.368 118.373 579.684 115.517 579.684Z" fill="black"/>
<path d="M327.217 574.812C327.301 578.76 329.933 581.448 334.077 581.448C338.585 581.448 341.245 578.564 341.245 574.112C341.245 569.688 338.837 567.196 335.281 567.196C333.573 567.196 331.669 567.812 330.493 569.716L330.297 570.052H329.877L329.905 563.276H339.985V561.4H328.001L327.973 572.376H330.241C330.745 570.5 332.173 568.96 334.581 568.96C337.101 568.96 339.033 570.64 339.033 574.252C339.033 577.948 336.933 579.684 334.077 579.684C331.305 579.684 329.485 577.808 329.317 574.84L327.217 574.812ZM347.662 581V576.604H345.338V581H347.662ZM351.498 574.812C351.582 578.76 354.214 581.448 358.358 581.448C362.866 581.448 365.526 578.564 365.526 574.112C365.526 569.688 363.118 567.196 359.562 567.196C357.854 567.196 355.95 567.812 354.774 569.716L354.578 570.052H354.158L354.186 563.276H364.266V561.4H352.282L352.254 572.376H354.522C355.026 570.5 356.454 568.96 358.862 568.96C361.382 568.96 363.314 570.64 363.314 574.252C363.314 577.948 361.214 579.684 358.358 579.684C355.586 579.684 353.766 577.808 353.598 574.84L351.498 574.812Z" fill="black"/>
<path d="M550.281 575.316C550.449 578.928 553.081 581.448 557.057 581.448C560.865 581.448 563.889 579.264 563.889 575.932C563.889 573.496 562.349 571.76 559.941 571.2L559.549 571.116V570.696L559.941 570.64C562.349 570.08 563.637 568.54 563.637 566.3C563.637 563.052 560.949 560.98 557.169 560.98C553.221 560.98 550.589 563.248 550.449 567.056H552.549C552.633 564.48 554.229 562.716 557.085 562.716C559.885 562.716 561.453 564.452 561.453 566.524C561.453 569.8 557.589 570.024 556.357 570.024H554.845V571.928H556.441C559.045 571.928 561.705 573.16 561.705 575.764C561.705 578.284 559.577 579.6 557.057 579.6C554.229 579.6 552.521 577.892 552.381 575.316H550.281ZM573.415 581.42C577.615 581.42 580.443 579.432 580.443 575.932C580.443 573.104 578.567 571.592 576.467 571.06L576.131 570.948V570.556L576.523 570.416C578.427 569.8 579.715 568.288 579.715 565.992C579.715 563.136 577.363 560.98 573.387 560.98C569.383 560.98 567.059 563.192 567.059 565.992C567.059 568.288 568.375 569.828 570.279 570.416L570.671 570.556V570.948L570.335 571.06C568.235 571.564 566.387 573.104 566.387 575.932C566.387 579.46 569.187 581.42 573.415 581.42ZM573.415 569.884C571.091 569.884 569.103 568.54 569.103 566.244C569.103 563.864 571.091 562.688 573.415 562.688C575.711 562.688 577.699 563.864 577.699 566.244C577.699 568.54 575.711 569.884 573.415 569.884ZM573.415 579.684C570.531 579.684 568.543 578.368 568.543 575.792C568.543 573.272 570.531 571.844 573.415 571.844C576.271 571.844 578.259 573.272 578.259 575.792C578.259 578.368 576.271 579.684 573.415 579.684ZM586.318 581V576.604H583.994V581H586.318ZM590.155 574.812C590.239 578.76 592.871 581.448 597.015 581.448C601.523 581.448 604.183 578.564 604.183 574.112C604.183 569.688 601.775 567.196 598.219 567.196C596.511 567.196 594.607 567.812 593.431 569.716L593.235 570.052H592.815L592.843 563.276H602.923V561.4H590.939L590.911 572.376H593.179C593.683 570.5 595.111 568.96 597.519 568.96C600.039 568.96 601.971 570.64 601.971 574.252C601.971 577.948 599.871 579.684 597.015 579.684C594.243 579.684 592.423 577.808 592.255 574.84L590.155 574.812Z" fill="black"/>
<path d="M805.821 581V579.124H796.777V578.788L800.333 575.512C803.525 572.992 806.409 570.248 806.409 566.468C806.409 562.828 803.609 560.98 800.193 560.98C796.133 560.98 793.333 563.444 793.333 567.336H795.433C795.433 564.424 797.421 562.772 800.221 562.772C802.825 562.772 804.281 564.228 804.281 566.44C804.281 569.408 801.901 571.816 799.213 574.252L794.033 578.928V581H805.821ZM821.101 561.4H818.077L808.529 574.476V576.744H818.917V581H821.101V576.744H824.013V574.924H821.101V561.4ZM818.917 574.924H810.461V574.504C810.881 574.364 811.301 574.028 812.001 573.048L817.601 565.264C818.217 564.368 818.413 563.724 818.525 563.276H818.917V574.924Z" fill="black"/>
<line x1="-4.37114e-08" y1="684.5" x2="924" y2="684.5" stroke="black"/>
<path d="M103.376 657.42C107.576 657.42 110.404 655.432 110.404 651.932C110.404 649.104 108.528 647.592 106.428 647.06L106.092 646.948V646.556L106.484 646.416C108.388 645.8 109.676 644.288 109.676 641.992C109.676 639.136 107.324 636.98 103.348 636.98C99.3439 636.98 97.0199 639.192 97.0199 641.992C97.0199 644.288 98.3359 645.828 100.24 646.416L100.632 646.556V646.948L100.296 647.06C98.1959 647.564 96.3479 649.104 96.3479 651.932C96.3479 655.46 99.1479 657.42 103.376 657.42ZM103.376 645.884C101.052 645.884 99.0639 644.54 99.0639 642.244C99.0639 639.864 101.052 638.688 103.376 638.688C105.672 638.688 107.66 639.864 107.66 642.244C107.66 644.54 105.672 645.884 103.376 645.884ZM103.376 655.684C100.492 655.684 98.5039 654.368 98.5039 651.792C98.5039 649.272 100.492 647.844 103.376 647.844C106.232 647.844 108.22 649.272 108.22 651.792C108.22 654.368 106.232 655.684 103.376 655.684ZM116.279 657V652.604H113.955V657H116.279ZM120.116 650.812C120.2 654.76 122.832 657.448 126.976 657.448C131.484 657.448 134.144 654.564 134.144 650.112C134.144 645.688 131.736 643.196 128.18 643.196C126.472 643.196 124.568 643.812 123.392 645.716L123.196 646.052H122.776L122.804 639.276H132.884V637.4H120.9L120.872 648.376H123.14C123.644 646.5 125.072 644.96 127.48 644.96C130 644.96 131.932 646.64 131.932 650.252C131.932 653.948 129.832 655.684 126.976 655.684C124.204 655.684 122.384 653.808 122.216 650.84L120.116 650.812Z" fill="black"/>
<path d="M339.584 647.788C339.584 652.772 341.404 657.42 346.612 657.42C350.728 657.42 353.388 654.508 353.388 650.028C353.388 645.996 351.148 643.252 347.368 643.252C345.352 643.252 343.392 644.064 342.328 646.22L342.188 646.5H341.796C341.88 642.132 343.504 638.716 346.948 638.716C349.972 638.716 350.952 641.04 351.12 642.468H353.276C352.828 639.36 350.728 636.98 347.004 636.98C341.264 636.98 339.584 642.16 339.584 647.788ZM346.612 645.016C349.412 645.016 351.232 647.088 351.232 650.28C351.232 653.5 349.468 655.656 346.64 655.656C343.812 655.656 341.936 653.444 341.936 650.224C341.936 647.004 343.784 645.016 346.612 645.016Z" fill="black"/>
<path d="M562.545 651.316C562.713 654.928 565.345 657.448 569.321 657.448C573.129 657.448 576.153 655.264 576.153 651.932C576.153 649.496 574.613 647.76 572.205 647.2L571.813 647.116V646.696L572.205 646.64C574.613 646.08 575.901 644.54 575.901 642.3C575.901 639.052 573.213 636.98 569.433 636.98C565.485 636.98 562.853 639.248 562.713 643.056H564.812C564.897 640.48 566.493 638.716 569.349 638.716C572.149 638.716 573.717 640.452 573.717 642.524C573.717 645.8 569.853 646.024 568.621 646.024H567.109V647.928H568.704C571.309 647.928 573.969 649.16 573.969 651.764C573.969 654.284 571.841 655.6 569.321 655.6C566.493 655.6 564.785 653.892 564.645 651.316H562.545ZM592.455 646.612C592.455 641.628 590.635 636.98 585.427 636.98C581.311 636.98 578.651 639.864 578.651 644.372C578.651 648.404 580.891 651.148 584.671 651.148C586.687 651.148 588.647 650.336 589.711 648.18L589.851 647.9H590.271C590.159 652.268 588.535 655.684 585.119 655.684C582.067 655.684 581.087 653.36 580.947 651.932H578.763C579.211 655.04 581.311 657.42 585.035 657.42C590.775 657.42 592.455 652.24 592.455 646.612ZM585.455 649.384C582.627 649.384 580.807 647.312 580.807 644.12C580.807 640.9 582.571 638.744 585.399 638.744C588.227 638.744 590.103 640.956 590.103 644.176C590.103 647.396 588.255 649.384 585.455 649.384Z" fill="black"/>
<path d="M793.885 657V655.124H784.841V654.788L788.397 651.512C791.589 648.992 794.473 646.248 794.473 642.468C794.473 638.828 791.673 636.98 788.257 636.98C784.197 636.98 781.397 639.444 781.397 643.336H783.497C783.497 640.424 785.485 638.772 788.285 638.772C790.889 638.772 792.345 640.228 792.345 642.44C792.345 645.408 789.965 647.816 787.277 650.252L782.097 654.928V657H793.885ZM809.165 637.4H806.141L796.593 650.476V652.744H806.981V657H809.165V652.744H812.077V650.924H809.165V637.4ZM806.981 650.924H798.525V650.504C798.945 650.364 799.365 650.028 800.065 649.048L805.665 641.264C806.281 640.368 806.477 639.724 806.589 639.276H806.981V650.924ZM817.509 657V652.604H815.185V657H817.509ZM821.346 650.812C821.43 654.76 824.062 657.448 828.206 657.448C832.714 657.448 835.374 654.564 835.374 650.112C835.374 645.688 832.966 643.196 829.41 643.196C827.702 643.196 825.798 643.812 824.622 645.716L824.426 646.052H824.006L824.034 639.276H834.114V637.4H822.13L822.102 648.376H824.37C824.874 646.5 826.302 644.96 828.71 644.96C831.23 644.96 833.162 646.64 833.162 650.252C833.162 653.948 831.062 655.684 828.206 655.684C825.434 655.684 823.614 653.808 823.446 650.84L821.346 650.812Z" fill="black"/>
<line x1="-4.37114e-08" y1="760.5" x2="924" y2="760.5" stroke="black"/>
<path d="M122.416 722.612C122.416 717.628 120.596 712.98 115.388 712.98C111.272 712.98 108.612 715.864 108.612 720.372C108.612 724.404 110.852 727.148 114.632 727.148C116.648 727.148 118.608 726.336 119.672 724.18L119.812 723.9H120.232C120.12 728.268 118.496 731.684 115.08 731.684C112.028 731.684 111.048 729.36 110.908 727.932H108.724C109.172 731.04 111.272 733.42 114.996 733.42C120.736 733.42 122.416 728.24 122.416 722.612ZM115.416 725.384C112.588 725.384 110.768 723.312 110.768 720.12C110.768 716.9 112.532 714.744 115.36 714.744C118.188 714.744 120.064 716.956 120.064 720.176C120.064 723.396 118.216 725.384 115.416 725.384Z" fill="black"/>
<path d="M327.443 723.788C327.443 728.772 329.263 733.42 334.471 733.42C338.587 733.42 341.247 730.508 341.247 726.028C341.247 721.996 339.007 719.252 335.227 719.252C333.211 719.252 331.251 720.064 330.187 722.22L330.047 722.5H329.655C329.739 718.132 331.363 714.716 334.807 714.716C337.831 714.716 338.811 717.04 338.979 718.468H341.135C340.687 715.36 338.587 712.98 334.863 712.98C329.123 712.98 327.443 718.16 327.443 723.788ZM334.471 721.016C337.271 721.016 339.091 723.088 339.091 726.28C339.091 729.5 337.327 731.656 334.499 731.656C331.671 731.656 329.795 729.444 329.795 726.224C329.795 723.004 331.643 721.016 334.471 721.016ZM347.156 733V728.604H344.832V733H347.156ZM350.992 726.812C351.076 730.76 353.708 733.448 357.852 733.448C362.36 733.448 365.02 730.564 365.02 726.112C365.02 721.688 362.612 719.196 359.056 719.196C357.348 719.196 355.444 719.812 354.268 721.716L354.072 722.052H353.652L353.68 715.276H363.76V713.4H351.776L351.748 724.376H354.016C354.52 722.5 355.948 720.96 358.356 720.96C360.876 720.96 362.808 722.64 362.808 726.252C362.808 729.948 360.708 731.684 357.852 731.684C355.08 731.684 353.26 729.808 353.092 726.84L350.992 726.812Z" fill="black"/>
<path d="M573.038 713.4H570.014L560.466 726.476V728.744H570.854V733H573.038V728.744H575.95V726.924H573.038V713.4ZM570.854 726.924H562.398V726.504C562.818 726.364 563.238 726.028 563.938 725.048L569.538 717.264C570.154 716.368 570.35 715.724 570.462 715.276H570.854V726.924ZM586.469 733.364C592.013 733.364 594.225 728.688 594.225 723.172C594.225 717.684 592.013 712.98 586.469 712.98C580.897 712.98 578.685 717.684 578.685 723.172C578.685 728.688 580.897 733.364 586.469 733.364ZM586.469 714.94C590.445 714.94 592.013 718.356 592.013 723.172C592.013 728.016 590.445 731.432 586.469 731.432C582.521 731.432 580.897 728.044 580.897 723.172C580.897 718.356 582.521 714.94 586.469 714.94Z" fill="black"/>
<path d="M805.917 733V731.124H796.873V730.788L800.429 727.512C803.621 724.992 806.505 722.248 806.505 718.468C806.505 714.828 803.705 712.98 800.289 712.98C796.229 712.98 793.429 715.444 793.429 719.336H795.529C795.529 716.424 797.517 714.772 800.317 714.772C802.921 714.772 804.377 716.228 804.377 718.44C804.377 721.408 801.997 723.816 799.309 726.252L794.129 730.928V733H805.917ZM809.315 726.812C809.399 730.76 812.031 733.448 816.175 733.448C820.683 733.448 823.343 730.564 823.343 726.112C823.343 721.688 820.935 719.196 817.379 719.196C815.671 719.196 813.767 719.812 812.591 721.716L812.395 722.052H811.975L812.003 715.276H822.083V713.4H810.099L810.071 724.376H812.339C812.843 722.5 814.271 720.96 816.679 720.96C819.199 720.96 821.131 722.64 821.131 726.252C821.131 729.948 819.031 731.684 816.175 731.684C813.403 731.684 811.583 729.808 811.415 726.84L809.315 726.812Z" fill="black"/>
<line x1="-4.37114e-08" y1="836.5" x2="924" y2="836.5" stroke="black"/>
<path d="M110.275 798.612C110.275 793.628 108.455 788.98 103.247 788.98C99.1309 788.98 96.4709 791.864 96.4709 796.372C96.4709 800.404 98.7109 803.148 102.491 803.148C104.507 803.148 106.467 802.336 107.531 800.18L107.671 799.9H108.091C107.979 804.268 106.355 807.684 102.939 807.684C99.8869 807.684 98.9069 805.36 98.7669 803.932H96.5829C97.0309 807.04 99.1309 809.42 102.855 809.42C108.595 809.42 110.275 804.24 110.275 798.612ZM103.275 801.384C100.447 801.384 98.6269 799.312 98.6269 796.12C98.6269 792.9 100.391 790.744 103.219 790.744C106.047 790.744 107.923 792.956 107.923 796.176C107.923 799.396 106.075 801.384 103.275 801.384ZM116.156 809V804.604H113.832V809H116.156ZM119.992 802.812C120.076 806.76 122.708 809.448 126.852 809.448C131.36 809.448 134.02 806.564 134.02 802.112C134.02 797.688 131.612 795.196 128.056 795.196C126.348 795.196 124.444 795.812 123.268 797.716L123.072 798.052H122.652L122.68 791.276H132.76V789.4H120.776L120.748 800.376H123.016C123.52 798.5 124.948 796.96 127.356 796.96C129.876 796.96 131.808 798.64 131.808 802.252C131.808 805.948 129.708 807.684 126.852 807.684C124.08 807.684 122.26 805.808 122.092 802.84L119.992 802.812Z" fill="black"/>
<path d="M345.105 809L353.085 791.528V789.428H339.925V791.304H351.629V791.724L351.433 791.808C350.593 792.2 349.977 792.928 349.137 794.776L342.753 809H345.105Z" fill="black"/>
<path d="M561.349 789.4H558.325L548.777 802.476V804.744H559.165V809H561.349V804.744H564.261V802.924H561.349V789.4ZM559.165 802.924H550.709V802.504C551.129 802.364 551.549 802.028 552.249 801.048L557.849 793.264C558.465 792.368 558.661 791.724 558.773 791.276H559.165V802.924ZM574.779 809.364C580.323 809.364 582.535 804.688 582.535 799.172C582.535 793.684 580.323 788.98 574.779 788.98C569.207 788.98 566.995 793.684 566.995 799.172C566.995 804.688 569.207 809.364 574.779 809.364ZM574.779 790.94C578.755 790.94 580.323 794.356 580.323 799.172C580.323 804.016 578.755 807.432 574.779 807.432C570.831 807.432 569.207 804.044 569.207 799.172C569.207 794.356 570.831 790.94 574.779 790.94ZM587.822 809V804.604H585.498V809H587.822ZM591.658 802.812C591.742 806.76 594.374 809.448 598.518 809.448C603.026 809.448 605.686 806.564 605.686 802.112C605.686 797.688 603.278 795.196 599.722 795.196C598.014 795.196 596.11 795.812 594.934 797.716L594.738 798.052H594.318L594.346 791.276H604.426V789.4H592.442L592.414 800.376H594.682C595.186 798.5 596.614 796.96 599.022 796.96C601.542 796.96 603.474 798.64 603.474 802.252C603.474 805.948 601.374 807.684 598.518 807.684C595.746 807.684 593.926 805.808 593.758 802.84L591.658 802.812Z" fill="black"/>
<path d="M793.776 809V807.124H784.732V806.788L788.288 803.512C791.48 800.992 794.364 798.248 794.364 794.468C794.364 790.828 791.564 788.98 788.148 788.98C784.088 788.98 781.288 791.444 781.288 795.336H783.388C783.388 792.424 785.376 790.772 788.176 790.772C790.78 790.772 792.236 792.228 792.236 794.44C792.236 797.408 789.856 799.816 787.168 802.252L781.988 806.928V809H793.776ZM797.174 802.812C797.258 806.76 799.89 809.448 804.034 809.448C808.542 809.448 811.202 806.564 811.202 802.112C811.202 797.688 808.794 795.196 805.238 795.196C803.53 795.196 801.626 795.812 800.45 797.716L800.254 798.052H799.834L799.862 791.276H809.942V789.4H797.958L797.93 800.376H800.198C800.702 798.5 802.13 796.96 804.538 796.96C807.058 796.96 808.99 798.64 808.99 802.252C808.99 805.948 806.89 807.684 804.034 807.684C801.262 807.684 799.442 805.808 799.274 802.84L797.174 802.812ZM817.619 809V804.604H815.295V809H817.619ZM821.455 802.812C821.539 806.76 824.171 809.448 828.315 809.448C832.823 809.448 835.483 806.564 835.483 802.112C835.483 797.688 833.075 795.196 829.519 795.196C827.811 795.196 825.907 795.812 824.731 797.716L824.535 798.052H824.115L824.143 791.276H834.223V789.4H822.239L822.211 800.376H824.479C824.983 798.5 826.411 796.96 828.819 796.96C831.339 796.96 833.271 798.64 833.271 802.252C833.271 805.948 831.171 807.684 828.315 807.684C825.543 807.684 823.723 805.808 823.555 802.84L821.455 802.812Z" fill="black"/>
<line x1="-4.37114e-08" y1="912.5" x2="924" y2="912.5" stroke="black"/>
<path d="M109.273 885V865.4H106.949C106.781 866.856 106.081 869.544 102.749 869.544H101.741V871.56H102.357C104.905 871.56 106.025 870.776 106.669 869.32L106.781 869.124H107.173V885H109.273ZM121.474 885.364C127.018 885.364 129.23 880.688 129.23 875.172C129.23 869.684 127.018 864.98 121.474 864.98C115.902 864.98 113.69 869.684 113.69 875.172C113.69 880.688 115.902 885.364 121.474 885.364ZM121.474 866.94C125.45 866.94 127.018 870.356 127.018 875.172C127.018 880.016 125.45 883.432 121.474 883.432C117.526 883.432 115.902 880.044 115.902 875.172C115.902 870.356 117.526 866.94 121.474 866.94Z" fill="black"/>
<path d="M333.703 885L341.683 867.528V865.428H328.523V867.304H340.227V867.724L340.031 867.808C339.191 868.2 338.575 868.928 337.735 870.776L331.351 885H333.703ZM346.076 885V880.604H343.752V885H346.076ZM349.912 878.812C349.996 882.76 352.628 885.448 356.772 885.448C361.28 885.448 363.94 882.564 363.94 878.112C363.94 873.688 361.532 871.196 357.976 871.196C356.268 871.196 354.364 871.812 353.188 873.716L352.992 874.052H352.572L352.6 867.276H362.68V865.4H350.696L350.668 876.376H352.936C353.44 874.5 354.868 872.96 357.276 872.96C359.796 872.96 361.728 874.64 361.728 878.252C361.728 881.948 359.628 883.684 356.772 883.684C354 883.684 352.18 881.808 352.012 878.84L349.912 878.812Z" fill="black"/>
<path d="M576.716 865.4H573.692L564.144 878.476V880.744H574.532V885H576.716V880.744H579.628V878.924H576.716V865.4ZM574.532 878.924H566.076V878.504C566.496 878.364 566.916 878.028 567.616 877.048L573.216 869.264C573.832 868.368 574.028 867.724 574.14 867.276H574.532V878.924ZM589.21 885V865.4H586.886C586.718 866.856 586.018 869.544 582.686 869.544H581.678V871.56H582.294C584.842 871.56 585.962 870.776 586.606 869.32L586.718 869.124H587.11V885H589.21Z" fill="black"/>
<path d="M806.423 885V883.124H797.379V882.788L800.935 879.512C804.127 876.992 807.011 874.248 807.011 870.468C807.011 866.828 804.211 864.98 800.795 864.98C796.735 864.98 793.935 867.444 793.935 871.336H796.035C796.035 868.424 798.023 866.772 800.823 866.772C803.427 866.772 804.883 868.228 804.883 870.44C804.883 873.408 802.503 875.816 799.815 878.252L794.635 882.928V885H806.423ZM809.541 875.788C809.541 880.772 811.361 885.42 816.569 885.42C820.685 885.42 823.345 882.508 823.345 878.028C823.345 873.996 821.105 871.252 817.325 871.252C815.309 871.252 813.349 872.064 812.285 874.22L812.145 874.5H811.753C811.837 870.132 813.461 866.716 816.905 866.716C819.929 866.716 820.909 869.04 821.077 870.468H823.233C822.785 867.36 820.685 864.98 816.961 864.98C811.221 864.98 809.541 870.16 809.541 875.788ZM816.569 873.016C819.369 873.016 821.189 875.088 821.189 878.28C821.189 881.5 819.425 883.656 816.597 883.656C813.769 883.656 811.893 881.444 811.893 878.224C811.893 875.004 813.741 873.016 816.569 873.016Z" fill="black"/>
<line x1="-4.37114e-08" y1="988.5" x2="924" y2="988.5" stroke="black"/>
<path d="M97.5831 961V941.4H95.2591C95.0911 942.856 94.3911 945.544 91.0591 945.544H90.0511V947.56H90.6671C93.2151 947.56 94.3351 946.776 94.9791 945.32L95.0911 945.124H95.4831V961H97.5831ZM109.785 961.364C115.329 961.364 117.541 956.688 117.541 951.172C117.541 945.684 115.329 940.98 109.785 940.98C104.213 940.98 102.001 945.684 102.001 951.172C102.001 956.688 104.213 961.364 109.785 961.364ZM109.785 942.94C113.761 942.94 115.329 946.356 115.329 951.172C115.329 956.016 113.761 959.432 109.785 959.432C105.837 959.432 104.213 956.044 104.213 951.172C104.213 946.356 105.837 942.94 109.785 942.94ZM122.828 961V956.604H120.504V961H122.828ZM126.664 954.812C126.748 958.76 129.38 961.448 133.524 961.448C138.032 961.448 140.692 958.564 140.692 954.112C140.692 949.688 138.284 947.196 134.728 947.196C133.02 947.196 131.116 947.812 129.94 949.716L129.744 950.052H129.324L129.352 943.276H139.432V941.4H127.448L127.42 952.376H129.688C130.192 950.5 131.62 948.96 134.028 948.96C136.548 948.96 138.48 950.64 138.48 954.252C138.48 957.948 136.38 959.684 133.524 959.684C130.752 959.684 128.932 957.808 128.764 954.84L126.664 954.812Z" fill="black"/>
<path d="M346.517 961.42C350.717 961.42 353.545 959.432 353.545 955.932C353.545 953.104 351.669 951.592 349.569 951.06L349.233 950.948V950.556L349.625 950.416C351.529 949.8 352.817 948.288 352.817 945.992C352.817 943.136 350.465 940.98 346.489 940.98C342.485 940.98 340.161 943.192 340.161 945.992C340.161 948.288 341.477 949.828 343.381 950.416L343.773 950.556V950.948L343.437 951.06C341.337 951.564 339.489 953.104 339.489 955.932C339.489 959.46 342.289 961.42 346.517 961.42ZM346.517 949.884C344.193 949.884 342.205 948.54 342.205 946.244C342.205 943.864 344.193 942.688 346.517 942.688C348.813 942.688 350.801 943.864 350.801 946.244C350.801 948.54 348.813 949.884 346.517 949.884ZM346.517 959.684C343.633 959.684 341.645 958.368 341.645 955.792C341.645 953.272 343.633 951.844 346.517 951.844C349.373 951.844 351.361 953.272 351.361 955.792C351.361 958.368 349.373 959.684 346.517 959.684Z" fill="black"/>
<path d="M574.597 941.4H571.573L562.025 954.476V956.744H572.413V961H574.597V956.744H577.509V954.924H574.597V941.4ZM572.413 954.924H563.957V954.504C564.377 954.364 564.797 954.028 565.497 953.048L571.097 945.264C571.713 944.368 571.909 943.724 572.021 943.276H572.413V954.924ZM592.321 961V959.124H583.277V958.788L586.833 955.512C590.025 952.992 592.909 950.248 592.909 946.468C592.909 942.828 590.109 940.98 586.693 940.98C582.633 940.98 579.833 943.444 579.833 947.336H581.933C581.933 944.424 583.921 942.772 586.721 942.772C589.325 942.772 590.781 944.228 590.781 946.44C590.781 949.408 588.401 951.816 585.713 954.252L580.533 958.928V961H592.321Z" fill="black"/>
<path d="M794.282 961V959.124H785.238V958.788L788.794 955.512C791.986 952.992 794.87 950.248 794.87 946.468C794.87 942.828 792.07 940.98 788.654 940.98C784.594 940.98 781.794 943.444 781.794 947.336H783.894C783.894 944.424 785.882 942.772 788.682 942.772C791.286 942.772 792.742 944.228 792.742 946.44C792.742 949.408 790.362 951.816 787.674 954.252L782.494 958.928V961H794.282ZM797.4 951.788C797.4 956.772 799.22 961.42 804.428 961.42C808.544 961.42 811.204 958.508 811.204 954.028C811.204 949.996 808.964 947.252 805.184 947.252C803.168 947.252 801.208 948.064 800.144 950.22L800.004 950.5H799.612C799.696 946.132 801.32 942.716 804.764 942.716C807.788 942.716 808.768 945.04 808.936 946.468H811.092C810.644 943.36 808.544 940.98 804.82 940.98C799.08 940.98 797.4 946.16 797.4 951.788ZM804.428 949.016C807.228 949.016 809.048 951.088 809.048 954.28C809.048 957.5 807.284 959.656 804.456 959.656C801.628 959.656 799.752 957.444 799.752 954.224C799.752 951.004 801.6 949.016 804.428 949.016ZM817.113 961V956.604H814.789V961H817.113ZM820.95 954.812C821.034 958.76 823.666 961.448 827.81 961.448C832.318 961.448 834.978 958.564 834.978 954.112C834.978 949.688 832.57 947.196 829.014 947.196C827.306 947.196 825.402 947.812 824.226 949.716L824.03 950.052H823.61L823.638 943.276H833.718V941.4H821.734L821.706 952.376H823.974C824.478 950.5 825.906 948.96 828.314 948.96C830.834 948.96 832.766 950.64 832.766 954.252C832.766 957.948 830.666 959.684 827.81 959.684C825.038 959.684 823.218 957.808 823.05 954.84L820.95 954.812Z" fill="black"/>
<line x1="-4.37114e-08" y1="1064.5" x2="924" y2="1064.5" stroke="black"/>
<path d="M112.622 1037V1017.4H110.298C110.13 1018.86 109.43 1021.54 106.098 1021.54H105.09V1023.56H105.706C108.254 1023.56 109.374 1022.78 110.018 1021.32L110.13 1021.12H110.522V1037H112.622ZM124.544 1037V1017.4H122.22C122.052 1018.86 121.352 1021.54 118.02 1021.54H117.012V1023.56H117.628C120.176 1023.56 121.296 1022.78 121.94 1021.32L122.052 1021.12H122.444V1037H124.544Z" fill="black"/>
<path d="M334.376 1037.42C338.576 1037.42 341.404 1035.43 341.404 1031.93C341.404 1029.1 339.528 1027.59 337.428 1027.06L337.092 1026.95V1026.56L337.484 1026.42C339.388 1025.8 340.676 1024.29 340.676 1021.99C340.676 1019.14 338.324 1016.98 334.348 1016.98C330.344 1016.98 328.02 1019.19 328.02 1021.99C328.02 1024.29 329.336 1025.83 331.24 1026.42L331.632 1026.56V1026.95L331.296 1027.06C329.196 1027.56 327.348 1029.1 327.348 1031.93C327.348 1035.46 330.148 1037.42 334.376 1037.42ZM334.376 1025.88C332.052 1025.88 330.064 1024.54 330.064 1022.24C330.064 1019.86 332.052 1018.69 334.376 1018.69C336.672 1018.69 338.66 1019.86 338.66 1022.24C338.66 1024.54 336.672 1025.88 334.376 1025.88ZM334.376 1035.68C331.492 1035.68 329.504 1034.37 329.504 1031.79C329.504 1029.27 331.492 1027.84 334.376 1027.84C337.232 1027.84 339.22 1029.27 339.22 1031.79C339.22 1034.37 337.232 1035.68 334.376 1035.68ZM347.279 1037V1032.6H344.955V1037H347.279ZM351.116 1030.81C351.2 1034.76 353.832 1037.45 357.976 1037.45C362.484 1037.45 365.144 1034.56 365.144 1030.11C365.144 1025.69 362.736 1023.2 359.18 1023.2C357.472 1023.2 355.568 1023.81 354.392 1025.72L354.196 1026.05H353.776L353.804 1019.28H363.884V1017.4H351.9L351.872 1028.38H354.14C354.644 1026.5 356.072 1024.96 358.48 1024.96C361 1024.96 362.932 1026.64 362.932 1030.25C362.932 1033.95 360.832 1035.68 357.976 1035.68C355.204 1035.68 353.384 1033.81 353.216 1030.84L351.116 1030.81Z" fill="black"/>
<path d="M562.456 1017.4H559.432L549.884 1030.48V1032.74H560.272V1037H562.456V1032.74H565.368V1030.92H562.456V1017.4ZM560.272 1030.92H551.816V1030.5C552.236 1030.36 552.656 1030.03 553.356 1029.05L558.956 1021.26C559.572 1020.37 559.768 1019.72 559.88 1019.28H560.272V1030.92ZM580.18 1037V1035.12H571.136V1034.79L574.692 1031.51C577.884 1028.99 580.768 1026.25 580.768 1022.47C580.768 1018.83 577.968 1016.98 574.552 1016.98C570.492 1016.98 567.692 1019.44 567.692 1023.34H569.792C569.792 1020.42 571.78 1018.77 574.58 1018.77C577.184 1018.77 578.64 1020.23 578.64 1022.44C578.64 1025.41 576.26 1027.82 573.572 1030.25L568.392 1034.93V1037H580.18ZM586.714 1037V1032.6H584.39V1037H586.714ZM590.551 1030.81C590.635 1034.76 593.267 1037.45 597.411 1037.45C601.919 1037.45 604.579 1034.56 604.579 1030.11C604.579 1025.69 602.171 1023.2 598.615 1023.2C596.907 1023.2 595.003 1023.81 593.827 1025.72L593.631 1026.05H593.211L593.239 1019.28H603.319V1017.4H591.335L591.307 1028.38H593.575C594.079 1026.5 595.507 1024.96 597.915 1024.96C600.435 1024.96 602.367 1026.64 602.367 1030.25C602.367 1033.95 600.267 1035.68 597.411 1035.68C594.639 1035.68 592.819 1033.81 592.651 1030.84L590.551 1030.81Z" fill="black"/>
<path d="M806.874 1037V1035.12H797.83V1034.79L801.386 1031.51C804.578 1028.99 807.462 1026.25 807.462 1022.47C807.462 1018.83 804.662 1016.98 801.246 1016.98C797.186 1016.98 794.386 1019.44 794.386 1023.34H796.486C796.486 1020.42 798.474 1018.77 801.274 1018.77C803.878 1018.77 805.334 1020.23 805.334 1022.44C805.334 1025.41 802.954 1027.82 800.266 1030.25L795.086 1034.93V1037H806.874ZM814.953 1037L822.933 1019.53V1017.43H809.773V1019.3H821.477V1019.72L821.281 1019.81C820.441 1020.2 819.825 1020.93 818.985 1022.78L812.601 1037H814.953Z" fill="black"/>
<line x1="-4.37114e-08" y1="1140.5" x2="924" y2="1140.5" stroke="black"/>
<path d="M100.482 1113V1093.4H98.1575C97.9895 1094.86 97.2895 1097.54 93.9575 1097.54H92.9495V1099.56H93.5655C96.1135 1099.56 97.2335 1098.78 97.8775 1097.32L97.9895 1097.12H98.3815V1113H100.482ZM112.403 1113V1093.4H110.079C109.911 1094.86 109.211 1097.54 105.879 1097.54H104.871V1099.56H105.487C108.035 1099.56 109.155 1098.78 109.799 1097.32L109.911 1097.12H110.303V1113H112.403ZM119.929 1113V1108.6H117.605V1113H119.929ZM123.766 1106.81C123.85 1110.76 126.482 1113.45 130.626 1113.45C135.134 1113.45 137.794 1110.56 137.794 1106.11C137.794 1101.69 135.386 1099.2 131.83 1099.2C130.122 1099.2 128.218 1099.81 127.042 1101.72L126.846 1102.05H126.426L126.454 1095.28H136.534V1093.4H124.55L124.522 1104.38H126.79C127.294 1102.5 128.722 1100.96 131.13 1100.96C133.65 1100.96 135.582 1102.64 135.582 1106.25C135.582 1109.95 133.482 1111.68 130.626 1111.68C127.854 1111.68 126.034 1109.81 125.866 1106.84L123.766 1106.81Z" fill="black"/>
<path d="M353.416 1102.61C353.416 1097.63 351.596 1092.98 346.388 1092.98C342.272 1092.98 339.612 1095.86 339.612 1100.37C339.612 1104.4 341.852 1107.15 345.632 1107.15C347.648 1107.15 349.608 1106.34 350.672 1104.18L350.812 1103.9H351.232C351.12 1108.27 349.496 1111.68 346.08 1111.68C343.028 1111.68 342.048 1109.36 341.908 1107.93H339.724C340.172 1111.04 342.272 1113.42 345.996 1113.42C351.736 1113.42 353.416 1108.24 353.416 1102.61ZM346.416 1105.38C343.588 1105.38 341.768 1103.31 341.768 1100.12C341.768 1096.9 343.532 1094.74 346.36 1094.74C349.188 1094.74 351.064 1096.96 351.064 1100.18C351.064 1103.4 349.216 1105.38 346.416 1105.38Z" fill="black"/>
<path d="M574.31 1093.4H571.286L561.738 1106.48V1108.74H572.126V1113H574.31V1108.74H577.222V1106.92H574.31V1093.4ZM572.126 1106.92H563.67V1106.5C564.09 1106.36 564.51 1106.03 565.21 1105.05L570.81 1097.26C571.426 1096.37 571.622 1095.72 571.734 1095.28H572.126V1106.92ZM579.648 1107.32C579.816 1110.93 582.448 1113.45 586.424 1113.45C590.232 1113.45 593.256 1111.26 593.256 1107.93C593.256 1105.5 591.716 1103.76 589.308 1103.2L588.916 1103.12V1102.7L589.308 1102.64C591.716 1102.08 593.004 1100.54 593.004 1098.3C593.004 1095.05 590.316 1092.98 586.536 1092.98C582.588 1092.98 579.956 1095.25 579.816 1099.06H581.916C582 1096.48 583.596 1094.72 586.452 1094.72C589.252 1094.72 590.82 1096.45 590.82 1098.52C590.82 1101.8 586.956 1102.02 585.724 1102.02H584.212V1103.93H585.808C588.412 1103.93 591.072 1105.16 591.072 1107.76C591.072 1110.28 588.944 1111.6 586.424 1111.6C583.596 1111.6 581.888 1109.89 581.748 1107.32H579.648Z" fill="black"/>
<path d="M795.471 1113V1111.12H786.427V1110.79L789.983 1107.51C793.175 1104.99 796.059 1102.25 796.059 1098.47C796.059 1094.83 793.259 1092.98 789.843 1092.98C785.783 1092.98 782.983 1095.44 782.983 1099.34H785.083C785.083 1096.42 787.071 1094.77 789.871 1094.77C792.475 1094.77 793.931 1096.23 793.931 1098.44C793.931 1101.41 791.551 1103.82 788.863 1106.25L783.683 1110.93V1113H795.471ZM803.551 1113L811.531 1095.53V1093.43H798.371V1095.3H810.075V1095.72L809.879 1095.81C809.039 1096.2 808.423 1096.93 807.583 1098.78L801.199 1113H803.551ZM815.923 1113V1108.6H813.599V1113H815.923ZM819.76 1106.81C819.844 1110.76 822.476 1113.45 826.62 1113.45C831.128 1113.45 833.788 1110.56 833.788 1106.11C833.788 1101.69 831.38 1099.2 827.824 1099.2C826.116 1099.2 824.212 1099.81 823.036 1101.72L822.84 1102.05H822.42L822.448 1095.28H832.528V1093.4H820.544L820.516 1104.38H822.784C823.288 1102.5 824.716 1100.96 827.124 1100.96C829.644 1100.96 831.576 1102.64 831.576 1106.25C831.576 1109.95 829.476 1111.68 826.62 1111.68C823.848 1111.68 822.028 1109.81 821.86 1106.84L819.76 1106.81Z" fill="black"/>
<line x1="-4.37114e-08" y1="1216.5" x2="924" y2="1216.5" stroke="black"/>
<path d="M110.626 1189V1169.4H108.302C108.134 1170.86 107.434 1173.54 104.102 1173.54H103.094V1175.56H103.71C106.258 1175.56 107.378 1174.78 108.022 1173.32L108.134 1173.12H108.526V1189H110.626ZM127.532 1189V1187.12H118.488V1186.79L122.044 1183.51C125.236 1180.99 128.12 1178.25 128.12 1174.47C128.12 1170.83 125.32 1168.98 121.904 1168.98C117.844 1168.98 115.044 1171.44 115.044 1175.34H117.144C117.144 1172.42 119.132 1170.77 121.932 1170.77C124.536 1170.77 125.992 1172.23 125.992 1174.44C125.992 1177.41 123.612 1179.82 120.924 1182.25L115.744 1186.93V1189H127.532Z" fill="black"/>
<path d="M341.275 1178.61C341.275 1173.63 339.455 1168.98 334.247 1168.98C330.131 1168.98 327.471 1171.86 327.471 1176.37C327.471 1180.4 329.711 1183.15 333.491 1183.15C335.507 1183.15 337.467 1182.34 338.531 1180.18L338.671 1179.9H339.091C338.979 1184.27 337.355 1187.68 333.939 1187.68C330.887 1187.68 329.907 1185.36 329.767 1183.93H327.583C328.031 1187.04 330.131 1189.42 333.855 1189.42C339.595 1189.42 341.275 1184.24 341.275 1178.61ZM334.275 1181.38C331.447 1181.38 329.627 1179.31 329.627 1176.12C329.627 1172.9 331.391 1170.74 334.219 1170.74C337.047 1170.74 338.923 1172.96 338.923 1176.18C338.923 1179.4 337.075 1181.38 334.275 1181.38ZM347.156 1189V1184.6H344.832V1189H347.156ZM350.992 1182.81C351.076 1186.76 353.708 1189.45 357.852 1189.45C362.36 1189.45 365.02 1186.56 365.02 1182.11C365.02 1177.69 362.612 1175.2 359.056 1175.2C357.348 1175.2 355.444 1175.81 354.268 1177.72L354.072 1178.05H353.652L353.68 1171.28H363.76V1169.4H351.776L351.748 1180.38H354.016C354.52 1178.5 355.948 1176.96 358.356 1176.96C360.876 1176.96 362.808 1178.64 362.808 1182.25C362.808 1185.95 360.708 1187.68 357.852 1187.68C355.08 1187.68 353.26 1185.81 353.092 1182.84L350.992 1182.81Z" fill="black"/>
<path d="M573.394 1169.4H570.37L560.822 1182.48V1184.74H571.21V1189H573.394V1184.74H576.306V1182.92H573.394V1169.4ZM571.21 1182.92H562.754V1182.5C563.174 1182.36 563.594 1182.03 564.294 1181.05L569.894 1173.26C570.51 1172.37 570.706 1171.72 570.818 1171.28H571.21V1182.92ZM591.304 1169.4H588.28L578.732 1182.48V1184.74H589.12V1189H591.304V1184.74H594.216V1182.92H591.304V1169.4ZM589.12 1182.92H580.664V1182.5C581.084 1182.36 581.504 1182.03 582.204 1181.05L587.804 1173.26C588.42 1172.37 588.616 1171.72 588.728 1171.28H589.12V1182.92Z" fill="black"/>
<path d="M806.299 1189V1187.12H797.255V1186.79L800.811 1183.51C804.003 1180.99 806.887 1178.25 806.887 1174.47C806.887 1170.83 804.087 1168.98 800.671 1168.98C796.611 1168.98 793.811 1171.44 793.811 1175.34H795.911C795.911 1172.42 797.899 1170.77 800.699 1170.77C803.303 1170.77 804.759 1172.23 804.759 1174.44C804.759 1177.41 802.379 1179.82 799.691 1182.25L794.511 1186.93V1189H806.299ZM816.474 1189.42C820.674 1189.42 823.502 1187.43 823.502 1183.93C823.502 1181.1 821.626 1179.59 819.526 1179.06L819.19 1178.95V1178.56L819.582 1178.42C821.486 1177.8 822.774 1176.29 822.774 1173.99C822.774 1171.14 820.422 1168.98 816.446 1168.98C812.442 1168.98 810.118 1171.19 810.118 1173.99C810.118 1176.29 811.434 1177.83 813.338 1178.42L813.73 1178.56V1178.95L813.394 1179.06C811.294 1179.56 809.446 1181.1 809.446 1183.93C809.446 1187.46 812.246 1189.42 816.474 1189.42ZM816.474 1177.88C814.15 1177.88 812.162 1176.54 812.162 1174.24C812.162 1171.86 814.15 1170.69 816.474 1170.69C818.77 1170.69 820.758 1171.86 820.758 1174.24C820.758 1176.54 818.77 1177.88 816.474 1177.88ZM816.474 1187.68C813.59 1187.68 811.602 1186.37 811.602 1183.79C811.602 1181.27 813.59 1179.84 816.474 1179.84C819.33 1179.84 821.318 1181.27 821.318 1183.79C821.318 1186.37 819.33 1187.68 816.474 1187.68Z" fill="black"/>
<line x1="-4.37114e-08" y1="1292.5" x2="924" y2="1292.5" stroke="black"/>
<path d="M98.4854 1265V1245.4H96.1614C95.9934 1246.86 95.2934 1249.54 91.9614 1249.54H90.9534V1251.56H91.5694C94.1174 1251.56 95.2374 1250.78 95.8814 1249.32L95.9934 1249.12H96.3854V1265H98.4854ZM115.391 1265V1263.12H106.347V1262.79L109.903 1259.51C113.095 1256.99 115.979 1254.25 115.979 1250.47C115.979 1246.83 113.179 1244.98 109.763 1244.98C105.703 1244.98 102.903 1247.44 102.903 1251.34H105.003C105.003 1248.42 106.991 1246.77 109.791 1246.77C112.395 1246.77 113.851 1248.23 113.851 1250.44C113.851 1253.41 111.471 1255.82 108.783 1258.25L103.603 1262.93V1265H115.391ZM121.925 1265V1260.6H119.601V1265H121.925ZM125.762 1258.81C125.846 1262.76 128.478 1265.45 132.622 1265.45C137.13 1265.45 139.79 1262.56 139.79 1258.11C139.79 1253.69 137.382 1251.2 133.826 1251.2C132.118 1251.2 130.214 1251.81 129.038 1253.72L128.842 1254.05H128.422L128.45 1247.28H138.53V1245.4H126.546L126.518 1256.38H128.786C129.29 1254.5 130.718 1252.96 133.126 1252.96C135.646 1252.96 137.578 1254.64 137.578 1258.25C137.578 1261.95 135.478 1263.68 132.622 1263.68C129.85 1263.68 128.03 1261.81 127.862 1258.84L125.762 1258.81Z" fill="black"/>
<path d="M340.273 1265V1245.4H337.949C337.781 1246.86 337.081 1249.54 333.749 1249.54H332.741V1251.56H333.357C335.905 1251.56 337.025 1250.78 337.669 1249.32L337.781 1249.12H338.173V1265H340.273ZM352.474 1265.36C358.018 1265.36 360.23 1260.69 360.23 1255.17C360.23 1249.68 358.018 1244.98 352.474 1244.98C346.902 1244.98 344.69 1249.68 344.69 1255.17C344.69 1260.69 346.902 1265.36 352.474 1265.36ZM352.474 1246.94C356.45 1246.94 358.018 1250.36 358.018 1255.17C358.018 1260.02 356.45 1263.43 352.474 1263.43C348.526 1263.43 346.902 1260.04 346.902 1255.17C346.902 1250.36 348.526 1246.94 352.474 1246.94Z" fill="black"/>
<path d="M561.458 1245.4H558.434L548.886 1258.48V1260.74H559.274V1265H561.458V1260.74H564.37V1258.92H561.458V1245.4ZM559.274 1258.92H550.818V1258.5C551.238 1258.36 551.658 1258.03 552.358 1257.05L557.958 1249.26C558.574 1248.37 558.77 1247.72 558.882 1247.28H559.274V1258.92ZM579.368 1245.4H576.344L566.796 1258.48V1260.74H577.184V1265H579.368V1260.74H582.28V1258.92H579.368V1245.4ZM577.184 1258.92H568.728V1258.5C569.148 1258.36 569.568 1258.03 570.268 1257.05L575.868 1249.26C576.484 1248.37 576.68 1247.72 576.792 1247.28H577.184V1258.92ZM587.712 1265V1260.6H585.388V1265H587.712ZM591.549 1258.81C591.633 1262.76 594.265 1265.45 598.409 1265.45C602.917 1265.45 605.577 1262.56 605.577 1258.11C605.577 1253.69 603.169 1251.2 599.613 1251.2C597.905 1251.2 596.001 1251.81 594.825 1253.72L594.629 1254.05H594.209L594.237 1247.28H604.317V1245.4H592.333L592.305 1256.38H594.573C595.077 1254.5 596.505 1252.96 598.913 1252.96C601.433 1252.96 603.365 1254.64 603.365 1258.25C603.365 1261.95 601.265 1263.68 598.409 1263.68C595.637 1263.68 593.817 1261.81 593.649 1258.84L591.549 1258.81Z" fill="black"/>
<path d="M794.159 1265V1263.12H785.115V1262.79L788.671 1259.51C791.863 1256.99 794.747 1254.25 794.747 1250.47C794.747 1246.83 791.947 1244.98 788.531 1244.98C784.471 1244.98 781.671 1247.44 781.671 1251.34H783.771C783.771 1248.42 785.759 1246.77 788.559 1246.77C791.163 1246.77 792.619 1248.23 792.619 1250.44C792.619 1253.41 790.239 1255.82 787.551 1258.25L782.371 1262.93V1265H794.159ZM804.333 1265.42C808.533 1265.42 811.361 1263.43 811.361 1259.93C811.361 1257.1 809.485 1255.59 807.385 1255.06L807.049 1254.95V1254.56L807.441 1254.42C809.345 1253.8 810.633 1252.29 810.633 1249.99C810.633 1247.14 808.281 1244.98 804.305 1244.98C800.301 1244.98 797.977 1247.19 797.977 1249.99C797.977 1252.29 799.293 1253.83 801.197 1254.42L801.589 1254.56V1254.95L801.253 1255.06C799.153 1255.56 797.305 1257.1 797.305 1259.93C797.305 1263.46 800.105 1265.42 804.333 1265.42ZM804.333 1253.88C802.009 1253.88 800.021 1252.54 800.021 1250.24C800.021 1247.86 802.009 1246.69 804.333 1246.69C806.629 1246.69 808.617 1247.86 808.617 1250.24C808.617 1252.54 806.629 1253.88 804.333 1253.88ZM804.333 1263.68C801.449 1263.68 799.461 1262.37 799.461 1259.79C799.461 1257.27 801.449 1255.84 804.333 1255.84C807.189 1255.84 809.177 1257.27 809.177 1259.79C809.177 1262.37 807.189 1263.68 804.333 1263.68ZM817.236 1265V1260.6H814.912V1265H817.236ZM821.073 1258.81C821.157 1262.76 823.789 1265.45 827.933 1265.45C832.441 1265.45 835.101 1262.56 835.101 1258.11C835.101 1253.69 832.693 1251.2 829.137 1251.2C827.429 1251.2 825.525 1251.81 824.349 1253.72L824.153 1254.05H823.733L823.761 1247.28H833.841V1245.4H821.857L821.829 1256.38H824.097C824.601 1254.5 826.029 1252.96 828.437 1252.96C830.957 1252.96 832.889 1254.64 832.889 1258.25C832.889 1261.95 830.789 1263.68 827.933 1263.68C825.161 1263.68 823.341 1261.81 823.173 1258.84L821.073 1258.81Z" fill="black"/>
<path d="M110.544 1341V1321.4H108.22C108.052 1322.86 107.352 1325.54 104.02 1325.54H103.012V1327.56H103.628C106.176 1327.56 107.296 1326.78 107.94 1325.32L108.052 1325.12H108.444V1341H110.544ZM114.654 1335.32C114.822 1338.93 117.454 1341.45 121.43 1341.45C125.238 1341.45 128.262 1339.26 128.262 1335.93C128.262 1333.5 126.722 1331.76 124.314 1331.2L123.922 1331.12V1330.7L124.314 1330.64C126.722 1330.08 128.01 1328.54 128.01 1326.3C128.01 1323.05 125.322 1320.98 121.542 1320.98C117.594 1320.98 114.962 1323.25 114.822 1327.06H116.922C117.006 1324.48 118.602 1322.72 121.458 1322.72C124.258 1322.72 125.826 1324.45 125.826 1326.52C125.826 1329.8 121.962 1330.02 120.73 1330.02H119.218V1331.93H120.814C123.418 1331.93 126.078 1333.16 126.078 1335.76C126.078 1338.28 123.95 1339.6 121.43 1339.6C118.602 1339.6 116.894 1337.89 116.754 1335.32H114.654Z" fill="black"/>
<path d="M328.583 1341V1321.4H326.259C326.091 1322.86 325.391 1325.54 322.059 1325.54H321.051V1327.56H321.667C324.215 1327.56 325.335 1326.78 325.979 1325.32L326.091 1325.12H326.483V1341H328.583ZM340.785 1341.36C346.329 1341.36 348.541 1336.69 348.541 1331.17C348.541 1325.68 346.329 1320.98 340.785 1320.98C335.213 1320.98 333.001 1325.68 333.001 1331.17C333.001 1336.69 335.213 1341.36 340.785 1341.36ZM340.785 1322.94C344.761 1322.94 346.329 1326.36 346.329 1331.17C346.329 1336.02 344.761 1339.43 340.785 1339.43C336.837 1339.43 335.213 1336.04 335.213 1331.17C335.213 1326.36 336.837 1322.94 340.785 1322.94ZM353.828 1341V1336.6H351.504V1341H353.828ZM357.664 1334.81C357.748 1338.76 360.38 1341.45 364.524 1341.45C369.032 1341.45 371.692 1338.56 371.692 1334.11C371.692 1329.69 369.284 1327.2 365.728 1327.2C364.02 1327.2 362.116 1327.81 360.94 1329.72L360.744 1330.05H360.324L360.352 1323.28H370.432V1321.4H358.448L358.42 1332.38H360.688C361.192 1330.5 362.62 1328.96 365.028 1328.96C367.548 1328.96 369.48 1330.64 369.48 1334.25C369.48 1337.95 367.38 1339.68 364.524 1339.68C361.752 1339.68 359.932 1337.81 359.764 1334.84L357.664 1334.81Z" fill="black"/>
<path d="M573.695 1321.4H570.671L561.123 1334.48V1336.74H571.511V1341H573.695V1336.74H576.607V1334.92H573.695V1321.4ZM571.511 1334.92H563.055V1334.5C563.475 1334.36 563.895 1334.03 564.595 1333.05L570.195 1325.26C570.811 1324.37 571.007 1323.72 571.119 1323.28H571.511V1334.92ZM579.313 1334.81C579.397 1338.76 582.029 1341.45 586.173 1341.45C590.681 1341.45 593.341 1338.56 593.341 1334.11C593.341 1329.69 590.933 1327.2 587.377 1327.2C585.669 1327.2 583.765 1327.81 582.589 1329.72L582.393 1330.05H581.973L582.001 1323.28H592.081V1321.4H580.097L580.069 1332.38H582.337C582.841 1330.5 584.269 1328.96 586.677 1328.96C589.197 1328.96 591.129 1330.64 591.129 1334.25C591.129 1337.95 589.029 1339.68 586.173 1339.68C583.401 1339.68 581.581 1337.81 581.413 1334.84L579.313 1334.81Z" fill="black"/>
<path d="M806.423 1341V1339.12H797.379V1338.79L800.935 1335.51C804.127 1332.99 807.011 1330.25 807.011 1326.47C807.011 1322.83 804.211 1320.98 800.795 1320.98C796.735 1320.98 793.935 1323.44 793.935 1327.34H796.035C796.035 1324.42 798.023 1322.77 800.823 1322.77C803.427 1322.77 804.883 1324.23 804.883 1326.44C804.883 1329.41 802.503 1331.82 799.815 1334.25L794.635 1338.93V1341H806.423ZM823.373 1330.61C823.373 1325.63 821.553 1320.98 816.345 1320.98C812.229 1320.98 809.569 1323.86 809.569 1328.37C809.569 1332.4 811.809 1335.15 815.589 1335.15C817.605 1335.15 819.565 1334.34 820.629 1332.18L820.769 1331.9H821.189C821.077 1336.27 819.453 1339.68 816.037 1339.68C812.985 1339.68 812.005 1337.36 811.865 1335.93H809.681C810.129 1339.04 812.229 1341.42 815.953 1341.42C821.693 1341.42 823.373 1336.24 823.373 1330.61ZM816.373 1333.38C813.545 1333.38 811.725 1331.31 811.725 1328.12C811.725 1324.9 813.489 1322.74 816.317 1322.74C819.145 1322.74 821.021 1324.96 821.021 1328.18C821.021 1331.4 819.173 1333.38 816.373 1333.38Z" fill="black"/>
</svg>
